<svg xmlns="http://www.w3.org/2000/svg" version="1.1" xmlns:xlink="http://www.w3.org/1999/xlink" xmlns:svgjs="http://svgjs.dev/svgjs" width="960" height="668" viewBox="0 0 960 668"><rect width="960" height="668" fill="#0f172a"></rect><rect width="880" height="604" x="40" y="32" rx="18" ry="18" fill="#111c35" stroke-width="1" stroke="#22304f"></rect><text x="64" y="69.1015625" font-size="22" font-family="Segoe UI" font-weight="700" fill="#f8fafc" svgjs:data="{&quot;leading&quot;:&quot;1.3&quot;}">Project Progress</text><text x="64" y="99.1015625" font-size="12" font-family="Segoe UI" font-weight="400" fill="#94a3b8" svgjs:data="{&quot;leading&quot;:&quot;1.3&quot;}">Top projects and the files absorbing most of your recent effort.</text><text x="64" y="143.1015625" font-size="16" font-family="Segoe UI" font-weight="700" fill="#f8fafc" svgjs:data="{&quot;leading&quot;:&quot;1.3&quot;}">Top projects</text><text x="64" y="409.1015625" font-size="16" font-family="Segoe UI" font-weight="700" fill="#f8fafc" svgjs:data="{&quot;leading&quot;:&quot;1.3&quot;}">Recent files</text><line x1="64" y1="354" x2="896" y2="354" stroke-width="1" stroke="#22304f"></line><rect width="832" height="56" x="64" y="158" rx="12" ry="12" fill="#15233d"></rect><text x="64" y="181.1015625" font-size="14" font-family="Segoe UI" font-weight="600" fill="#e2e8f0" svgjs:data="{&quot;leading&quot;:&quot;1.3&quot;}">activity-tracker</text><rect width="88" height="22" x="792" y="162" rx="11" ry="11" fill="#18243b" stroke-width="1" stroke="#22304f"></rect><text x="804" y="184.1015625" font-size="11" font-family="Segoe UI" font-weight="600" fill="#cbd5e1" svgjs:data="{&quot;leading&quot;:&quot;1.3&quot;}">78 saves</text><rect width="700" height="10" x="64" y="188" rx="5" ry="5" fill="#0f172a"></rect><rect width="640" height="10" x="64" y="188" rx="5" ry="5" fill="#38bdf8"></rect><text x="64" y="221.1015625" font-size="11" font-family="Segoe UI" font-weight="400" fill="#64748b" svgjs:data="{&quot;leading&quot;:&quot;1.3&quot;}">39K score • 37K lines</text><rect width="832" height="56" x="64" y="232" rx="12" ry="12" fill="#15233d"></rect><text x="64" y="255.1015625" font-size="14" font-family="Segoe UI" font-weight="600" fill="#e2e8f0" svgjs:data="{&quot;leading&quot;:&quot;1.3&quot;}">aora</text><rect width="88" height="22" x="792" y="236" rx="11" ry="11" fill="#18243b" stroke-width="1" stroke="#22304f"></rect><text x="804" y="258.1015625" font-size="11" font-family="Segoe UI" font-weight="600" fill="#cbd5e1" svgjs:data="{&quot;leading&quot;:&quot;1.3&quot;}">1 saves</text><rect width="700" height="10" x="64" y="262" rx="5" ry="5" fill="#0f172a"></rect><rect width="10" height="10" x="64" y="262" rx="5" ry="5" fill="#38bdf8"></rect><text x="64" y="295.1015625" font-size="11" font-family="Segoe UI" font-weight="400" fill="#64748b" svgjs:data="{&quot;leading&quot;:&quot;1.3&quot;}">1 score • 0 lines</text><rect width="832" height="56" x="64" y="424" rx="12" ry="12" fill="#15233d"></rect><text x="64" y="447.1015625" font-size="14" font-family="Segoe UI" font-weight="600" fill="#e2e8f0" svgjs:data="{&quot;leading&quot;:&quot;1.3&quot;}">app.js</text><rect width="82" height="22" x="792" y="428" rx="11" ry="11" fill="#20193f" stroke-width="1" stroke="#22304f"></rect><text x="804" y="450.1015625" font-size="11" font-family="Segoe UI" font-weight="600" fill="#cbd5e1" svgjs:data="{&quot;leading&quot;:&quot;1.3&quot;}">41 saves</text><rect width="700" height="10" x="64" y="454" rx="5" ry="5" fill="#0f172a"></rect><rect width="640" height="10" x="64" y="454" rx="5" ry="5" fill="#8b5cf6"></rect><text x="64" y="487.1015625" font-size="11" font-family="Segoe UI" font-weight="400" fill="#64748b" svgjs:data="{&quot;leading&quot;:&quot;1.3&quot;}">17K lines • 18K score</text><rect width="832" height="56" x="64" y="498" rx="12" ry="12" fill="#15233d"></rect><text x="64" y="521.1015625" font-size="14" font-family="Segoe UI" font-weight="600" fill="#e2e8f0" svgjs:data="{&quot;leading&quot;:&quot;1.3&quot;}">styles.css</text><rect width="82" height="22" x="792" y="502" rx="11" ry="11" fill="#20193f" stroke-width="1" stroke="#22304f"></rect><text x="804" y="524.1015625" font-size="11" font-family="Segoe UI" font-weight="600" fill="#cbd5e1" svgjs:data="{&quot;leading&quot;:&quot;1.3&quot;}">17 saves</text><rect width="700" height="10" x="64" y="528" rx="5" ry="5" fill="#0f172a"></rect><rect width="504.3342036553525" height="10" x="64" y="528" rx="5" ry="5" fill="#8b5cf6"></rect><text x="64" y="561.1015625" font-size="11" font-family="Segoe UI" font-weight="400" fill="#64748b" svgjs:data="{&quot;leading&quot;:&quot;1.3&quot;}">14K lines • 14K score</text><rect width="832" height="56" x="64" y="572" rx="12" ry="12" fill="#15233d"></rect><text x="64" y="595.1015625" font-size="14" font-family="Segoe UI" font-weight="600" fill="#e2e8f0" svgjs:data="{&quot;leading&quot;:&quot;1.3&quot;}">index.html</text><rect width="82" height="22" x="792" y="576" rx="11" ry="11" fill="#20193f" stroke-width="1" stroke="#22304f"></rect><text x="804" y="598.1015625" font-size="11" font-family="Segoe UI" font-weight="600" fill="#cbd5e1" svgjs:data="{&quot;leading&quot;:&quot;1.3&quot;}">12 saves</text><rect width="700" height="10" x="64" y="602" rx="5" ry="5" fill="#0f172a"></rect><rect width="209.4691035683203" height="10" x="64" y="602" rx="5" ry="5" fill="#8b5cf6"></rect><text x="64" y="635.1015625" font-size="11" font-family="Segoe UI" font-weight="400" fill="#64748b" svgjs:data="{&quot;leading&quot;:&quot;1.3&quot;}">6K lines • 6K score</text></svg>