<svg xmlns="http://www.w3.org/2000/svg" version="1.1" xmlns:xlink="http://www.w3.org/1999/xlink" xmlns:svgjs="http://svgjs.dev/svgjs" width="960" height="724" viewBox="0 0 960 724"><rect width="960" height="724" fill="#0f172a"></rect><rect width="880" height="660" x="40" y="32" rx="18" ry="18" fill="#111c35" stroke-width="1" stroke="#22304f"></rect><text x="64" y="69.1015625" font-size="22" font-family="DejaVu Sans" font-weight="700" fill="#f8fafc" svgjs:data="{&quot;leading&quot;:&quot;1.3&quot;}">Project Progress</text><text x="64" y="99.1015625" font-size="12" font-family="DejaVu Sans" font-weight="400" fill="#94a3b8" svgjs:data="{&quot;leading&quot;:&quot;1.3&quot;}">Top projects and the files receiving most of your recent effort.</text><text x="64" y="143.1015625" font-size="16" font-family="DejaVu Sans" font-weight="700" fill="#f8fafc" svgjs:data="{&quot;leading&quot;:&quot;1.3&quot;}">Top projects</text><text x="64" y="391.1015625" font-size="16" font-family="DejaVu Sans" font-weight="700" fill="#f8fafc" svgjs:data="{&quot;leading&quot;:&quot;1.3&quot;}">Recent files</text><line x1="64" y1="328" x2="896" y2="328" stroke-width="1" stroke="#22304f"></line><rect width="832" height="56" x="64" y="158" rx="12" ry="12" fill="#15233d"></rect><text x="64" y="181.1015625" font-size="14" font-family="DejaVu Sans" font-weight="600" fill="#e2e8f0" svgjs:data="{&quot;leading&quot;:&quot;1.3&quot;}">activity-tracker</text><rect width="88" height="22" x="792" y="162" rx="11" ry="11" fill="#18243b" stroke-width="1" stroke="#22304f"></rect><text x="804" y="184.1015625" font-size="11" font-family="DejaVu Sans" font-weight="600" fill="#cbd5e1" svgjs:data="{&quot;leading&quot;:&quot;1.3&quot;}">87 saves</text><rect width="700" height="10" x="64" y="188" rx="5" ry="5" fill="#0f172a"></rect><rect width="640" height="10" x="64" y="188" rx="5" ry="5" fill="#38bdf8"></rect><text x="64" y="221.1015625" font-size="11" font-family="DejaVu Sans" font-weight="400" fill="#64748b" svgjs:data="{&quot;leading&quot;:&quot;1.3&quot;}">57K score • 55K lines changed</text><rect width="832" height="56" x="64" y="232" rx="12" ry="12" fill="#15233d"></rect><text x="64" y="255.1015625" font-size="14" font-family="DejaVu Sans" font-weight="600" fill="#e2e8f0" svgjs:data="{&quot;leading&quot;:&quot;1.3&quot;}">aora</text><rect width="88" height="22" x="792" y="236" rx="11" ry="11" fill="#18243b" stroke-width="1" stroke="#22304f"></rect><text x="804" y="258.1015625" font-size="11" font-family="DejaVu Sans" font-weight="600" fill="#cbd5e1" svgjs:data="{&quot;leading&quot;:&quot;1.3&quot;}">1 saves</text><rect width="700" height="10" x="64" y="262" rx="5" ry="5" fill="#0f172a"></rect><rect width="10" height="10" x="64" y="262" rx="5" ry="5" fill="#38bdf8"></rect><text x="64" y="295.1015625" font-size="11" font-family="DejaVu Sans" font-weight="400" fill="#64748b" svgjs:data="{&quot;leading&quot;:&quot;1.3&quot;}">1 score • 0 lines changed</text><rect width="832" height="56" x="64" y="406" rx="12" ry="12" fill="#15233d"></rect><text x="64" y="429.1015625" font-size="14" font-family="DejaVu Sans" font-weight="600" fill="#e2e8f0" svgjs:data="{&quot;leading&quot;:&quot;1.3&quot;}">styles.css</text><rect width="82" height="22" x="792" y="410" rx="11" ry="11" fill="#20193f" stroke-width="1" stroke="#22304f"></rect><text x="804" y="432.1015625" font-size="11" font-family="DejaVu Sans" font-weight="600" fill="#cbd5e1" svgjs:data="{&quot;leading&quot;:&quot;1.3&quot;}">21 saves</text><rect width="700" height="10" x="64" y="436" rx="5" ry="5" fill="#0f172a"></rect><rect width="640" height="10" x="64" y="436" rx="5" ry="5" fill="#8b5cf6"></rect><text x="64" y="469.1015625" font-size="11" font-family="DejaVu Sans" font-weight="400" fill="#64748b" svgjs:data="{&quot;leading&quot;:&quot;1.3&quot;}">25K lines changed • 25K score</text><rect width="832" height="56" x="64" y="480" rx="12" ry="12" fill="#15233d"></rect><text x="64" y="503.1015625" font-size="14" font-family="DejaVu Sans" font-weight="600" fill="#e2e8f0" svgjs:data="{&quot;leading&quot;:&quot;1.3&quot;}">app.js</text><rect width="82" height="22" x="792" y="484" rx="11" ry="11" fill="#20193f" stroke-width="1" stroke="#22304f"></rect><text x="804" y="506.1015625" font-size="11" font-family="DejaVu Sans" font-weight="600" fill="#cbd5e1" svgjs:data="{&quot;leading&quot;:&quot;1.3&quot;}">43 saves</text><rect width="700" height="10" x="64" y="510" rx="5" ry="5" fill="#0f172a"></rect><rect width="575.7584905660377" height="10" x="64" y="510" rx="5" ry="5" fill="#8b5cf6"></rect><text x="64" y="543.1015625" font-size="11" font-family="DejaVu Sans" font-weight="400" fill="#64748b" svgjs:data="{&quot;leading&quot;:&quot;1.3&quot;}">20K lines changed • 23K score</text><rect width="832" height="56" x="64" y="554" rx="12" ry="12" fill="#15233d"></rect><text x="64" y="577.1015625" font-size="14" font-family="DejaVu Sans" font-weight="600" fill="#e2e8f0" svgjs:data="{&quot;leading&quot;:&quot;1.3&quot;}">index.html</text><rect width="82" height="22" x="792" y="558" rx="11" ry="11" fill="#20193f" stroke-width="1" stroke="#22304f"></rect><text x="804" y="580.1015625" font-size="11" font-family="DejaVu Sans" font-weight="600" fill="#cbd5e1" svgjs:data="{&quot;leading&quot;:&quot;1.3&quot;}">15 saves</text><rect width="700" height="10" x="64" y="584" rx="5" ry="5" fill="#0f172a"></rect><rect width="239.45024826216485" height="10" x="64" y="584" rx="5" ry="5" fill="#8b5cf6"></rect><text x="64" y="617.1015625" font-size="11" font-family="DejaVu Sans" font-weight="400" fill="#64748b" svgjs:data="{&quot;leading&quot;:&quot;1.3&quot;}">9.4K lines changed • 9.4K score</text></svg>