<svg xmlns="http://www.w3.org/2000/svg" version="1.1" xmlns:xlink="http://www.w3.org/1999/xlink" xmlns:svgjs="http://svgjs.dev/svgjs" width="960" height="384" viewBox="0 0 960 384"><rect width="960" height="384" fill="#0f172a"></rect><rect width="560" height="284" x="40" y="72" rx="18" ry="18" fill="#111c35" stroke-width="1" stroke="#22304f"></rect><rect width="280" height="284" x="640" y="72" rx="18" ry="18" fill="#111c35" stroke-width="1" stroke="#22304f"></rect><text x="40" y="41.1015625" font-size="24" font-family="Segoe UI" font-weight="700" fill="#f8fafc" svgjs:data="{&quot;leading&quot;:&quot;1.3&quot;}"><tspan dy="0" x="40" svgjs:data="{&quot;newLined&quot;:true}">Project Progress</tspan></text><text x="40" y="73.1015625" font-size="12" font-family="Segoe UI" fill="#94a3b8" svgjs:data="{&quot;leading&quot;:&quot;1.3&quot;}"><tspan dy="0" x="40" svgjs:data="{&quot;newLined&quot;:true}">Top projects by activity score and the files you touched most often.</tspan></text><text x="64" y="113.1015625" font-size="16" font-family="Segoe UI" font-weight="700" fill="#f8fafc" svgjs:data="{&quot;leading&quot;:&quot;1.3&quot;}"><tspan dy="0" x="64" svgjs:data="{&quot;newLined&quot;:true}">Top projects</tspan></text><text x="664" y="113.1015625" font-size="16" font-family="Segoe UI" font-weight="700" fill="#f8fafc" svgjs:data="{&quot;leading&quot;:&quot;1.3&quot;}"><tspan dy="0" x="664" svgjs:data="{&quot;newLined&quot;:true}">Top files</tspan></text><text x="64" y="145.1015625" font-size="13" font-family="Segoe UI" font-weight="600" fill="#e2e8f0" svgjs:data="{&quot;leading&quot;:&quot;1.3&quot;}"><tspan dy="0" x="64" svgjs:data="{&quot;newLined&quot;:true}">activity-tracker</tspan></text><text x="470" y="145.1015625" font-size="12" font-family="Segoe UI" fill="#94a3b8" svgjs:data="{&quot;leading&quot;:&quot;1.3&quot;}"><tspan dy="0" x="470" svgjs:data="{&quot;newLined&quot;:true}">23 saves</tspan></text><rect width="420" height="10" x="64" y="152" rx="5" ry="5" fill="#0f172a"></rect><rect width="360" height="10" x="64" y="152" rx="5" ry="5" fill="#38bdf8"></rect><text x="64" y="183.1015625" font-size="11" font-family="Segoe UI" fill="#64748b" svgjs:data="{&quot;leading&quot;:&quot;1.3&quot;}"><tspan dy="0" x="64" svgjs:data="{&quot;newLined&quot;:true}">5.9K score • 5.5K lines</tspan></text><text x="64" y="187.1015625" font-size="13" font-family="Segoe UI" font-weight="600" fill="#e2e8f0" svgjs:data="{&quot;leading&quot;:&quot;1.3&quot;}"><tspan dy="0" x="64" svgjs:data="{&quot;newLined&quot;:true}">aora</tspan></text><text x="470" y="187.1015625" font-size="12" font-family="Segoe UI" fill="#94a3b8" svgjs:data="{&quot;leading&quot;:&quot;1.3&quot;}"><tspan dy="0" x="470" svgjs:data="{&quot;newLined&quot;:true}">1 saves</tspan></text><rect width="420" height="10" x="64" y="194" rx="5" ry="5" fill="#0f172a"></rect><rect width="10" height="10" x="64" y="194" rx="5" ry="5" fill="#38bdf8"></rect><text x="64" y="225.1015625" font-size="11" font-family="Segoe UI" fill="#64748b" svgjs:data="{&quot;leading&quot;:&quot;1.3&quot;}"><tspan dy="0" x="64" svgjs:data="{&quot;newLined&quot;:true}">1 score • 0 lines</tspan></text><text x="664" y="145.1015625" font-size="13" font-family="Segoe UI" font-weight="600" fill="#e2e8f0" svgjs:data="{&quot;leading&quot;:&quot;1.3&quot;}"><tspan dy="0" x="664" svgjs:data="{&quot;newLined&quot;:true}">app.js</tspan></text><rect width="200" height="10" x="664" y="152" rx="5" ry="5" fill="#0f172a"></rect><rect width="180" height="10" x="664" y="152" rx="5" ry="5" fill="#8b5cf6"></rect><text x="664" y="183.1015625" font-size="11" font-family="Segoe UI" fill="#64748b" svgjs:data="{&quot;leading&quot;:&quot;1.3&quot;}"><tspan dy="0" x="664" svgjs:data="{&quot;newLined&quot;:true}">8 saves • 3.4K score</tspan></text><text x="664" y="187.1015625" font-size="13" font-family="Segoe UI" font-weight="600" fill="#e2e8f0" svgjs:data="{&quot;leading&quot;:&quot;1.3&quot;}"><tspan dy="0" x="664" svgjs:data="{&quot;newLined&quot;:true}">styles.css</tspan></text><rect width="200" height="10" x="664" y="194" rx="5" ry="5" fill="#0f172a"></rect><rect width="93.3906852566004" height="10" x="664" y="194" rx="5" ry="5" fill="#8b5cf6"></rect><text x="664" y="225.1015625" font-size="11" font-family="Segoe UI" fill="#64748b" svgjs:data="{&quot;leading&quot;:&quot;1.3&quot;}"><tspan dy="0" x="664" svgjs:data="{&quot;newLined&quot;:true}">3 saves • 1.7K score</tspan></text><text x="664" y="229.1015625" font-size="13" font-family="Segoe UI" font-weight="600" fill="#e2e8f0" svgjs:data="{&quot;leading&quot;:&quot;1.3&quot;}"><tspan dy="0" x="664" svgjs:data="{&quot;newLined&quot;:true}">index.html</tspan></text><rect width="200" height="10" x="664" y="236" rx="5" ry="5" fill="#0f172a"></rect><rect width="40.207653515277364" height="10" x="664" y="236" rx="5" ry="5" fill="#8b5cf6"></rect><text x="664" y="267.1015625" font-size="11" font-family="Segoe UI" fill="#64748b" svgjs:data="{&quot;leading&quot;:&quot;1.3&quot;}"><tspan dy="0" x="664" svgjs:data="{&quot;newLined&quot;:true}">4 saves • 753 score</tspan></text><text x="664" y="271.1015625" font-size="13" font-family="Segoe UI" font-weight="600" fill="#e2e8f0" svgjs:data="{&quot;leading&quot;:&quot;1.3&quot;}"><tspan dy="0" x="664" svgjs:data="{&quot;newLined&quot;:true}">d:\project\activity-track...</tspan></text><rect width="200" height="10" x="664" y="278" rx="5" ry="5" fill="#0f172a"></rect><rect width="10" height="10" x="664" y="278" rx="5" ry="5" fill="#8b5cf6"></rect><text x="664" y="309.1015625" font-size="11" font-family="Segoe UI" fill="#64748b" svgjs:data="{&quot;leading&quot;:&quot;1.3&quot;}"><tspan dy="0" x="664" svgjs:data="{&quot;newLined&quot;:true}">7 saves • 7 score</tspan></text><text x="664" y="313.1015625" font-size="13" font-family="Segoe UI" font-weight="600" fill="#e2e8f0" svgjs:data="{&quot;leading&quot;:&quot;1.3&quot;}"><tspan dy="0" x="664" svgjs:data="{&quot;newLined&quot;:true}">test.js</tspan></text><rect width="200" height="10" x="664" y="320" rx="5" ry="5" fill="#0f172a"></rect><rect width="10" height="10" x="664" y="320" rx="5" ry="5" fill="#8b5cf6"></rect><text x="664" y="351.1015625" font-size="11" font-family="Segoe UI" fill="#64748b" svgjs:data="{&quot;leading&quot;:&quot;1.3&quot;}"><tspan dy="0" x="664" svgjs:data="{&quot;newLined&quot;:true}">1 saves • 5 score</tspan></text><text x="664" y="355.1015625" font-size="13" font-family="Segoe UI" font-weight="600" fill="#e2e8f0" svgjs:data="{&quot;leading&quot;:&quot;1.3&quot;}"><tspan dy="0" x="664" svgjs:data="{&quot;newLined&quot;:true}">d:\Projects\aora\sfbierf....</tspan></text><rect width="200" height="10" x="664" y="362" rx="5" ry="5" fill="#0f172a"></rect><rect width="10" height="10" x="664" y="362" rx="5" ry="5" fill="#8b5cf6"></rect><text x="664" y="393.1015625" font-size="11" font-family="Segoe UI" fill="#64748b" svgjs:data="{&quot;leading&quot;:&quot;1.3&quot;}"><tspan dy="0" x="664" svgjs:data="{&quot;newLined&quot;:true}">1 saves • 1 score</tspan></text></svg>