<svg xmlns="http://www.w3.org/2000/svg" version="1.1" xmlns:xlink="http://www.w3.org/1999/xlink" xmlns:svgjs="http://svgjs.dev/svgjs" width="960" height="620" viewBox="0 0 960 620"><rect width="960" height="620" fill="#0f172a"></rect><rect width="880" height="556" x="40" y="32" rx="18" ry="18" fill="#111c35" stroke-width="1" stroke="#22304f"></rect><text x="64" y="69.1015625" font-size="22" font-family="Segoe UI" font-weight="700" fill="#f8fafc" svgjs:data="{&quot;leading&quot;:&quot;1.3&quot;}">Project Progress</text><text x="64" y="99.1015625" font-size="12" font-family="Segoe UI" font-weight="400" fill="#94a3b8" svgjs:data="{&quot;leading&quot;:&quot;1.3&quot;}">Top projects and the files absorbing most of your recent effort.</text><text x="64" y="137.1015625" font-size="16" font-family="Segoe UI" font-weight="700" fill="#f8fafc" svgjs:data="{&quot;leading&quot;:&quot;1.3&quot;}">Top projects</text><text x="64" y="389.1015625" font-size="16" font-family="Segoe UI" font-weight="700" fill="#f8fafc" svgjs:data="{&quot;leading&quot;:&quot;1.3&quot;}">Recent files</text><rect width="832" height="56" x="64" y="132" rx="12" ry="12" fill="#15233d"></rect><text x="64" y="155.1015625" font-size="14" font-family="Segoe UI" font-weight="600" fill="#e2e8f0" svgjs:data="{&quot;leading&quot;:&quot;1.3&quot;}">activity-tracker</text><rect width="88" height="22" x="792" y="136" rx="11" ry="11" fill="#18243b" stroke-width="1" stroke="#22304f"></rect><text x="804" y="158.1015625" font-size="11" font-family="Segoe UI" font-weight="600" fill="#cbd5e1" svgjs:data="{&quot;leading&quot;:&quot;1.3&quot;}">72 saves</text><rect width="700" height="10" x="64" y="162" rx="5" ry="5" fill="#0f172a"></rect><rect width="640" height="10" x="64" y="162" rx="5" ry="5" fill="#38bdf8"></rect><text x="64" y="195.1015625" font-size="11" font-family="Segoe UI" font-weight="400" fill="#64748b" svgjs:data="{&quot;leading&quot;:&quot;1.3&quot;}">34K score • 33K lines</text><rect width="832" height="56" x="64" y="204" rx="12" ry="12" fill="#15233d"></rect><text x="64" y="227.1015625" font-size="14" font-family="Segoe UI" font-weight="600" fill="#e2e8f0" svgjs:data="{&quot;leading&quot;:&quot;1.3&quot;}">aora</text><rect width="88" height="22" x="792" y="208" rx="11" ry="11" fill="#18243b" stroke-width="1" stroke="#22304f"></rect><text x="804" y="230.1015625" font-size="11" font-family="Segoe UI" font-weight="600" fill="#cbd5e1" svgjs:data="{&quot;leading&quot;:&quot;1.3&quot;}">1 saves</text><rect width="700" height="10" x="64" y="234" rx="5" ry="5" fill="#0f172a"></rect><rect width="10" height="10" x="64" y="234" rx="5" ry="5" fill="#38bdf8"></rect><text x="64" y="267.1015625" font-size="11" font-family="Segoe UI" font-weight="400" fill="#64748b" svgjs:data="{&quot;leading&quot;:&quot;1.3&quot;}">1 score • 0 lines</text><rect width="832" height="56" x="64" y="384" rx="12" ry="12" fill="#15233d"></rect><text x="64" y="407.1015625" font-size="14" font-family="Segoe UI" font-weight="600" fill="#e2e8f0" svgjs:data="{&quot;leading&quot;:&quot;1.3&quot;}">app.js</text><rect width="82" height="22" x="792" y="388" rx="11" ry="11" fill="#20193f" stroke-width="1" stroke="#22304f"></rect><text x="804" y="410.1015625" font-size="11" font-family="Segoe UI" font-weight="600" fill="#cbd5e1" svgjs:data="{&quot;leading&quot;:&quot;1.3&quot;}">36 saves</text><rect width="700" height="10" x="64" y="414" rx="5" ry="5" fill="#0f172a"></rect><rect width="640" height="10" x="64" y="414" rx="5" ry="5" fill="#8b5cf6"></rect><text x="64" y="447.1015625" font-size="11" font-family="Segoe UI" font-weight="400" fill="#64748b" svgjs:data="{&quot;leading&quot;:&quot;1.3&quot;}">15K lines • 16K score</text><rect width="832" height="56" x="64" y="456" rx="12" ry="12" fill="#15233d"></rect><text x="64" y="479.1015625" font-size="14" font-family="Segoe UI" font-weight="600" fill="#e2e8f0" svgjs:data="{&quot;leading&quot;:&quot;1.3&quot;}">styles.css</text><rect width="82" height="22" x="792" y="460" rx="11" ry="11" fill="#20193f" stroke-width="1" stroke="#22304f"></rect><text x="804" y="482.1015625" font-size="11" font-family="Segoe UI" font-weight="600" fill="#cbd5e1" svgjs:data="{&quot;leading&quot;:&quot;1.3&quot;}">16 saves</text><rect width="700" height="10" x="64" y="486" rx="5" ry="5" fill="#0f172a"></rect><rect width="470.76144012845054" height="10" x="64" y="486" rx="5" ry="5" fill="#8b5cf6"></rect><text x="64" y="519.1015625" font-size="11" font-family="Segoe UI" font-weight="400" fill="#64748b" svgjs:data="{&quot;leading&quot;:&quot;1.3&quot;}">12K lines • 12K score</text><rect width="832" height="56" x="64" y="528" rx="12" ry="12" fill="#15233d"></rect><text x="64" y="551.1015625" font-size="14" font-family="Segoe UI" font-weight="600" fill="#e2e8f0" svgjs:data="{&quot;leading&quot;:&quot;1.3&quot;}">index.html</text><rect width="82" height="22" x="792" y="532" rx="11" ry="11" fill="#20193f" stroke-width="1" stroke="#22304f"></rect><text x="804" y="554.1015625" font-size="11" font-family="Segoe UI" font-weight="600" fill="#cbd5e1" svgjs:data="{&quot;leading&quot;:&quot;1.3&quot;}">12 saves</text><rect width="700" height="10" x="64" y="558" rx="5" ry="5" fill="#0f172a"></rect><rect width="237.811399987649" height="10" x="64" y="558" rx="5" ry="5" fill="#8b5cf6"></rect><text x="64" y="591.1015625" font-size="11" font-family="Segoe UI" font-weight="400" fill="#64748b" svgjs:data="{&quot;leading&quot;:&quot;1.3&quot;}">6K lines • 6K score</text></svg>