<svg xmlns="http://www.w3.org/2000/svg" version="1.1" xmlns:xlink="http://www.w3.org/1999/xlink" xmlns:svgjs="http://svgjs.dev/svgjs" width="960" height="400" viewBox="0 0 960 400"><rect width="960" height="400" fill="#0f172a"></rect><rect width="560" height="300" x="40" y="72" rx="18" ry="18" fill="#111c35" stroke-width="1" stroke="#22304f"></rect><rect width="280" height="300" x="640" y="72" rx="18" ry="18" fill="#111c35" stroke-width="1" stroke="#22304f"></rect><text x="40" y="41.1015625" font-size="24" font-family="Segoe UI" font-weight="700" fill="#f8fafc" svgjs:data="{&quot;leading&quot;:&quot;1.3&quot;}">Project Progress</text><text x="40" y="73.1015625" font-size="12" font-family="Segoe UI" font-weight="400" fill="#94a3b8" svgjs:data="{&quot;leading&quot;:&quot;1.3&quot;}">Top projects by activity score and the files you touched most often.</text><text x="64" y="113.1015625" font-size="16" font-family="Segoe UI" font-weight="700" fill="#f8fafc" svgjs:data="{&quot;leading&quot;:&quot;1.3&quot;}">Top projects</text><text x="664" y="113.1015625" font-size="16" font-family="Segoe UI" font-weight="700" fill="#f8fafc" svgjs:data="{&quot;leading&quot;:&quot;1.3&quot;}">Recent files</text><rect width="472" height="50" x="64" y="120" rx="12" ry="12" fill="#15233d"></rect><text x="64" y="143.1015625" font-size="13" font-family="Segoe UI" font-weight="600" fill="#e2e8f0" svgjs:data="{&quot;leading&quot;:&quot;1.3&quot;}">activity-tracker</text><rect width="86" height="22" x="438" y="124" rx="11" ry="11" fill="#18243b" stroke-width="1" stroke="#22304f"></rect><text x="450" y="146.1015625" font-size="11" font-family="Segoe UI" font-weight="600" fill="#cbd5e1" svgjs:data="{&quot;leading&quot;:&quot;1.3&quot;}">46 saves</text><rect width="420" height="10" x="64" y="150" rx="5" ry="5" fill="#0f172a"></rect><rect width="360" height="10" x="64" y="150" rx="5" ry="5" fill="#38bdf8"></rect><text x="64" y="183.1015625" font-size="11" font-family="Segoe UI" font-weight="400" fill="#64748b" svgjs:data="{&quot;leading&quot;:&quot;1.3&quot;}">21K score • 20K lines</text><rect width="472" height="50" x="64" y="184" rx="12" ry="12" fill="#15233d"></rect><text x="64" y="207.1015625" font-size="13" font-family="Segoe UI" font-weight="600" fill="#e2e8f0" svgjs:data="{&quot;leading&quot;:&quot;1.3&quot;}">aora</text><rect width="86" height="22" x="438" y="188" rx="11" ry="11" fill="#18243b" stroke-width="1" stroke="#22304f"></rect><text x="450" y="210.1015625" font-size="11" font-family="Segoe UI" font-weight="600" fill="#cbd5e1" svgjs:data="{&quot;leading&quot;:&quot;1.3&quot;}">1 saves</text><rect width="420" height="10" x="64" y="214" rx="5" ry="5" fill="#0f172a"></rect><rect width="10" height="10" x="64" y="214" rx="5" ry="5" fill="#38bdf8"></rect><text x="64" y="247.1015625" font-size="11" font-family="Segoe UI" font-weight="400" fill="#64748b" svgjs:data="{&quot;leading&quot;:&quot;1.3&quot;}">1 score • 0 lines</text><rect width="212" height="50" x="664" y="120" rx="12" ry="12" fill="#15233d"></rect><text x="664" y="143.1015625" font-size="13" font-family="Segoe UI" font-weight="600" fill="#e2e8f0" svgjs:data="{&quot;leading&quot;:&quot;1.3&quot;}">app.js</text><rect width="82" height="22" x="776" y="124" rx="11" ry="11" fill="#20193f" stroke-width="1" stroke="#22304f"></rect><text x="788" y="146.1015625" font-size="11" font-family="Segoe UI" font-weight="600" fill="#cbd5e1" svgjs:data="{&quot;leading&quot;:&quot;1.3&quot;}">19 saves</text><rect width="200" height="10" x="664" y="150" rx="5" ry="5" fill="#0f172a"></rect><rect width="180" height="10" x="664" y="150" rx="5" ry="5" fill="#8b5cf6"></rect><text x="664" y="183.1015625" font-size="11" font-family="Segoe UI" font-weight="400" fill="#64748b" svgjs:data="{&quot;leading&quot;:&quot;1.3&quot;}">11K score</text><rect width="212" height="50" x="664" y="184" rx="12" ry="12" fill="#15233d"></rect><text x="664" y="207.1015625" font-size="13" font-family="Segoe UI" font-weight="600" fill="#e2e8f0" svgjs:data="{&quot;leading&quot;:&quot;1.3&quot;}">styles.css</text><rect width="82" height="22" x="776" y="188" rx="11" ry="11" fill="#20193f" stroke-width="1" stroke="#22304f"></rect><text x="788" y="210.1015625" font-size="11" font-family="Segoe UI" font-weight="600" fill="#cbd5e1" svgjs:data="{&quot;leading&quot;:&quot;1.3&quot;}">9 saves</text><rect width="200" height="10" x="664" y="214" rx="5" ry="5" fill="#0f172a"></rect><rect width="114.79513987001977" height="10" x="664" y="214" rx="5" ry="5" fill="#8b5cf6"></rect><text x="664" y="247.1015625" font-size="11" font-family="Segoe UI" font-weight="400" fill="#64748b" svgjs:data="{&quot;leading&quot;:&quot;1.3&quot;}">6.8K score</text><rect width="212" height="50" x="664" y="248" rx="12" ry="12" fill="#15233d"></rect><text x="664" y="271.1015625" font-size="13" font-family="Segoe UI" font-weight="600" fill="#e2e8f0" svgjs:data="{&quot;leading&quot;:&quot;1.3&quot;}">index.html</text><rect width="82" height="22" x="776" y="252" rx="11" ry="11" fill="#20193f" stroke-width="1" stroke="#22304f"></rect><text x="788" y="274.1015625" font-size="11" font-family="Segoe UI" font-weight="600" fill="#cbd5e1" svgjs:data="{&quot;leading&quot;:&quot;1.3&quot;}">10 saves</text><rect width="200" height="10" x="664" y="278" rx="5" ry="5" fill="#0f172a"></rect><rect width="65.7643402090986" height="10" x="664" y="278" rx="5" ry="5" fill="#8b5cf6"></rect><text x="664" y="311.1015625" font-size="11" font-family="Segoe UI" font-weight="400" fill="#64748b" svgjs:data="{&quot;leading&quot;:&quot;1.3&quot;}">3.9K score</text><rect width="212" height="50" x="664" y="312" rx="12" ry="12" fill="#15233d"></rect><text x="664" y="335.1015625" font-size="13" font-family="Segoe UI" font-weight="600" fill="#e2e8f0" svgjs:data="{&quot;leading&quot;:&quot;1.3&quot;}">d:\project\acti...</text><rect width="82" height="22" x="776" y="316" rx="11" ry="11" fill="#20193f" stroke-width="1" stroke="#22304f"></rect><text x="788" y="338.1015625" font-size="11" font-family="Segoe UI" font-weight="600" fill="#cbd5e1" svgjs:data="{&quot;leading&quot;:&quot;1.3&quot;}">7 saves</text><rect width="200" height="10" x="664" y="342" rx="5" ry="5" fill="#0f172a"></rect><rect width="10" height="10" x="664" y="342" rx="5" ry="5" fill="#8b5cf6"></rect><text x="664" y="375.1015625" font-size="11" font-family="Segoe UI" font-weight="400" fill="#64748b" svgjs:data="{&quot;leading&quot;:&quot;1.3&quot;}">7 score</text></svg>