<svg xmlns="http://www.w3.org/2000/svg" version="1.1" xmlns:xlink="http://www.w3.org/1999/xlink" xmlns:svgjs="http://svgjs.dev/svgjs" width="960" height="240" viewBox="0 0 960 240"><rect width="960" height="240" fill="#0f172a"></rect><rect width="880" height="168" x="40" y="56" rx="18" ry="18" fill="#111c35" stroke-width="1" stroke="#22304f"></rect><text x="64" y="93.1015625" font-size="24" font-family="Segoe UI" font-weight="700" fill="#f8fafc" svgjs:data="{&quot;leading&quot;:&quot;1.3&quot;}"><tspan dy="0" x="64" svgjs:data="{&quot;newLined&quot;:true}">Activity Heatmap</tspan></text><text x="64" y="125.1015625" font-size="12" font-family="Segoe UI" fill="#94a3b8" svgjs:data="{&quot;leading&quot;:&quot;1.3&quot;}"><tspan dy="0" x="64" svgjs:data="{&quot;newLined&quot;:true}">Daily activity score across the last 52 weeks.</tspan></text><text x="52" y="155.1015625" font-size="11" font-family="Segoe UI" fill="#64748b" svgjs:data="{&quot;leading&quot;:&quot;1.3&quot;}"><tspan dy="0" x="52" svgjs:data="{&quot;newLined&quot;:true}">Mon</tspan></text><text x="52" y="187.1015625" font-size="11" font-family="Segoe UI" fill="#64748b" svgjs:data="{&quot;leading&quot;:&quot;1.3&quot;}"><tspan dy="0" x="52" svgjs:data="{&quot;newLined&quot;:true}">Wed</tspan></text><text x="52" y="219.1015625" font-size="11" font-family="Segoe UI" fill="#64748b" svgjs:data="{&quot;leading&quot;:&quot;1.3&quot;}"><tspan dy="0" x="52" svgjs:data="{&quot;newLined&quot;:true}">Fri</tspan></text><rect width="12" height="12" x="96" y="136" rx="4" ry="4" fill="#243145" stroke-width="1" stroke="#1e293b"></rect><rect width="12" height="12" x="96" y="152" rx="4" ry="4" fill="#243145" stroke-width="1" stroke="#1e293b"></rect><rect width="12" height="12" x="96" y="168" rx="4" ry="4" fill="#243145" stroke-width="1" stroke="#1e293b"></rect><rect width="12" height="12" x="96" y="184" rx="4" ry="4" fill="#243145" stroke-width="1" stroke="#1e293b"></rect><rect width="12" height="12" x="96" y="200" rx="4" ry="4" fill="#243145" stroke-width="1" stroke="#1e293b"></rect><rect width="12" height="12" x="96" y="216" rx="4" ry="4" fill="#243145" stroke-width="1" stroke="#1e293b"></rect><rect width="12" height="12" x="96" y="232" rx="4" ry="4" fill="#243145" stroke-width="1" stroke="#1e293b"></rect><rect width="12" height="12" x="112" y="136" rx="4" ry="4" fill="#243145" stroke-width="1" stroke="#1e293b"></rect><rect width="12" height="12" x="112" y="152" rx="4" ry="4" fill="#243145" stroke-width="1" stroke="#1e293b"></rect><rect width="12" height="12" x="112" y="168" rx="4" ry="4" fill="#243145" stroke-width="1" stroke="#1e293b"></rect><rect width="12" height="12" x="112" y="184" rx="4" ry="4" fill="#243145" stroke-width="1" stroke="#1e293b"></rect><rect width="12" height="12" x="112" y="200" rx="4" ry="4" fill="#243145" stroke-width="1" stroke="#1e293b"></rect><rect width="12" height="12" x="112" y="216" rx="4" ry="4" fill="#243145" stroke-width="1" stroke="#1e293b"></rect><rect width="12" height="12" x="112" y="232" rx="4" ry="4" fill="#243145" stroke-width="1" stroke="#1e293b"></rect><rect width="12" height="12" x="128" y="136" rx="4" ry="4" fill="#243145" stroke-width="1" stroke="#1e293b"></rect><rect width="12" height="12" x="128" y="152" rx="4" ry="4" fill="#243145" stroke-width="1" stroke="#1e293b"></rect><rect width="12" height="12" x="128" y="168" rx="4" ry="4" fill="#243145" stroke-width="1" stroke="#1e293b"></rect><rect width="12" height="12" x="128" y="184" rx="4" ry="4" fill="#243145" stroke-width="1" stroke="#1e293b"></rect><rect width="12" height="12" x="128" y="200" rx="4" ry="4" fill="#243145" stroke-width="1" stroke="#1e293b"></rect><rect width="12" height="12" x="128" y="216" rx="4" ry="4" fill="#243145" stroke-width="1" stroke="#1e293b"></rect><rect width="12" height="12" x="128" y="232" rx="4" ry="4" fill="#243145" stroke-width="1" stroke="#1e293b"></rect><rect width="12" height="12" x="144" y="136" rx="4" ry="4" fill="#243145" stroke-width="1" stroke="#1e293b"></rect><rect width="12" height="12" x="144" y="152" rx="4" ry="4" fill="#243145" stroke-width="1" stroke="#1e293b"></rect><text x="144" y="135.1015625" font-size="11" font-family="Segoe UI" fill="#64748b" svgjs:data="{&quot;leading&quot;:&quot;1.3&quot;}"><tspan dy="0" x="144" svgjs:data="{&quot;newLined&quot;:true}">Apr</tspan></text><rect width="12" height="12" x="144" y="168" rx="4" ry="4" fill="#243145" stroke-width="1" stroke="#1e293b"></rect><rect width="12" height="12" x="144" y="184" rx="4" ry="4" fill="#243145" stroke-width="1" stroke="#1e293b"></rect><rect width="12" height="12" x="144" y="200" rx="4" ry="4" fill="#243145" stroke-width="1" stroke="#1e293b"></rect><rect width="12" height="12" x="144" y="216" rx="4" ry="4" fill="#243145" stroke-width="1" stroke="#1e293b"></rect><rect width="12" height="12" x="144" y="232" rx="4" ry="4" fill="#243145" stroke-width="1" stroke="#1e293b"></rect><rect width="12" height="12" x="160" y="136" rx="4" ry="4" fill="#243145" stroke-width="1" stroke="#1e293b"></rect><rect width="12" height="12" x="160" y="152" rx="4" ry="4" fill="#243145" stroke-width="1" stroke="#1e293b"></rect><rect width="12" height="12" x="160" y="168" rx="4" ry="4" fill="#243145" stroke-width="1" stroke="#1e293b"></rect><rect width="12" height="12" x="160" y="184" rx="4" ry="4" fill="#243145" stroke-width="1" stroke="#1e293b"></rect><rect width="12" height="12" x="160" y="200" rx="4" ry="4" fill="#243145" stroke-width="1" stroke="#1e293b"></rect><rect width="12" height="12" x="160" y="216" rx="4" ry="4" fill="#243145" stroke-width="1" stroke="#1e293b"></rect><rect width="12" height="12" x="160" y="232" rx="4" ry="4" fill="#243145" stroke-width="1" stroke="#1e293b"></rect><rect width="12" height="12" x="176" y="136" rx="4" ry="4" fill="#243145" stroke-width="1" stroke="#1e293b"></rect><rect width="12" height="12" x="176" y="152" rx="4" ry="4" fill="#243145" stroke-width="1" stroke="#1e293b"></rect><rect width="12" height="12" x="176" y="168" rx="4" ry="4" fill="#243145" stroke-width="1" stroke="#1e293b"></rect><rect width="12" height="12" x="176" y="184" rx="4" ry="4" fill="#243145" stroke-width="1" stroke="#1e293b"></rect><rect width="12" height="12" x="176" y="200" rx="4" ry="4" fill="#243145" stroke-width="1" stroke="#1e293b"></rect><rect width="12" height="12" x="176" y="216" rx="4" ry="4" fill="#243145" stroke-width="1" stroke="#1e293b"></rect><rect width="12" height="12" x="176" y="232" rx="4" ry="4" fill="#243145" stroke-width="1" stroke="#1e293b"></rect><rect width="12" height="12" x="192" y="136" rx="4" ry="4" fill="#243145" stroke-width="1" stroke="#1e293b"></rect><rect width="12" height="12" x="192" y="152" rx="4" ry="4" fill="#243145" stroke-width="1" stroke="#1e293b"></rect><rect width="12" height="12" x="192" y="168" rx="4" ry="4" fill="#243145" stroke-width="1" stroke="#1e293b"></rect><rect width="12" height="12" x="192" y="184" rx="4" ry="4" fill="#243145" stroke-width="1" stroke="#1e293b"></rect><rect width="12" height="12" x="192" y="200" rx="4" ry="4" fill="#243145" stroke-width="1" stroke="#1e293b"></rect><rect width="12" height="12" x="192" y="216" rx="4" ry="4" fill="#243145" stroke-width="1" stroke="#1e293b"></rect><rect width="12" height="12" x="192" y="232" rx="4" ry="4" fill="#243145" stroke-width="1" stroke="#1e293b"></rect><rect width="12" height="12" x="208" y="136" rx="4" ry="4" fill="#243145" stroke-width="1" stroke="#1e293b"></rect><rect width="12" height="12" x="208" y="152" rx="4" ry="4" fill="#243145" stroke-width="1" stroke="#1e293b"></rect><rect width="12" height="12" x="208" y="168" rx="4" ry="4" fill="#243145" stroke-width="1" stroke="#1e293b"></rect><rect width="12" height="12" x="208" y="184" rx="4" ry="4" fill="#243145" stroke-width="1" stroke="#1e293b"></rect><text x="208" y="135.1015625" font-size="11" font-family="Segoe UI" fill="#64748b" svgjs:data="{&quot;leading&quot;:&quot;1.3&quot;}"><tspan dy="0" x="208" svgjs:data="{&quot;newLined&quot;:true}">May</tspan></text><rect width="12" height="12" x="208" y="200" rx="4" ry="4" fill="#243145" stroke-width="1" stroke="#1e293b"></rect><rect width="12" height="12" x="208" y="216" rx="4" ry="4" fill="#243145" stroke-width="1" stroke="#1e293b"></rect><rect width="12" height="12" x="208" y="232" rx="4" ry="4" fill="#243145" stroke-width="1" stroke="#1e293b"></rect><rect width="12" height="12" x="224" y="136" rx="4" ry="4" fill="#243145" stroke-width="1" stroke="#1e293b"></rect><rect width="12" height="12" x="224" y="152" rx="4" ry="4" fill="#243145" stroke-width="1" stroke="#1e293b"></rect><rect width="12" height="12" x="224" y="168" rx="4" ry="4" fill="#243145" stroke-width="1" stroke="#1e293b"></rect><rect width="12" height="12" x="224" y="184" rx="4" ry="4" fill="#243145" stroke-width="1" stroke="#1e293b"></rect><rect width="12" height="12" x="224" y="200" rx="4" ry="4" fill="#243145" stroke-width="1" stroke="#1e293b"></rect><rect width="12" height="12" x="224" y="216" rx="4" ry="4" fill="#243145" stroke-width="1" stroke="#1e293b"></rect><rect width="12" height="12" x="224" y="232" rx="4" ry="4" fill="#243145" stroke-width="1" stroke="#1e293b"></rect><rect width="12" height="12" x="240" y="136" rx="4" ry="4" fill="#243145" stroke-width="1" stroke="#1e293b"></rect><rect width="12" height="12" x="240" y="152" rx="4" ry="4" fill="#243145" stroke-width="1" stroke="#1e293b"></rect><rect width="12" height="12" x="240" y="168" rx="4" ry="4" fill="#243145" stroke-width="1" stroke="#1e293b"></rect><rect width="12" height="12" x="240" y="184" rx="4" ry="4" fill="#243145" stroke-width="1" stroke="#1e293b"></rect><rect width="12" height="12" x="240" y="200" rx="4" ry="4" fill="#243145" stroke-width="1" stroke="#1e293b"></rect><rect width="12" height="12" x="240" y="216" rx="4" ry="4" fill="#243145" stroke-width="1" stroke="#1e293b"></rect><rect width="12" height="12" x="240" y="232" rx="4" ry="4" fill="#243145" stroke-width="1" stroke="#1e293b"></rect><rect width="12" height="12" x="256" y="136" rx="4" ry="4" fill="#243145" stroke-width="1" stroke="#1e293b"></rect><rect width="12" height="12" x="256" y="152" rx="4" ry="4" fill="#243145" stroke-width="1" stroke="#1e293b"></rect><rect width="12" height="12" x="256" y="168" rx="4" ry="4" fill="#243145" stroke-width="1" stroke="#1e293b"></rect><rect width="12" height="12" x="256" y="184" rx="4" ry="4" fill="#243145" stroke-width="1" stroke="#1e293b"></rect><rect width="12" height="12" x="256" y="200" rx="4" ry="4" fill="#243145" stroke-width="1" stroke="#1e293b"></rect><rect width="12" height="12" x="256" y="216" rx="4" ry="4" fill="#243145" stroke-width="1" stroke="#1e293b"></rect><rect width="12" height="12" x="256" y="232" rx="4" ry="4" fill="#243145" stroke-width="1" stroke="#1e293b"></rect><rect width="12" height="12" x="272" y="136" rx="4" ry="4" fill="#243145" stroke-width="1" stroke="#1e293b"></rect><rect width="12" height="12" x="272" y="152" rx="4" ry="4" fill="#243145" stroke-width="1" stroke="#1e293b"></rect><rect width="12" height="12" x="272" y="168" rx="4" ry="4" fill="#243145" stroke-width="1" stroke="#1e293b"></rect><rect width="12" height="12" x="272" y="184" rx="4" ry="4" fill="#243145" stroke-width="1" stroke="#1e293b"></rect><rect width="12" height="12" x="272" y="200" rx="4" ry="4" fill="#243145" stroke-width="1" stroke="#1e293b"></rect><rect width="12" height="12" x="272" y="216" rx="4" ry="4" fill="#243145" stroke-width="1" stroke="#1e293b"></rect><rect width="12" height="12" x="272" y="232" rx="4" ry="4" fill="#243145" stroke-width="1" stroke="#1e293b"></rect><text x="272" y="135.1015625" font-size="11" font-family="Segoe UI" fill="#64748b" svgjs:data="{&quot;leading&quot;:&quot;1.3&quot;}"><tspan dy="0" x="272" svgjs:data="{&quot;newLined&quot;:true}">Jun</tspan></text><rect width="12" height="12" x="288" y="136" rx="4" ry="4" fill="#243145" stroke-width="1" stroke="#1e293b"></rect><rect width="12" height="12" x="288" y="152" rx="4" ry="4" fill="#243145" stroke-width="1" stroke="#1e293b"></rect><rect width="12" height="12" x="288" y="168" rx="4" ry="4" fill="#243145" stroke-width="1" stroke="#1e293b"></rect><rect width="12" height="12" x="288" y="184" rx="4" ry="4" fill="#243145" stroke-width="1" stroke="#1e293b"></rect><rect width="12" height="12" x="288" y="200" rx="4" ry="4" fill="#243145" stroke-width="1" stroke="#1e293b"></rect><rect width="12" height="12" x="288" y="216" rx="4" ry="4" fill="#243145" stroke-width="1" stroke="#1e293b"></rect><rect width="12" height="12" x="288" y="232" rx="4" ry="4" fill="#243145" stroke-width="1" stroke="#1e293b"></rect><rect width="12" height="12" x="304" y="136" rx="4" ry="4" fill="#243145" stroke-width="1" stroke="#1e293b"></rect><rect width="12" height="12" x="304" y="152" rx="4" ry="4" fill="#243145" stroke-width="1" stroke="#1e293b"></rect><rect width="12" height="12" x="304" y="168" rx="4" ry="4" fill="#243145" stroke-width="1" stroke="#1e293b"></rect><rect width="12" height="12" x="304" y="184" rx="4" ry="4" fill="#243145" stroke-width="1" stroke="#1e293b"></rect><rect width="12" height="12" x="304" y="200" rx="4" ry="4" fill="#243145" stroke-width="1" stroke="#1e293b"></rect><rect width="12" height="12" x="304" y="216" rx="4" ry="4" fill="#243145" stroke-width="1" stroke="#1e293b"></rect><rect width="12" height="12" x="304" y="232" rx="4" ry="4" fill="#243145" stroke-width="1" stroke="#1e293b"></rect><rect width="12" height="12" x="320" y="136" rx="4" ry="4" fill="#243145" stroke-width="1" stroke="#1e293b"></rect><rect width="12" height="12" x="320" y="152" rx="4" ry="4" fill="#243145" stroke-width="1" stroke="#1e293b"></rect><rect width="12" height="12" x="320" y="168" rx="4" ry="4" fill="#243145" stroke-width="1" stroke="#1e293b"></rect><rect width="12" height="12" x="320" y="184" rx="4" ry="4" fill="#243145" stroke-width="1" stroke="#1e293b"></rect><rect width="12" height="12" x="320" y="200" rx="4" ry="4" fill="#243145" stroke-width="1" stroke="#1e293b"></rect><rect width="12" height="12" x="320" y="216" rx="4" ry="4" fill="#243145" stroke-width="1" stroke="#1e293b"></rect><rect width="12" height="12" x="320" y="232" rx="4" ry="4" fill="#243145" stroke-width="1" stroke="#1e293b"></rect><rect width="12" height="12" x="336" y="136" rx="4" ry="4" fill="#243145" stroke-width="1" stroke="#1e293b"></rect><rect width="12" height="12" x="336" y="152" rx="4" ry="4" fill="#243145" stroke-width="1" stroke="#1e293b"></rect><rect width="12" height="12" x="336" y="168" rx="4" ry="4" fill="#243145" stroke-width="1" stroke="#1e293b"></rect><rect width="12" height="12" x="336" y="184" rx="4" ry="4" fill="#243145" stroke-width="1" stroke="#1e293b"></rect><rect width="12" height="12" x="336" y="200" rx="4" ry="4" fill="#243145" stroke-width="1" stroke="#1e293b"></rect><rect width="12" height="12" x="336" y="216" rx="4" ry="4" fill="#243145" stroke-width="1" stroke="#1e293b"></rect><rect width="12" height="12" x="336" y="232" rx="4" ry="4" fill="#243145" stroke-width="1" stroke="#1e293b"></rect><rect width="12" height="12" x="352" y="136" rx="4" ry="4" fill="#243145" stroke-width="1" stroke="#1e293b"></rect><rect width="12" height="12" x="352" y="152" rx="4" ry="4" fill="#243145" stroke-width="1" stroke="#1e293b"></rect><text x="352" y="135.1015625" font-size="11" font-family="Segoe UI" fill="#64748b" svgjs:data="{&quot;leading&quot;:&quot;1.3&quot;}"><tspan dy="0" x="352" svgjs:data="{&quot;newLined&quot;:true}">Jul</tspan></text><rect width="12" height="12" x="352" y="168" rx="4" ry="4" fill="#243145" stroke-width="1" stroke="#1e293b"></rect><rect width="12" height="12" x="352" y="184" rx="4" ry="4" fill="#243145" stroke-width="1" stroke="#1e293b"></rect><rect width="12" height="12" x="352" y="200" rx="4" ry="4" fill="#243145" stroke-width="1" stroke="#1e293b"></rect><rect width="12" height="12" x="352" y="216" rx="4" ry="4" fill="#243145" stroke-width="1" stroke="#1e293b"></rect><rect width="12" height="12" x="352" y="232" rx="4" ry="4" fill="#243145" stroke-width="1" stroke="#1e293b"></rect><rect width="12" height="12" x="368" y="136" rx="4" ry="4" fill="#243145" stroke-width="1" stroke="#1e293b"></rect><rect width="12" height="12" x="368" y="152" rx="4" ry="4" fill="#243145" stroke-width="1" stroke="#1e293b"></rect><rect width="12" height="12" x="368" y="168" rx="4" ry="4" fill="#243145" stroke-width="1" stroke="#1e293b"></rect><rect width="12" height="12" x="368" y="184" rx="4" ry="4" fill="#243145" stroke-width="1" stroke="#1e293b"></rect><rect width="12" height="12" x="368" y="200" rx="4" ry="4" fill="#243145" stroke-width="1" stroke="#1e293b"></rect><rect width="12" height="12" x="368" y="216" rx="4" ry="4" fill="#243145" stroke-width="1" stroke="#1e293b"></rect><rect width="12" height="12" x="368" y="232" rx="4" ry="4" fill="#243145" stroke-width="1" stroke="#1e293b"></rect><rect width="12" height="12" x="384" y="136" rx="4" ry="4" fill="#243145" stroke-width="1" stroke="#1e293b"></rect><rect width="12" height="12" x="384" y="152" rx="4" ry="4" fill="#243145" stroke-width="1" stroke="#1e293b"></rect><rect width="12" height="12" x="384" y="168" rx="4" ry="4" fill="#243145" stroke-width="1" stroke="#1e293b"></rect><rect width="12" height="12" x="384" y="184" rx="4" ry="4" fill="#243145" stroke-width="1" stroke="#1e293b"></rect><rect width="12" height="12" x="384" y="200" rx="4" ry="4" fill="#243145" stroke-width="1" stroke="#1e293b"></rect><rect width="12" height="12" x="384" y="216" rx="4" ry="4" fill="#243145" stroke-width="1" stroke="#1e293b"></rect><rect width="12" height="12" x="384" y="232" rx="4" ry="4" fill="#243145" stroke-width="1" stroke="#1e293b"></rect><rect width="12" height="12" x="400" y="136" rx="4" ry="4" fill="#243145" stroke-width="1" stroke="#1e293b"></rect><rect width="12" height="12" x="400" y="152" rx="4" ry="4" fill="#123524" stroke-width="1" stroke="#1e293b"></rect><rect width="12" height="12" x="400" y="168" rx="4" ry="4" fill="#243145" stroke-width="1" stroke="#1e293b"></rect><rect width="12" height="12" x="400" y="184" rx="4" ry="4" fill="#243145" stroke-width="1" stroke="#1e293b"></rect><rect width="12" height="12" x="400" y="200" rx="4" ry="4" fill="#243145" stroke-width="1" stroke="#1e293b"></rect><rect width="12" height="12" x="400" y="216" rx="4" ry="4" fill="#243145" stroke-width="1" stroke="#1e293b"></rect><rect width="12" height="12" x="400" y="232" rx="4" ry="4" fill="#243145" stroke-width="1" stroke="#1e293b"></rect><rect width="12" height="12" x="416" y="136" rx="4" ry="4" fill="#243145" stroke-width="1" stroke="#1e293b"></rect><rect width="12" height="12" x="416" y="152" rx="4" ry="4" fill="#243145" stroke-width="1" stroke="#1e293b"></rect><rect width="12" height="12" x="416" y="168" rx="4" ry="4" fill="#243145" stroke-width="1" stroke="#1e293b"></rect><rect width="12" height="12" x="416" y="184" rx="4" ry="4" fill="#243145" stroke-width="1" stroke="#1e293b"></rect><rect width="12" height="12" x="416" y="200" rx="4" ry="4" fill="#243145" stroke-width="1" stroke="#1e293b"></rect><text x="416" y="135.1015625" font-size="11" font-family="Segoe UI" fill="#64748b" svgjs:data="{&quot;leading&quot;:&quot;1.3&quot;}"><tspan dy="0" x="416" svgjs:data="{&quot;newLined&quot;:true}">Aug</tspan></text><rect width="12" height="12" x="416" y="216" rx="4" ry="4" fill="#243145" stroke-width="1" stroke="#1e293b"></rect><rect width="12" height="12" x="416" y="232" rx="4" ry="4" fill="#243145" stroke-width="1" stroke="#1e293b"></rect><rect width="12" height="12" x="432" y="136" rx="4" ry="4" fill="#243145" stroke-width="1" stroke="#1e293b"></rect><rect width="12" height="12" x="432" y="152" rx="4" ry="4" fill="#243145" stroke-width="1" stroke="#1e293b"></rect><rect width="12" height="12" x="432" y="168" rx="4" ry="4" fill="#243145" stroke-width="1" stroke="#1e293b"></rect><rect width="12" height="12" x="432" y="184" rx="4" ry="4" fill="#243145" stroke-width="1" stroke="#1e293b"></rect><rect width="12" height="12" x="432" y="200" rx="4" ry="4" fill="#243145" stroke-width="1" stroke="#1e293b"></rect><rect width="12" height="12" x="432" y="216" rx="4" ry="4" fill="#243145" stroke-width="1" stroke="#1e293b"></rect><rect width="12" height="12" x="432" y="232" rx="4" ry="4" fill="#243145" stroke-width="1" stroke="#1e293b"></rect><rect width="12" height="12" x="448" y="136" rx="4" ry="4" fill="#243145" stroke-width="1" stroke="#1e293b"></rect><rect width="12" height="12" x="448" y="152" rx="4" ry="4" fill="#243145" stroke-width="1" stroke="#1e293b"></rect><rect width="12" height="12" x="448" y="168" rx="4" ry="4" fill="#243145" stroke-width="1" stroke="#1e293b"></rect><rect width="12" height="12" x="448" y="184" rx="4" ry="4" fill="#243145" stroke-width="1" stroke="#1e293b"></rect><rect width="12" height="12" x="448" y="200" rx="4" ry="4" fill="#243145" stroke-width="1" stroke="#1e293b"></rect><rect width="12" height="12" x="448" y="216" rx="4" ry="4" fill="#243145" stroke-width="1" stroke="#1e293b"></rect><rect width="12" height="12" x="448" y="232" rx="4" ry="4" fill="#243145" stroke-width="1" stroke="#1e293b"></rect><rect width="12" height="12" x="464" y="136" rx="4" ry="4" fill="#243145" stroke-width="1" stroke="#1e293b"></rect><rect width="12" height="12" x="464" y="152" rx="4" ry="4" fill="#243145" stroke-width="1" stroke="#1e293b"></rect><rect width="12" height="12" x="464" y="168" rx="4" ry="4" fill="#243145" stroke-width="1" stroke="#1e293b"></rect><rect width="12" height="12" x="464" y="184" rx="4" ry="4" fill="#243145" stroke-width="1" stroke="#1e293b"></rect><rect width="12" height="12" x="464" y="200" rx="4" ry="4" fill="#243145" stroke-width="1" stroke="#1e293b"></rect><rect width="12" height="12" x="464" y="216" rx="4" ry="4" fill="#243145" stroke-width="1" stroke="#1e293b"></rect><rect width="12" height="12" x="464" y="232" rx="4" ry="4" fill="#243145" stroke-width="1" stroke="#1e293b"></rect><rect width="12" height="12" x="480" y="136" rx="4" ry="4" fill="#243145" stroke-width="1" stroke="#1e293b"></rect><rect width="12" height="12" x="480" y="152" rx="4" ry="4" fill="#243145" stroke-width="1" stroke="#1e293b"></rect><rect width="12" height="12" x="480" y="168" rx="4" ry="4" fill="#243145" stroke-width="1" stroke="#1e293b"></rect><rect width="12" height="12" x="480" y="184" rx="4" ry="4" fill="#243145" stroke-width="1" stroke="#1e293b"></rect><rect width="12" height="12" x="480" y="200" rx="4" ry="4" fill="#243145" stroke-width="1" stroke="#1e293b"></rect><rect width="12" height="12" x="480" y="216" rx="4" ry="4" fill="#243145" stroke-width="1" stroke="#1e293b"></rect><rect width="12" height="12" x="480" y="232" rx="4" ry="4" fill="#243145" stroke-width="1" stroke="#1e293b"></rect><rect width="12" height="12" x="496" y="136" rx="4" ry="4" fill="#243145" stroke-width="1" stroke="#1e293b"></rect><text x="496" y="135.1015625" font-size="11" font-family="Segoe UI" fill="#64748b" svgjs:data="{&quot;leading&quot;:&quot;1.3&quot;}"><tspan dy="0" x="496" svgjs:data="{&quot;newLined&quot;:true}">Sep</tspan></text><rect width="12" height="12" x="496" y="152" rx="4" ry="4" fill="#243145" stroke-width="1" stroke="#1e293b"></rect><rect width="12" height="12" x="496" y="168" rx="4" ry="4" fill="#243145" stroke-width="1" stroke="#1e293b"></rect><rect width="12" height="12" x="496" y="184" rx="4" ry="4" fill="#243145" stroke-width="1" stroke="#1e293b"></rect><rect width="12" height="12" x="496" y="200" rx="4" ry="4" fill="#243145" stroke-width="1" stroke="#1e293b"></rect><rect width="12" height="12" x="496" y="216" rx="4" ry="4" fill="#243145" stroke-width="1" stroke="#1e293b"></rect><rect width="12" height="12" x="496" y="232" rx="4" ry="4" fill="#243145" stroke-width="1" stroke="#1e293b"></rect><rect width="12" height="12" x="512" y="136" rx="4" ry="4" fill="#243145" stroke-width="1" stroke="#1e293b"></rect><rect width="12" height="12" x="512" y="152" rx="4" ry="4" fill="#243145" stroke-width="1" stroke="#1e293b"></rect><rect width="12" height="12" x="512" y="168" rx="4" ry="4" fill="#243145" stroke-width="1" stroke="#1e293b"></rect><rect width="12" height="12" x="512" y="184" rx="4" ry="4" fill="#243145" stroke-width="1" stroke="#1e293b"></rect><rect width="12" height="12" x="512" y="200" rx="4" ry="4" fill="#243145" stroke-width="1" stroke="#1e293b"></rect><rect width="12" height="12" x="512" y="216" rx="4" ry="4" fill="#243145" stroke-width="1" stroke="#1e293b"></rect><rect width="12" height="12" x="512" y="232" rx="4" ry="4" fill="#243145" stroke-width="1" stroke="#1e293b"></rect><rect width="12" height="12" x="528" y="136" rx="4" ry="4" fill="#243145" stroke-width="1" stroke="#1e293b"></rect><rect width="12" height="12" x="528" y="152" rx="4" ry="4" fill="#243145" stroke-width="1" stroke="#1e293b"></rect><rect width="12" height="12" x="528" y="168" rx="4" ry="4" fill="#243145" stroke-width="1" stroke="#1e293b"></rect><rect width="12" height="12" x="528" y="184" rx="4" ry="4" fill="#243145" stroke-width="1" stroke="#1e293b"></rect><rect width="12" height="12" x="528" y="200" rx="4" ry="4" fill="#243145" stroke-width="1" stroke="#1e293b"></rect><rect width="12" height="12" x="528" y="216" rx="4" ry="4" fill="#243145" stroke-width="1" stroke="#1e293b"></rect><rect width="12" height="12" x="528" y="232" rx="4" ry="4" fill="#243145" stroke-width="1" stroke="#1e293b"></rect><rect width="12" height="12" x="544" y="136" rx="4" ry="4" fill="#243145" stroke-width="1" stroke="#1e293b"></rect><rect width="12" height="12" x="544" y="152" rx="4" ry="4" fill="#243145" stroke-width="1" stroke="#1e293b"></rect><rect width="12" height="12" x="544" y="168" rx="4" ry="4" fill="#243145" stroke-width="1" stroke="#1e293b"></rect><rect width="12" height="12" x="544" y="184" rx="4" ry="4" fill="#243145" stroke-width="1" stroke="#1e293b"></rect><rect width="12" height="12" x="544" y="200" rx="4" ry="4" fill="#243145" stroke-width="1" stroke="#1e293b"></rect><rect width="12" height="12" x="544" y="216" rx="4" ry="4" fill="#243145" stroke-width="1" stroke="#1e293b"></rect><rect width="12" height="12" x="544" y="232" rx="4" ry="4" fill="#243145" stroke-width="1" stroke="#1e293b"></rect><rect width="12" height="12" x="560" y="136" rx="4" ry="4" fill="#243145" stroke-width="1" stroke="#1e293b"></rect><rect width="12" height="12" x="560" y="152" rx="4" ry="4" fill="#243145" stroke-width="1" stroke="#1e293b"></rect><rect width="12" height="12" x="560" y="168" rx="4" ry="4" fill="#243145" stroke-width="1" stroke="#1e293b"></rect><text x="560" y="135.1015625" font-size="11" font-family="Segoe UI" fill="#64748b" svgjs:data="{&quot;leading&quot;:&quot;1.3&quot;}"><tspan dy="0" x="560" svgjs:data="{&quot;newLined&quot;:true}">Oct</tspan></text><rect width="12" height="12" x="560" y="184" rx="4" ry="4" fill="#243145" stroke-width="1" stroke="#1e293b"></rect><rect width="12" height="12" x="560" y="200" rx="4" ry="4" fill="#243145" stroke-width="1" stroke="#1e293b"></rect><rect width="12" height="12" x="560" y="216" rx="4" ry="4" fill="#243145" stroke-width="1" stroke="#1e293b"></rect><rect width="12" height="12" x="560" y="232" rx="4" ry="4" fill="#243145" stroke-width="1" stroke="#1e293b"></rect><rect width="12" height="12" x="576" y="136" rx="4" ry="4" fill="#243145" stroke-width="1" stroke="#1e293b"></rect><rect width="12" height="12" x="576" y="152" rx="4" ry="4" fill="#243145" stroke-width="1" stroke="#1e293b"></rect><rect width="12" height="12" x="576" y="168" rx="4" ry="4" fill="#243145" stroke-width="1" stroke="#1e293b"></rect><rect width="12" height="12" x="576" y="184" rx="4" ry="4" fill="#243145" stroke-width="1" stroke="#1e293b"></rect><rect width="12" height="12" x="576" y="200" rx="4" ry="4" fill="#243145" stroke-width="1" stroke="#1e293b"></rect><rect width="12" height="12" x="576" y="216" rx="4" ry="4" fill="#243145" stroke-width="1" stroke="#1e293b"></rect><rect width="12" height="12" x="576" y="232" rx="4" ry="4" fill="#243145" stroke-width="1" stroke="#1e293b"></rect><rect width="12" height="12" x="592" y="136" rx="4" ry="4" fill="#243145" stroke-width="1" stroke="#1e293b"></rect><rect width="12" height="12" x="592" y="152" rx="4" ry="4" fill="#243145" stroke-width="1" stroke="#1e293b"></rect><rect width="12" height="12" x="592" y="168" rx="4" ry="4" fill="#243145" stroke-width="1" stroke="#1e293b"></rect><rect width="12" height="12" x="592" y="184" rx="4" ry="4" fill="#243145" stroke-width="1" stroke="#1e293b"></rect><rect width="12" height="12" x="592" y="200" rx="4" ry="4" fill="#243145" stroke-width="1" stroke="#1e293b"></rect><rect width="12" height="12" x="592" y="216" rx="4" ry="4" fill="#243145" stroke-width="1" stroke="#1e293b"></rect><rect width="12" height="12" x="592" y="232" rx="4" ry="4" fill="#243145" stroke-width="1" stroke="#1e293b"></rect><rect width="12" height="12" x="608" y="136" rx="4" ry="4" fill="#243145" stroke-width="1" stroke="#1e293b"></rect><rect width="12" height="12" x="608" y="152" rx="4" ry="4" fill="#243145" stroke-width="1" stroke="#1e293b"></rect><rect width="12" height="12" x="608" y="168" rx="4" ry="4" fill="#243145" stroke-width="1" stroke="#1e293b"></rect><rect width="12" height="12" x="608" y="184" rx="4" ry="4" fill="#243145" stroke-width="1" stroke="#1e293b"></rect><rect width="12" height="12" x="608" y="200" rx="4" ry="4" fill="#243145" stroke-width="1" stroke="#1e293b"></rect><rect width="12" height="12" x="608" y="216" rx="4" ry="4" fill="#243145" stroke-width="1" stroke="#1e293b"></rect><rect width="12" height="12" x="608" y="232" rx="4" ry="4" fill="#243145" stroke-width="1" stroke="#1e293b"></rect><rect width="12" height="12" x="624" y="136" rx="4" ry="4" fill="#243145" stroke-width="1" stroke="#1e293b"></rect><rect width="12" height="12" x="624" y="152" rx="4" ry="4" fill="#243145" stroke-width="1" stroke="#1e293b"></rect><rect width="12" height="12" x="624" y="168" rx="4" ry="4" fill="#243145" stroke-width="1" stroke="#1e293b"></rect><rect width="12" height="12" x="624" y="184" rx="4" ry="4" fill="#243145" stroke-width="1" stroke="#1e293b"></rect><rect width="12" height="12" x="624" y="200" rx="4" ry="4" fill="#243145" stroke-width="1" stroke="#1e293b"></rect><rect width="12" height="12" x="624" y="216" rx="4" ry="4" fill="#243145" stroke-width="1" stroke="#1e293b"></rect><text x="624" y="135.1015625" font-size="11" font-family="Segoe UI" fill="#64748b" svgjs:data="{&quot;leading&quot;:&quot;1.3&quot;}"><tspan dy="0" x="624" svgjs:data="{&quot;newLined&quot;:true}">Nov</tspan></text><rect width="12" height="12" x="624" y="232" rx="4" ry="4" fill="#243145" stroke-width="1" stroke="#1e293b"></rect><rect width="12" height="12" x="640" y="136" rx="4" ry="4" fill="#243145" stroke-width="1" stroke="#1e293b"></rect><rect width="12" height="12" x="640" y="152" rx="4" ry="4" fill="#243145" stroke-width="1" stroke="#1e293b"></rect><rect width="12" height="12" x="640" y="168" rx="4" ry="4" fill="#243145" stroke-width="1" stroke="#1e293b"></rect><rect width="12" height="12" x="640" y="184" rx="4" ry="4" fill="#243145" stroke-width="1" stroke="#1e293b"></rect><rect width="12" height="12" x="640" y="200" rx="4" ry="4" fill="#243145" stroke-width="1" stroke="#1e293b"></rect><rect width="12" height="12" x="640" y="216" rx="4" ry="4" fill="#243145" stroke-width="1" stroke="#1e293b"></rect><rect width="12" height="12" x="640" y="232" rx="4" ry="4" fill="#243145" stroke-width="1" stroke="#1e293b"></rect><rect width="12" height="12" x="656" y="136" rx="4" ry="4" fill="#243145" stroke-width="1" stroke="#1e293b"></rect><rect width="12" height="12" x="656" y="152" rx="4" ry="4" fill="#243145" stroke-width="1" stroke="#1e293b"></rect><rect width="12" height="12" x="656" y="168" rx="4" ry="4" fill="#243145" stroke-width="1" stroke="#1e293b"></rect><rect width="12" height="12" x="656" y="184" rx="4" ry="4" fill="#243145" stroke-width="1" stroke="#1e293b"></rect><rect width="12" height="12" x="656" y="200" rx="4" ry="4" fill="#243145" stroke-width="1" stroke="#1e293b"></rect><rect width="12" height="12" x="656" y="216" rx="4" ry="4" fill="#243145" stroke-width="1" stroke="#1e293b"></rect><rect width="12" height="12" x="656" y="232" rx="4" ry="4" fill="#243145" stroke-width="1" stroke="#1e293b"></rect><rect width="12" height="12" x="672" y="136" rx="4" ry="4" fill="#243145" stroke-width="1" stroke="#1e293b"></rect><rect width="12" height="12" x="672" y="152" rx="4" ry="4" fill="#243145" stroke-width="1" stroke="#1e293b"></rect><rect width="12" height="12" x="672" y="168" rx="4" ry="4" fill="#243145" stroke-width="1" stroke="#1e293b"></rect><rect width="12" height="12" x="672" y="184" rx="4" ry="4" fill="#243145" stroke-width="1" stroke="#1e293b"></rect><rect width="12" height="12" x="672" y="200" rx="4" ry="4" fill="#243145" stroke-width="1" stroke="#1e293b"></rect><rect width="12" height="12" x="672" y="216" rx="4" ry="4" fill="#243145" stroke-width="1" stroke="#1e293b"></rect><rect width="12" height="12" x="672" y="232" rx="4" ry="4" fill="#243145" stroke-width="1" stroke="#1e293b"></rect><rect width="12" height="12" x="688" y="136" rx="4" ry="4" fill="#243145" stroke-width="1" stroke="#1e293b"></rect><rect width="12" height="12" x="688" y="152" rx="4" ry="4" fill="#243145" stroke-width="1" stroke="#1e293b"></rect><rect width="12" height="12" x="688" y="168" rx="4" ry="4" fill="#243145" stroke-width="1" stroke="#1e293b"></rect><rect width="12" height="12" x="688" y="184" rx="4" ry="4" fill="#243145" stroke-width="1" stroke="#1e293b"></rect><rect width="12" height="12" x="688" y="200" rx="4" ry="4" fill="#243145" stroke-width="1" stroke="#1e293b"></rect><rect width="12" height="12" x="688" y="216" rx="4" ry="4" fill="#243145" stroke-width="1" stroke="#1e293b"></rect><rect width="12" height="12" x="688" y="232" rx="4" ry="4" fill="#243145" stroke-width="1" stroke="#1e293b"></rect><rect width="12" height="12" x="704" y="136" rx="4" ry="4" fill="#243145" stroke-width="1" stroke="#1e293b"></rect><text x="704" y="135.1015625" font-size="11" font-family="Segoe UI" fill="#64748b" svgjs:data="{&quot;leading&quot;:&quot;1.3&quot;}"><tspan dy="0" x="704" svgjs:data="{&quot;newLined&quot;:true}">Dec</tspan></text><rect width="12" height="12" x="704" y="152" rx="4" ry="4" fill="#243145" stroke-width="1" stroke="#1e293b"></rect><rect width="12" height="12" x="704" y="168" rx="4" ry="4" fill="#243145" stroke-width="1" stroke="#1e293b"></rect><rect width="12" height="12" x="704" y="184" rx="4" ry="4" fill="#243145" stroke-width="1" stroke="#1e293b"></rect><rect width="12" height="12" x="704" y="200" rx="4" ry="4" fill="#243145" stroke-width="1" stroke="#1e293b"></rect><rect width="12" height="12" x="704" y="216" rx="4" ry="4" fill="#243145" stroke-width="1" stroke="#1e293b"></rect><rect width="12" height="12" x="704" y="232" rx="4" ry="4" fill="#243145" stroke-width="1" stroke="#1e293b"></rect><rect width="12" height="12" x="720" y="136" rx="4" ry="4" fill="#243145" stroke-width="1" stroke="#1e293b"></rect><rect width="12" height="12" x="720" y="152" rx="4" ry="4" fill="#243145" stroke-width="1" stroke="#1e293b"></rect><rect width="12" height="12" x="720" y="168" rx="4" ry="4" fill="#243145" stroke-width="1" stroke="#1e293b"></rect><rect width="12" height="12" x="720" y="184" rx="4" ry="4" fill="#243145" stroke-width="1" stroke="#1e293b"></rect><rect width="12" height="12" x="720" y="200" rx="4" ry="4" fill="#243145" stroke-width="1" stroke="#1e293b"></rect><rect width="12" height="12" x="720" y="216" rx="4" ry="4" fill="#243145" stroke-width="1" stroke="#1e293b"></rect><rect width="12" height="12" x="720" y="232" rx="4" ry="4" fill="#243145" stroke-width="1" stroke="#1e293b"></rect><rect width="12" height="12" x="736" y="136" rx="4" ry="4" fill="#243145" stroke-width="1" stroke="#1e293b"></rect><rect width="12" height="12" x="736" y="152" rx="4" ry="4" fill="#243145" stroke-width="1" stroke="#1e293b"></rect><rect width="12" height="12" x="736" y="168" rx="4" ry="4" fill="#243145" stroke-width="1" stroke="#1e293b"></rect><rect width="12" height="12" x="736" y="184" rx="4" ry="4" fill="#243145" stroke-width="1" stroke="#1e293b"></rect><rect width="12" height="12" x="736" y="200" rx="4" ry="4" fill="#243145" stroke-width="1" stroke="#1e293b"></rect><rect width="12" height="12" x="736" y="216" rx="4" ry="4" fill="#243145" stroke-width="1" stroke="#1e293b"></rect><rect width="12" height="12" x="736" y="232" rx="4" ry="4" fill="#243145" stroke-width="1" stroke="#1e293b"></rect><rect width="12" height="12" x="752" y="136" rx="4" ry="4" fill="#243145" stroke-width="1" stroke="#1e293b"></rect><rect width="12" height="12" x="752" y="152" rx="4" ry="4" fill="#243145" stroke-width="1" stroke="#1e293b"></rect><rect width="12" height="12" x="752" y="168" rx="4" ry="4" fill="#243145" stroke-width="1" stroke="#1e293b"></rect><rect width="12" height="12" x="752" y="184" rx="4" ry="4" fill="#243145" stroke-width="1" stroke="#1e293b"></rect><rect width="12" height="12" x="752" y="200" rx="4" ry="4" fill="#243145" stroke-width="1" stroke="#1e293b"></rect><rect width="12" height="12" x="752" y="216" rx="4" ry="4" fill="#243145" stroke-width="1" stroke="#1e293b"></rect><rect width="12" height="12" x="752" y="232" rx="4" ry="4" fill="#243145" stroke-width="1" stroke="#1e293b"></rect><rect width="12" height="12" x="768" y="136" rx="4" ry="4" fill="#243145" stroke-width="1" stroke="#1e293b"></rect><rect width="12" height="12" x="768" y="152" rx="4" ry="4" fill="#243145" stroke-width="1" stroke="#1e293b"></rect><rect width="12" height="12" x="768" y="168" rx="4" ry="4" fill="#243145" stroke-width="1" stroke="#1e293b"></rect><rect width="12" height="12" x="768" y="184" rx="4" ry="4" fill="#243145" stroke-width="1" stroke="#1e293b"></rect><text x="768" y="135.1015625" font-size="11" font-family="Segoe UI" fill="#64748b" svgjs:data="{&quot;leading&quot;:&quot;1.3&quot;}"><tspan dy="0" x="768" svgjs:data="{&quot;newLined&quot;:true}">Jan</tspan></text><rect width="12" height="12" x="768" y="200" rx="4" ry="4" fill="#243145" stroke-width="1" stroke="#1e293b"></rect><rect width="12" height="12" x="768" y="216" rx="4" ry="4" fill="#243145" stroke-width="1" stroke="#1e293b"></rect><rect width="12" height="12" x="768" y="232" rx="4" ry="4" fill="#243145" stroke-width="1" stroke="#1e293b"></rect><rect width="12" height="12" x="784" y="136" rx="4" ry="4" fill="#243145" stroke-width="1" stroke="#1e293b"></rect><rect width="12" height="12" x="784" y="152" rx="4" ry="4" fill="#243145" stroke-width="1" stroke="#1e293b"></rect><rect width="12" height="12" x="784" y="168" rx="4" ry="4" fill="#243145" stroke-width="1" stroke="#1e293b"></rect><rect width="12" height="12" x="784" y="184" rx="4" ry="4" fill="#243145" stroke-width="1" stroke="#1e293b"></rect><rect width="12" height="12" x="784" y="200" rx="4" ry="4" fill="#243145" stroke-width="1" stroke="#1e293b"></rect><rect width="12" height="12" x="784" y="216" rx="4" ry="4" fill="#243145" stroke-width="1" stroke="#1e293b"></rect><rect width="12" height="12" x="784" y="232" rx="4" ry="4" fill="#243145" stroke-width="1" stroke="#1e293b"></rect><rect width="12" height="12" x="800" y="136" rx="4" ry="4" fill="#243145" stroke-width="1" stroke="#1e293b"></rect><rect width="12" height="12" x="800" y="152" rx="4" ry="4" fill="#243145" stroke-width="1" stroke="#1e293b"></rect><rect width="12" height="12" x="800" y="168" rx="4" ry="4" fill="#243145" stroke-width="1" stroke="#1e293b"></rect><rect width="12" height="12" x="800" y="184" rx="4" ry="4" fill="#243145" stroke-width="1" stroke="#1e293b"></rect><rect width="12" height="12" x="800" y="200" rx="4" ry="4" fill="#243145" stroke-width="1" stroke="#1e293b"></rect><rect width="12" height="12" x="800" y="216" rx="4" ry="4" fill="#243145" stroke-width="1" stroke="#1e293b"></rect><rect width="12" height="12" x="800" y="232" rx="4" ry="4" fill="#243145" stroke-width="1" stroke="#1e293b"></rect><rect width="12" height="12" x="816" y="136" rx="4" ry="4" fill="#243145" stroke-width="1" stroke="#1e293b"></rect><rect width="12" height="12" x="816" y="152" rx="4" ry="4" fill="#243145" stroke-width="1" stroke="#1e293b"></rect><rect width="12" height="12" x="816" y="168" rx="4" ry="4" fill="#243145" stroke-width="1" stroke="#1e293b"></rect><rect width="12" height="12" x="816" y="184" rx="4" ry="4" fill="#243145" stroke-width="1" stroke="#1e293b"></rect><rect width="12" height="12" x="816" y="200" rx="4" ry="4" fill="#243145" stroke-width="1" stroke="#1e293b"></rect><rect width="12" height="12" x="816" y="216" rx="4" ry="4" fill="#243145" stroke-width="1" stroke="#1e293b"></rect><rect width="12" height="12" x="816" y="232" rx="4" ry="4" fill="#243145" stroke-width="1" stroke="#1e293b"></rect><rect width="12" height="12" x="832" y="136" rx="4" ry="4" fill="#243145" stroke-width="1" stroke="#1e293b"></rect><rect width="12" height="12" x="832" y="152" rx="4" ry="4" fill="#243145" stroke-width="1" stroke="#1e293b"></rect><rect width="12" height="12" x="832" y="168" rx="4" ry="4" fill="#243145" stroke-width="1" stroke="#1e293b"></rect><rect width="12" height="12" x="832" y="184" rx="4" ry="4" fill="#243145" stroke-width="1" stroke="#1e293b"></rect><rect width="12" height="12" x="832" y="200" rx="4" ry="4" fill="#243145" stroke-width="1" stroke="#1e293b"></rect><rect width="12" height="12" x="832" y="216" rx="4" ry="4" fill="#243145" stroke-width="1" stroke="#1e293b"></rect><rect width="12" height="12" x="832" y="232" rx="4" ry="4" fill="#243145" stroke-width="1" stroke="#1e293b"></rect><text x="832" y="135.1015625" font-size="11" font-family="Segoe UI" fill="#64748b" svgjs:data="{&quot;leading&quot;:&quot;1.3&quot;}"><tspan dy="0" x="832" svgjs:data="{&quot;newLined&quot;:true}">Feb</tspan></text><rect width="12" height="12" x="848" y="136" rx="4" ry="4" fill="#243145" stroke-width="1" stroke="#1e293b"></rect><rect width="12" height="12" x="848" y="152" rx="4" ry="4" fill="#243145" stroke-width="1" stroke="#1e293b"></rect><rect width="12" height="12" x="848" y="168" rx="4" ry="4" fill="#243145" stroke-width="1" stroke="#1e293b"></rect><rect width="12" height="12" x="848" y="184" rx="4" ry="4" fill="#243145" stroke-width="1" stroke="#1e293b"></rect><rect width="12" height="12" x="848" y="200" rx="4" ry="4" fill="#243145" stroke-width="1" stroke="#1e293b"></rect><rect width="12" height="12" x="848" y="216" rx="4" ry="4" fill="#243145" stroke-width="1" stroke="#1e293b"></rect><rect width="12" height="12" x="848" y="232" rx="4" ry="4" fill="#243145" stroke-width="1" stroke="#1e293b"></rect><rect width="12" height="12" x="864" y="136" rx="4" ry="4" fill="#243145" stroke-width="1" stroke="#1e293b"></rect><rect width="12" height="12" x="864" y="152" rx="4" ry="4" fill="#243145" stroke-width="1" stroke="#1e293b"></rect><rect width="12" height="12" x="864" y="168" rx="4" ry="4" fill="#243145" stroke-width="1" stroke="#1e293b"></rect><rect width="12" height="12" x="864" y="184" rx="4" ry="4" fill="#243145" stroke-width="1" stroke="#1e293b"></rect><rect width="12" height="12" x="864" y="200" rx="4" ry="4" fill="#243145" stroke-width="1" stroke="#1e293b"></rect><rect width="12" height="12" x="864" y="216" rx="4" ry="4" fill="#243145" stroke-width="1" stroke="#1e293b"></rect><rect width="12" height="12" x="864" y="232" rx="4" ry="4" fill="#243145" stroke-width="1" stroke="#1e293b"></rect><rect width="12" height="12" x="880" y="136" rx="4" ry="4" fill="#243145" stroke-width="1" stroke="#1e293b"></rect><rect width="12" height="12" x="880" y="152" rx="4" ry="4" fill="#243145" stroke-width="1" stroke="#1e293b"></rect><rect width="12" height="12" x="880" y="168" rx="4" ry="4" fill="#243145" stroke-width="1" stroke="#1e293b"></rect><rect width="12" height="12" x="880" y="184" rx="4" ry="4" fill="#243145" stroke-width="1" stroke="#1e293b"></rect><rect width="12" height="12" x="880" y="200" rx="4" ry="4" fill="#243145" stroke-width="1" stroke="#1e293b"></rect><rect width="12" height="12" x="880" y="216" rx="4" ry="4" fill="#243145" stroke-width="1" stroke="#1e293b"></rect><rect width="12" height="12" x="880" y="232" rx="4" ry="4" fill="#243145" stroke-width="1" stroke="#1e293b"></rect><rect width="12" height="12" x="896" y="136" rx="4" ry="4" fill="#243145" stroke-width="1" stroke="#1e293b"></rect><rect width="12" height="12" x="896" y="152" rx="4" ry="4" fill="#243145" stroke-width="1" stroke="#1e293b"></rect><rect width="12" height="12" x="896" y="168" rx="4" ry="4" fill="#243145" stroke-width="1" stroke="#1e293b"></rect><rect width="12" height="12" x="896" y="184" rx="4" ry="4" fill="#243145" stroke-width="1" stroke="#1e293b"></rect><rect width="12" height="12" x="896" y="200" rx="4" ry="4" fill="#243145" stroke-width="1" stroke="#1e293b"></rect><rect width="12" height="12" x="896" y="216" rx="4" ry="4" fill="#243145" stroke-width="1" stroke="#1e293b"></rect><rect width="12" height="12" x="896" y="232" rx="4" ry="4" fill="#243145" stroke-width="1" stroke="#1e293b"></rect><text x="896" y="135.1015625" font-size="11" font-family="Segoe UI" fill="#64748b" svgjs:data="{&quot;leading&quot;:&quot;1.3&quot;}"><tspan dy="0" x="896" svgjs:data="{&quot;newLined&quot;:true}">Mar</tspan></text><rect width="12" height="12" x="912" y="136" rx="4" ry="4" fill="#243145" stroke-width="1" stroke="#1e293b"></rect><rect width="12" height="12" x="912" y="152" rx="4" ry="4" fill="#243145" stroke-width="1" stroke="#1e293b"></rect><rect width="12" height="12" x="912" y="168" rx="4" ry="4" fill="#243145" stroke-width="1" stroke="#1e293b"></rect><rect width="12" height="12" x="912" y="184" rx="4" ry="4" fill="#243145" stroke-width="1" stroke="#1e293b"></rect><rect width="12" height="12" x="912" y="200" rx="4" ry="4" fill="#243145" stroke-width="1" stroke="#1e293b"></rect><rect width="12" height="12" x="912" y="216" rx="4" ry="4" fill="#243145" stroke-width="1" stroke="#1e293b"></rect><rect width="12" height="12" x="912" y="232" rx="4" ry="4" fill="#243145" stroke-width="1" stroke="#1e293b"></rect><rect width="12" height="12" x="928" y="136" rx="4" ry="4" fill="#243145" stroke-width="1" stroke="#1e293b"></rect><rect width="12" height="12" x="928" y="152" rx="4" ry="4" fill="#243145" stroke-width="1" stroke="#1e293b"></rect><rect width="12" height="12" x="928" y="168" rx="4" ry="4" fill="#243145" stroke-width="1" stroke="#1e293b"></rect><rect width="12" height="12" x="928" y="184" rx="4" ry="4" fill="#243145" stroke-width="1" stroke="#1e293b"></rect><rect width="12" height="12" x="928" y="200" rx="4" ry="4" fill="#243145" stroke-width="1" stroke="#1e293b"></rect><rect width="12" height="12" x="928" y="216" rx="4" ry="4" fill="#243145" stroke-width="1" stroke="#1e293b"></rect><rect width="12" height="12" x="928" y="232" rx="4" ry="4" fill="#86efac" stroke-width="1" stroke="#1e293b"></rect><text x="760" y="217.1015625" font-size="11" font-family="Segoe UI" fill="#94a3b8" svgjs:data="{&quot;leading&quot;:&quot;1.3&quot;}"><tspan dy="0" x="760" svgjs:data="{&quot;newLined&quot;:true}">Less</tspan></text><rect width="12" height="12" x="794" y="198" rx="4" ry="4" fill="#243145" stroke-width="1" stroke="#1e293b"></rect><rect width="12" height="12" x="812" y="198" rx="4" ry="4" fill="#123524" stroke-width="1" stroke="#1e293b"></rect><rect width="12" height="12" x="830" y="198" rx="4" ry="4" fill="#166534" stroke-width="1" stroke="#1e293b"></rect><rect width="12" height="12" x="848" y="198" rx="4" ry="4" fill="#22c55e" stroke-width="1" stroke="#1e293b"></rect><rect width="12" height="12" x="866" y="198" rx="4" ry="4" fill="#86efac" stroke-width="1" stroke="#1e293b"></rect><text x="890" y="217.1015625" font-size="11" font-family="Segoe UI" fill="#94a3b8" svgjs:data="{&quot;leading&quot;:&quot;1.3&quot;}"><tspan dy="0" x="890" svgjs:data="{&quot;newLined&quot;:true}">More</tspan></text></svg>