<svg xmlns="http://www.w3.org/2000/svg" version="1.1" xmlns:xlink="http://www.w3.org/1999/xlink" xmlns:svgjs="http://svgjs.dev/svgjs" width="960" height="260" viewBox="0 0 960 260"><rect width="960" height="260" fill="#0f172a"></rect><rect width="880" height="196" x="40" y="32" rx="18" ry="18" fill="#111c35" stroke-width="1" stroke="#22304f"></rect><text x="64" y="69.1015625" font-size="22" font-family="Segoe UI" font-weight="700" fill="#f8fafc" svgjs:data="{&quot;leading&quot;:&quot;1.3&quot;}">Activity Heatmap</text><text x="64" y="99.1015625" font-size="12" font-family="Segoe UI" font-weight="400" fill="#94a3b8" svgjs:data="{&quot;leading&quot;:&quot;1.3&quot;}">Daily activity across the last 52 weeks.</text><text x="52" y="127.1015625" font-size="11" font-family="Segoe UI" font-weight="400" fill="#64748b" svgjs:data="{&quot;leading&quot;:&quot;1.3&quot;}">Mon</text><text x="52" y="153.1015625" font-size="11" font-family="Segoe UI" font-weight="400" fill="#64748b" svgjs:data="{&quot;leading&quot;:&quot;1.3&quot;}">Wed</text><text x="52" y="179.1015625" font-size="11" font-family="Segoe UI" font-weight="400" fill="#64748b" svgjs:data="{&quot;leading&quot;:&quot;1.3&quot;}">Fri</text><rect width="10" height="10" x="96" y="108" rx="4" ry="4" fill="#243145" stroke-width="1" stroke="#1e293b"></rect><rect width="10" height="10" x="96" y="121" rx="4" ry="4" fill="#243145" stroke-width="1" stroke="#1e293b"></rect><rect width="10" height="10" x="96" y="134" rx="4" ry="4" fill="#243145" stroke-width="1" stroke="#1e293b"></rect><rect width="10" height="10" x="96" y="147" rx="4" ry="4" fill="#243145" stroke-width="1" stroke="#1e293b"></rect><rect width="10" height="10" x="96" y="160" rx="4" ry="4" fill="#243145" stroke-width="1" stroke="#1e293b"></rect><rect width="10" height="10" x="96" y="173" rx="4" ry="4" fill="#243145" stroke-width="1" stroke="#1e293b"></rect><rect width="10" height="10" x="96" y="186" rx="4" ry="4" fill="#243145" stroke-width="1" stroke="#1e293b"></rect><rect width="10" height="10" x="109" y="108" rx="4" ry="4" fill="#243145" stroke-width="1" stroke="#1e293b"></rect><rect width="10" height="10" x="109" y="121" rx="4" ry="4" fill="#243145" stroke-width="1" stroke="#1e293b"></rect><rect width="10" height="10" x="109" y="134" rx="4" ry="4" fill="#243145" stroke-width="1" stroke="#1e293b"></rect><rect width="10" height="10" x="109" y="147" rx="4" ry="4" fill="#243145" stroke-width="1" stroke="#1e293b"></rect><rect width="10" height="10" x="109" y="160" rx="4" ry="4" fill="#243145" stroke-width="1" stroke="#1e293b"></rect><rect width="10" height="10" x="109" y="173" rx="4" ry="4" fill="#243145" stroke-width="1" stroke="#1e293b"></rect><rect width="10" height="10" x="109" y="186" rx="4" ry="4" fill="#243145" stroke-width="1" stroke="#1e293b"></rect><rect width="10" height="10" x="122" y="108" rx="4" ry="4" fill="#243145" stroke-width="1" stroke="#1e293b"></rect><text x="122" y="107.1015625" font-size="11" font-family="Segoe UI" font-weight="400" fill="#64748b" svgjs:data="{&quot;leading&quot;:&quot;1.3&quot;}">Apr</text><rect width="10" height="10" x="122" y="121" rx="4" ry="4" fill="#243145" stroke-width="1" stroke="#1e293b"></rect><rect width="10" height="10" x="122" y="134" rx="4" ry="4" fill="#243145" stroke-width="1" stroke="#1e293b"></rect><rect width="10" height="10" x="122" y="147" rx="4" ry="4" fill="#243145" stroke-width="1" stroke="#1e293b"></rect><rect width="10" height="10" x="122" y="160" rx="4" ry="4" fill="#243145" stroke-width="1" stroke="#1e293b"></rect><rect width="10" height="10" x="122" y="173" rx="4" ry="4" fill="#243145" stroke-width="1" stroke="#1e293b"></rect><rect width="10" height="10" x="122" y="186" rx="4" ry="4" fill="#243145" stroke-width="1" stroke="#1e293b"></rect><rect width="10" height="10" x="135" y="108" rx="4" ry="4" fill="#243145" stroke-width="1" stroke="#1e293b"></rect><rect width="10" height="10" x="135" y="121" rx="4" ry="4" fill="#243145" stroke-width="1" stroke="#1e293b"></rect><rect width="10" height="10" x="135" y="134" rx="4" ry="4" fill="#243145" stroke-width="1" stroke="#1e293b"></rect><rect width="10" height="10" x="135" y="147" rx="4" ry="4" fill="#243145" stroke-width="1" stroke="#1e293b"></rect><rect width="10" height="10" x="135" y="160" rx="4" ry="4" fill="#243145" stroke-width="1" stroke="#1e293b"></rect><rect width="10" height="10" x="135" y="173" rx="4" ry="4" fill="#243145" stroke-width="1" stroke="#1e293b"></rect><rect width="10" height="10" x="135" y="186" rx="4" ry="4" fill="#243145" stroke-width="1" stroke="#1e293b"></rect><rect width="10" height="10" x="148" y="108" rx="4" ry="4" fill="#243145" stroke-width="1" stroke="#1e293b"></rect><rect width="10" height="10" x="148" y="121" rx="4" ry="4" fill="#243145" stroke-width="1" stroke="#1e293b"></rect><rect width="10" height="10" x="148" y="134" rx="4" ry="4" fill="#243145" stroke-width="1" stroke="#1e293b"></rect><rect width="10" height="10" x="148" y="147" rx="4" ry="4" fill="#243145" stroke-width="1" stroke="#1e293b"></rect><rect width="10" height="10" x="148" y="160" rx="4" ry="4" fill="#243145" stroke-width="1" stroke="#1e293b"></rect><rect width="10" height="10" x="148" y="173" rx="4" ry="4" fill="#243145" stroke-width="1" stroke="#1e293b"></rect><rect width="10" height="10" x="148" y="186" rx="4" ry="4" fill="#243145" stroke-width="1" stroke="#1e293b"></rect><rect width="10" height="10" x="161" y="108" rx="4" ry="4" fill="#243145" stroke-width="1" stroke="#1e293b"></rect><rect width="10" height="10" x="161" y="121" rx="4" ry="4" fill="#243145" stroke-width="1" stroke="#1e293b"></rect><rect width="10" height="10" x="161" y="134" rx="4" ry="4" fill="#243145" stroke-width="1" stroke="#1e293b"></rect><rect width="10" height="10" x="161" y="147" rx="4" ry="4" fill="#243145" stroke-width="1" stroke="#1e293b"></rect><rect width="10" height="10" x="161" y="160" rx="4" ry="4" fill="#243145" stroke-width="1" stroke="#1e293b"></rect><rect width="10" height="10" x="161" y="173" rx="4" ry="4" fill="#243145" stroke-width="1" stroke="#1e293b"></rect><rect width="10" height="10" x="161" y="186" rx="4" ry="4" fill="#243145" stroke-width="1" stroke="#1e293b"></rect><rect width="10" height="10" x="174" y="108" rx="4" ry="4" fill="#243145" stroke-width="1" stroke="#1e293b"></rect><rect width="10" height="10" x="174" y="121" rx="4" ry="4" fill="#243145" stroke-width="1" stroke="#1e293b"></rect><rect width="10" height="10" x="174" y="134" rx="4" ry="4" fill="#243145" stroke-width="1" stroke="#1e293b"></rect><text x="174" y="107.1015625" font-size="11" font-family="Segoe UI" font-weight="400" fill="#64748b" svgjs:data="{&quot;leading&quot;:&quot;1.3&quot;}">May</text><rect width="10" height="10" x="174" y="147" rx="4" ry="4" fill="#243145" stroke-width="1" stroke="#1e293b"></rect><rect width="10" height="10" x="174" y="160" rx="4" ry="4" fill="#243145" stroke-width="1" stroke="#1e293b"></rect><rect width="10" height="10" x="174" y="173" rx="4" ry="4" fill="#243145" stroke-width="1" stroke="#1e293b"></rect><rect width="10" height="10" x="174" y="186" rx="4" ry="4" fill="#243145" stroke-width="1" stroke="#1e293b"></rect><rect width="10" height="10" x="187" y="108" rx="4" ry="4" fill="#243145" stroke-width="1" stroke="#1e293b"></rect><rect width="10" height="10" x="187" y="121" rx="4" ry="4" fill="#243145" stroke-width="1" stroke="#1e293b"></rect><rect width="10" height="10" x="187" y="134" rx="4" ry="4" fill="#243145" stroke-width="1" stroke="#1e293b"></rect><rect width="10" height="10" x="187" y="147" rx="4" ry="4" fill="#243145" stroke-width="1" stroke="#1e293b"></rect><rect width="10" height="10" x="187" y="160" rx="4" ry="4" fill="#243145" stroke-width="1" stroke="#1e293b"></rect><rect width="10" height="10" x="187" y="173" rx="4" ry="4" fill="#243145" stroke-width="1" stroke="#1e293b"></rect><rect width="10" height="10" x="187" y="186" rx="4" ry="4" fill="#243145" stroke-width="1" stroke="#1e293b"></rect><rect width="10" height="10" x="200" y="108" rx="4" ry="4" fill="#243145" stroke-width="1" stroke="#1e293b"></rect><rect width="10" height="10" x="200" y="121" rx="4" ry="4" fill="#243145" stroke-width="1" stroke="#1e293b"></rect><rect width="10" height="10" x="200" y="134" rx="4" ry="4" fill="#243145" stroke-width="1" stroke="#1e293b"></rect><rect width="10" height="10" x="200" y="147" rx="4" ry="4" fill="#243145" stroke-width="1" stroke="#1e293b"></rect><rect width="10" height="10" x="200" y="160" rx="4" ry="4" fill="#243145" stroke-width="1" stroke="#1e293b"></rect><rect width="10" height="10" x="200" y="173" rx="4" ry="4" fill="#243145" stroke-width="1" stroke="#1e293b"></rect><rect width="10" height="10" x="200" y="186" rx="4" ry="4" fill="#243145" stroke-width="1" stroke="#1e293b"></rect><rect width="10" height="10" x="213" y="108" rx="4" ry="4" fill="#243145" stroke-width="1" stroke="#1e293b"></rect><rect width="10" height="10" x="213" y="121" rx="4" ry="4" fill="#243145" stroke-width="1" stroke="#1e293b"></rect><rect width="10" height="10" x="213" y="134" rx="4" ry="4" fill="#243145" stroke-width="1" stroke="#1e293b"></rect><rect width="10" height="10" x="213" y="147" rx="4" ry="4" fill="#243145" stroke-width="1" stroke="#1e293b"></rect><rect width="10" height="10" x="213" y="160" rx="4" ry="4" fill="#243145" stroke-width="1" stroke="#1e293b"></rect><rect width="10" height="10" x="213" y="173" rx="4" ry="4" fill="#243145" stroke-width="1" stroke="#1e293b"></rect><rect width="10" height="10" x="213" y="186" rx="4" ry="4" fill="#243145" stroke-width="1" stroke="#1e293b"></rect><rect width="10" height="10" x="226" y="108" rx="4" ry="4" fill="#243145" stroke-width="1" stroke="#1e293b"></rect><rect width="10" height="10" x="226" y="121" rx="4" ry="4" fill="#243145" stroke-width="1" stroke="#1e293b"></rect><rect width="10" height="10" x="226" y="134" rx="4" ry="4" fill="#243145" stroke-width="1" stroke="#1e293b"></rect><rect width="10" height="10" x="226" y="147" rx="4" ry="4" fill="#243145" stroke-width="1" stroke="#1e293b"></rect><rect width="10" height="10" x="226" y="160" rx="4" ry="4" fill="#243145" stroke-width="1" stroke="#1e293b"></rect><rect width="10" height="10" x="226" y="173" rx="4" ry="4" fill="#243145" stroke-width="1" stroke="#1e293b"></rect><text x="226" y="107.1015625" font-size="11" font-family="Segoe UI" font-weight="400" fill="#64748b" svgjs:data="{&quot;leading&quot;:&quot;1.3&quot;}">Jun</text><rect width="10" height="10" x="226" y="186" rx="4" ry="4" fill="#243145" stroke-width="1" stroke="#1e293b"></rect><rect width="10" height="10" x="239" y="108" rx="4" ry="4" fill="#243145" stroke-width="1" stroke="#1e293b"></rect><rect width="10" height="10" x="239" y="121" rx="4" ry="4" fill="#243145" stroke-width="1" stroke="#1e293b"></rect><rect width="10" height="10" x="239" y="134" rx="4" ry="4" fill="#243145" stroke-width="1" stroke="#1e293b"></rect><rect width="10" height="10" x="239" y="147" rx="4" ry="4" fill="#243145" stroke-width="1" stroke="#1e293b"></rect><rect width="10" height="10" x="239" y="160" rx="4" ry="4" fill="#243145" stroke-width="1" stroke="#1e293b"></rect><rect width="10" height="10" x="239" y="173" rx="4" ry="4" fill="#243145" stroke-width="1" stroke="#1e293b"></rect><rect width="10" height="10" x="239" y="186" rx="4" ry="4" fill="#243145" stroke-width="1" stroke="#1e293b"></rect><rect width="10" height="10" x="252" y="108" rx="4" ry="4" fill="#243145" stroke-width="1" stroke="#1e293b"></rect><rect width="10" height="10" x="252" y="121" rx="4" ry="4" fill="#243145" stroke-width="1" stroke="#1e293b"></rect><rect width="10" height="10" x="252" y="134" rx="4" ry="4" fill="#243145" stroke-width="1" stroke="#1e293b"></rect><rect width="10" height="10" x="252" y="147" rx="4" ry="4" fill="#243145" stroke-width="1" stroke="#1e293b"></rect><rect width="10" height="10" x="252" y="160" rx="4" ry="4" fill="#243145" stroke-width="1" stroke="#1e293b"></rect><rect width="10" height="10" x="252" y="173" rx="4" ry="4" fill="#243145" stroke-width="1" stroke="#1e293b"></rect><rect width="10" height="10" x="252" y="186" rx="4" ry="4" fill="#243145" stroke-width="1" stroke="#1e293b"></rect><rect width="10" height="10" x="265" y="108" rx="4" ry="4" fill="#243145" stroke-width="1" stroke="#1e293b"></rect><rect width="10" height="10" x="265" y="121" rx="4" ry="4" fill="#243145" stroke-width="1" stroke="#1e293b"></rect><rect width="10" height="10" x="265" y="134" rx="4" ry="4" fill="#243145" stroke-width="1" stroke="#1e293b"></rect><rect width="10" height="10" x="265" y="147" rx="4" ry="4" fill="#243145" stroke-width="1" stroke="#1e293b"></rect><rect width="10" height="10" x="265" y="160" rx="4" ry="4" fill="#243145" stroke-width="1" stroke="#1e293b"></rect><rect width="10" height="10" x="265" y="173" rx="4" ry="4" fill="#243145" stroke-width="1" stroke="#1e293b"></rect><rect width="10" height="10" x="265" y="186" rx="4" ry="4" fill="#243145" stroke-width="1" stroke="#1e293b"></rect><rect width="10" height="10" x="278" y="108" rx="4" ry="4" fill="#243145" stroke-width="1" stroke="#1e293b"></rect><rect width="10" height="10" x="278" y="121" rx="4" ry="4" fill="#243145" stroke-width="1" stroke="#1e293b"></rect><rect width="10" height="10" x="278" y="134" rx="4" ry="4" fill="#243145" stroke-width="1" stroke="#1e293b"></rect><rect width="10" height="10" x="278" y="147" rx="4" ry="4" fill="#243145" stroke-width="1" stroke="#1e293b"></rect><rect width="10" height="10" x="278" y="160" rx="4" ry="4" fill="#243145" stroke-width="1" stroke="#1e293b"></rect><rect width="10" height="10" x="278" y="173" rx="4" ry="4" fill="#243145" stroke-width="1" stroke="#1e293b"></rect><rect width="10" height="10" x="278" y="186" rx="4" ry="4" fill="#243145" stroke-width="1" stroke="#1e293b"></rect><rect width="10" height="10" x="291" y="108" rx="4" ry="4" fill="#243145" stroke-width="1" stroke="#1e293b"></rect><text x="291" y="107.1015625" font-size="11" font-family="Segoe UI" font-weight="400" fill="#64748b" svgjs:data="{&quot;leading&quot;:&quot;1.3&quot;}">Jul</text><rect width="10" height="10" x="291" y="121" rx="4" ry="4" fill="#243145" stroke-width="1" stroke="#1e293b"></rect><rect width="10" height="10" x="291" y="134" rx="4" ry="4" fill="#243145" stroke-width="1" stroke="#1e293b"></rect><rect width="10" height="10" x="291" y="147" rx="4" ry="4" fill="#243145" stroke-width="1" stroke="#1e293b"></rect><rect width="10" height="10" x="291" y="160" rx="4" ry="4" fill="#243145" stroke-width="1" stroke="#1e293b"></rect><rect width="10" height="10" x="291" y="173" rx="4" ry="4" fill="#243145" stroke-width="1" stroke="#1e293b"></rect><rect width="10" height="10" x="291" y="186" rx="4" ry="4" fill="#243145" stroke-width="1" stroke="#1e293b"></rect><rect width="10" height="10" x="304" y="108" rx="4" ry="4" fill="#243145" stroke-width="1" stroke="#1e293b"></rect><rect width="10" height="10" x="304" y="121" rx="4" ry="4" fill="#243145" stroke-width="1" stroke="#1e293b"></rect><rect width="10" height="10" x="304" y="134" rx="4" ry="4" fill="#243145" stroke-width="1" stroke="#1e293b"></rect><rect width="10" height="10" x="304" y="147" rx="4" ry="4" fill="#243145" stroke-width="1" stroke="#1e293b"></rect><rect width="10" height="10" x="304" y="160" rx="4" ry="4" fill="#243145" stroke-width="1" stroke="#1e293b"></rect><rect width="10" height="10" x="304" y="173" rx="4" ry="4" fill="#243145" stroke-width="1" stroke="#1e293b"></rect><rect width="10" height="10" x="304" y="186" rx="4" ry="4" fill="#243145" stroke-width="1" stroke="#1e293b"></rect><rect width="10" height="10" x="317" y="108" rx="4" ry="4" fill="#243145" stroke-width="1" stroke="#1e293b"></rect><rect width="10" height="10" x="317" y="121" rx="4" ry="4" fill="#243145" stroke-width="1" stroke="#1e293b"></rect><rect width="10" height="10" x="317" y="134" rx="4" ry="4" fill="#243145" stroke-width="1" stroke="#1e293b"></rect><rect width="10" height="10" x="317" y="147" rx="4" ry="4" fill="#243145" stroke-width="1" stroke="#1e293b"></rect><rect width="10" height="10" x="317" y="160" rx="4" ry="4" fill="#243145" stroke-width="1" stroke="#1e293b"></rect><rect width="10" height="10" x="317" y="173" rx="4" ry="4" fill="#243145" stroke-width="1" stroke="#1e293b"></rect><rect width="10" height="10" x="317" y="186" rx="4" ry="4" fill="#243145" stroke-width="1" stroke="#1e293b"></rect><rect width="10" height="10" x="330" y="108" rx="4" ry="4" fill="#123524" stroke-width="1" stroke="#1e293b"></rect><rect width="10" height="10" x="330" y="121" rx="4" ry="4" fill="#243145" stroke-width="1" stroke="#1e293b"></rect><rect width="10" height="10" x="330" y="134" rx="4" ry="4" fill="#243145" stroke-width="1" stroke="#1e293b"></rect><rect width="10" height="10" x="330" y="147" rx="4" ry="4" fill="#243145" stroke-width="1" stroke="#1e293b"></rect><rect width="10" height="10" x="330" y="160" rx="4" ry="4" fill="#243145" stroke-width="1" stroke="#1e293b"></rect><rect width="10" height="10" x="330" y="173" rx="4" ry="4" fill="#243145" stroke-width="1" stroke="#1e293b"></rect><rect width="10" height="10" x="330" y="186" rx="4" ry="4" fill="#243145" stroke-width="1" stroke="#1e293b"></rect><rect width="10" height="10" x="343" y="108" rx="4" ry="4" fill="#243145" stroke-width="1" stroke="#1e293b"></rect><rect width="10" height="10" x="343" y="121" rx="4" ry="4" fill="#243145" stroke-width="1" stroke="#1e293b"></rect><rect width="10" height="10" x="343" y="134" rx="4" ry="4" fill="#243145" stroke-width="1" stroke="#1e293b"></rect><rect width="10" height="10" x="343" y="147" rx="4" ry="4" fill="#243145" stroke-width="1" stroke="#1e293b"></rect><text x="343" y="107.1015625" font-size="11" font-family="Segoe UI" font-weight="400" fill="#64748b" svgjs:data="{&quot;leading&quot;:&quot;1.3&quot;}">Aug</text><rect width="10" height="10" x="343" y="160" rx="4" ry="4" fill="#243145" stroke-width="1" stroke="#1e293b"></rect><rect width="10" height="10" x="343" y="173" rx="4" ry="4" fill="#243145" stroke-width="1" stroke="#1e293b"></rect><rect width="10" height="10" x="343" y="186" rx="4" ry="4" fill="#243145" stroke-width="1" stroke="#1e293b"></rect><rect width="10" height="10" x="356" y="108" rx="4" ry="4" fill="#243145" stroke-width="1" stroke="#1e293b"></rect><rect width="10" height="10" x="356" y="121" rx="4" ry="4" fill="#243145" stroke-width="1" stroke="#1e293b"></rect><rect width="10" height="10" x="356" y="134" rx="4" ry="4" fill="#243145" stroke-width="1" stroke="#1e293b"></rect><rect width="10" height="10" x="356" y="147" rx="4" ry="4" fill="#243145" stroke-width="1" stroke="#1e293b"></rect><rect width="10" height="10" x="356" y="160" rx="4" ry="4" fill="#243145" stroke-width="1" stroke="#1e293b"></rect><rect width="10" height="10" x="356" y="173" rx="4" ry="4" fill="#243145" stroke-width="1" stroke="#1e293b"></rect><rect width="10" height="10" x="356" y="186" rx="4" ry="4" fill="#243145" stroke-width="1" stroke="#1e293b"></rect><rect width="10" height="10" x="369" y="108" rx="4" ry="4" fill="#243145" stroke-width="1" stroke="#1e293b"></rect><rect width="10" height="10" x="369" y="121" rx="4" ry="4" fill="#243145" stroke-width="1" stroke="#1e293b"></rect><rect width="10" height="10" x="369" y="134" rx="4" ry="4" fill="#243145" stroke-width="1" stroke="#1e293b"></rect><rect width="10" height="10" x="369" y="147" rx="4" ry="4" fill="#243145" stroke-width="1" stroke="#1e293b"></rect><rect width="10" height="10" x="369" y="160" rx="4" ry="4" fill="#243145" stroke-width="1" stroke="#1e293b"></rect><rect width="10" height="10" x="369" y="173" rx="4" ry="4" fill="#243145" stroke-width="1" stroke="#1e293b"></rect><rect width="10" height="10" x="369" y="186" rx="4" ry="4" fill="#243145" stroke-width="1" stroke="#1e293b"></rect><rect width="10" height="10" x="382" y="108" rx="4" ry="4" fill="#243145" stroke-width="1" stroke="#1e293b"></rect><rect width="10" height="10" x="382" y="121" rx="4" ry="4" fill="#243145" stroke-width="1" stroke="#1e293b"></rect><rect width="10" height="10" x="382" y="134" rx="4" ry="4" fill="#243145" stroke-width="1" stroke="#1e293b"></rect><rect width="10" height="10" x="382" y="147" rx="4" ry="4" fill="#243145" stroke-width="1" stroke="#1e293b"></rect><rect width="10" height="10" x="382" y="160" rx="4" ry="4" fill="#243145" stroke-width="1" stroke="#1e293b"></rect><rect width="10" height="10" x="382" y="173" rx="4" ry="4" fill="#243145" stroke-width="1" stroke="#1e293b"></rect><rect width="10" height="10" x="382" y="186" rx="4" ry="4" fill="#243145" stroke-width="1" stroke="#1e293b"></rect><rect width="10" height="10" x="395" y="108" rx="4" ry="4" fill="#243145" stroke-width="1" stroke="#1e293b"></rect><rect width="10" height="10" x="395" y="121" rx="4" ry="4" fill="#243145" stroke-width="1" stroke="#1e293b"></rect><rect width="10" height="10" x="395" y="134" rx="4" ry="4" fill="#243145" stroke-width="1" stroke="#1e293b"></rect><rect width="10" height="10" x="395" y="147" rx="4" ry="4" fill="#243145" stroke-width="1" stroke="#1e293b"></rect><rect width="10" height="10" x="395" y="160" rx="4" ry="4" fill="#243145" stroke-width="1" stroke="#1e293b"></rect><rect width="10" height="10" x="395" y="173" rx="4" ry="4" fill="#243145" stroke-width="1" stroke="#1e293b"></rect><rect width="10" height="10" x="395" y="186" rx="4" ry="4" fill="#243145" stroke-width="1" stroke="#1e293b"></rect><text x="395" y="107.1015625" font-size="11" font-family="Segoe UI" font-weight="400" fill="#64748b" svgjs:data="{&quot;leading&quot;:&quot;1.3&quot;}">Sep</text><rect width="10" height="10" x="408" y="108" rx="4" ry="4" fill="#243145" stroke-width="1" stroke="#1e293b"></rect><rect width="10" height="10" x="408" y="121" rx="4" ry="4" fill="#243145" stroke-width="1" stroke="#1e293b"></rect><rect width="10" height="10" x="408" y="134" rx="4" ry="4" fill="#243145" stroke-width="1" stroke="#1e293b"></rect><rect width="10" height="10" x="408" y="147" rx="4" ry="4" fill="#243145" stroke-width="1" stroke="#1e293b"></rect><rect width="10" height="10" x="408" y="160" rx="4" ry="4" fill="#243145" stroke-width="1" stroke="#1e293b"></rect><rect width="10" height="10" x="408" y="173" rx="4" ry="4" fill="#243145" stroke-width="1" stroke="#1e293b"></rect><rect width="10" height="10" x="408" y="186" rx="4" ry="4" fill="#243145" stroke-width="1" stroke="#1e293b"></rect><rect width="10" height="10" x="421" y="108" rx="4" ry="4" fill="#243145" stroke-width="1" stroke="#1e293b"></rect><rect width="10" height="10" x="421" y="121" rx="4" ry="4" fill="#243145" stroke-width="1" stroke="#1e293b"></rect><rect width="10" height="10" x="421" y="134" rx="4" ry="4" fill="#243145" stroke-width="1" stroke="#1e293b"></rect><rect width="10" height="10" x="421" y="147" rx="4" ry="4" fill="#243145" stroke-width="1" stroke="#1e293b"></rect><rect width="10" height="10" x="421" y="160" rx="4" ry="4" fill="#243145" stroke-width="1" stroke="#1e293b"></rect><rect width="10" height="10" x="421" y="173" rx="4" ry="4" fill="#243145" stroke-width="1" stroke="#1e293b"></rect><rect width="10" height="10" x="421" y="186" rx="4" ry="4" fill="#243145" stroke-width="1" stroke="#1e293b"></rect><rect width="10" height="10" x="434" y="108" rx="4" ry="4" fill="#243145" stroke-width="1" stroke="#1e293b"></rect><rect width="10" height="10" x="434" y="121" rx="4" ry="4" fill="#243145" stroke-width="1" stroke="#1e293b"></rect><rect width="10" height="10" x="434" y="134" rx="4" ry="4" fill="#243145" stroke-width="1" stroke="#1e293b"></rect><rect width="10" height="10" x="434" y="147" rx="4" ry="4" fill="#243145" stroke-width="1" stroke="#1e293b"></rect><rect width="10" height="10" x="434" y="160" rx="4" ry="4" fill="#243145" stroke-width="1" stroke="#1e293b"></rect><rect width="10" height="10" x="434" y="173" rx="4" ry="4" fill="#243145" stroke-width="1" stroke="#1e293b"></rect><rect width="10" height="10" x="434" y="186" rx="4" ry="4" fill="#243145" stroke-width="1" stroke="#1e293b"></rect><rect width="10" height="10" x="447" y="108" rx="4" ry="4" fill="#243145" stroke-width="1" stroke="#1e293b"></rect><rect width="10" height="10" x="447" y="121" rx="4" ry="4" fill="#243145" stroke-width="1" stroke="#1e293b"></rect><rect width="10" height="10" x="447" y="134" rx="4" ry="4" fill="#243145" stroke-width="1" stroke="#1e293b"></rect><rect width="10" height="10" x="447" y="147" rx="4" ry="4" fill="#243145" stroke-width="1" stroke="#1e293b"></rect><rect width="10" height="10" x="447" y="160" rx="4" ry="4" fill="#243145" stroke-width="1" stroke="#1e293b"></rect><rect width="10" height="10" x="447" y="173" rx="4" ry="4" fill="#243145" stroke-width="1" stroke="#1e293b"></rect><rect width="10" height="10" x="447" y="186" rx="4" ry="4" fill="#243145" stroke-width="1" stroke="#1e293b"></rect><rect width="10" height="10" x="460" y="108" rx="4" ry="4" fill="#243145" stroke-width="1" stroke="#1e293b"></rect><rect width="10" height="10" x="460" y="121" rx="4" ry="4" fill="#243145" stroke-width="1" stroke="#1e293b"></rect><text x="460" y="107.1015625" font-size="11" font-family="Segoe UI" font-weight="400" fill="#64748b" svgjs:data="{&quot;leading&quot;:&quot;1.3&quot;}">Oct</text><rect width="10" height="10" x="460" y="134" rx="4" ry="4" fill="#243145" stroke-width="1" stroke="#1e293b"></rect><rect width="10" height="10" x="460" y="147" rx="4" ry="4" fill="#243145" stroke-width="1" stroke="#1e293b"></rect><rect width="10" height="10" x="460" y="160" rx="4" ry="4" fill="#243145" stroke-width="1" stroke="#1e293b"></rect><rect width="10" height="10" x="460" y="173" rx="4" ry="4" fill="#243145" stroke-width="1" stroke="#1e293b"></rect><rect width="10" height="10" x="460" y="186" rx="4" ry="4" fill="#243145" stroke-width="1" stroke="#1e293b"></rect><rect width="10" height="10" x="473" y="108" rx="4" ry="4" fill="#243145" stroke-width="1" stroke="#1e293b"></rect><rect width="10" height="10" x="473" y="121" rx="4" ry="4" fill="#243145" stroke-width="1" stroke="#1e293b"></rect><rect width="10" height="10" x="473" y="134" rx="4" ry="4" fill="#243145" stroke-width="1" stroke="#1e293b"></rect><rect width="10" height="10" x="473" y="147" rx="4" ry="4" fill="#243145" stroke-width="1" stroke="#1e293b"></rect><rect width="10" height="10" x="473" y="160" rx="4" ry="4" fill="#243145" stroke-width="1" stroke="#1e293b"></rect><rect width="10" height="10" x="473" y="173" rx="4" ry="4" fill="#243145" stroke-width="1" stroke="#1e293b"></rect><rect width="10" height="10" x="473" y="186" rx="4" ry="4" fill="#243145" stroke-width="1" stroke="#1e293b"></rect><rect width="10" height="10" x="486" y="108" rx="4" ry="4" fill="#243145" stroke-width="1" stroke="#1e293b"></rect><rect width="10" height="10" x="486" y="121" rx="4" ry="4" fill="#243145" stroke-width="1" stroke="#1e293b"></rect><rect width="10" height="10" x="486" y="134" rx="4" ry="4" fill="#243145" stroke-width="1" stroke="#1e293b"></rect><rect width="10" height="10" x="486" y="147" rx="4" ry="4" fill="#243145" stroke-width="1" stroke="#1e293b"></rect><rect width="10" height="10" x="486" y="160" rx="4" ry="4" fill="#243145" stroke-width="1" stroke="#1e293b"></rect><rect width="10" height="10" x="486" y="173" rx="4" ry="4" fill="#243145" stroke-width="1" stroke="#1e293b"></rect><rect width="10" height="10" x="486" y="186" rx="4" ry="4" fill="#243145" stroke-width="1" stroke="#1e293b"></rect><rect width="10" height="10" x="499" y="108" rx="4" ry="4" fill="#243145" stroke-width="1" stroke="#1e293b"></rect><rect width="10" height="10" x="499" y="121" rx="4" ry="4" fill="#243145" stroke-width="1" stroke="#1e293b"></rect><rect width="10" height="10" x="499" y="134" rx="4" ry="4" fill="#243145" stroke-width="1" stroke="#1e293b"></rect><rect width="10" height="10" x="499" y="147" rx="4" ry="4" fill="#243145" stroke-width="1" stroke="#1e293b"></rect><rect width="10" height="10" x="499" y="160" rx="4" ry="4" fill="#243145" stroke-width="1" stroke="#1e293b"></rect><rect width="10" height="10" x="499" y="173" rx="4" ry="4" fill="#243145" stroke-width="1" stroke="#1e293b"></rect><rect width="10" height="10" x="499" y="186" rx="4" ry="4" fill="#243145" stroke-width="1" stroke="#1e293b"></rect><rect width="10" height="10" x="512" y="108" rx="4" ry="4" fill="#243145" stroke-width="1" stroke="#1e293b"></rect><rect width="10" height="10" x="512" y="121" rx="4" ry="4" fill="#243145" stroke-width="1" stroke="#1e293b"></rect><rect width="10" height="10" x="512" y="134" rx="4" ry="4" fill="#243145" stroke-width="1" stroke="#1e293b"></rect><rect width="10" height="10" x="512" y="147" rx="4" ry="4" fill="#243145" stroke-width="1" stroke="#1e293b"></rect><rect width="10" height="10" x="512" y="160" rx="4" ry="4" fill="#243145" stroke-width="1" stroke="#1e293b"></rect><text x="512" y="107.1015625" font-size="11" font-family="Segoe UI" font-weight="400" fill="#64748b" svgjs:data="{&quot;leading&quot;:&quot;1.3&quot;}">Nov</text><rect width="10" height="10" x="512" y="173" rx="4" ry="4" fill="#243145" stroke-width="1" stroke="#1e293b"></rect><rect width="10" height="10" x="512" y="186" rx="4" ry="4" fill="#243145" stroke-width="1" stroke="#1e293b"></rect><rect width="10" height="10" x="525" y="108" rx="4" ry="4" fill="#243145" stroke-width="1" stroke="#1e293b"></rect><rect width="10" height="10" x="525" y="121" rx="4" ry="4" fill="#243145" stroke-width="1" stroke="#1e293b"></rect><rect width="10" height="10" x="525" y="134" rx="4" ry="4" fill="#243145" stroke-width="1" stroke="#1e293b"></rect><rect width="10" height="10" x="525" y="147" rx="4" ry="4" fill="#243145" stroke-width="1" stroke="#1e293b"></rect><rect width="10" height="10" x="525" y="160" rx="4" ry="4" fill="#243145" stroke-width="1" stroke="#1e293b"></rect><rect width="10" height="10" x="525" y="173" rx="4" ry="4" fill="#243145" stroke-width="1" stroke="#1e293b"></rect><rect width="10" height="10" x="525" y="186" rx="4" ry="4" fill="#243145" stroke-width="1" stroke="#1e293b"></rect><rect width="10" height="10" x="538" y="108" rx="4" ry="4" fill="#243145" stroke-width="1" stroke="#1e293b"></rect><rect width="10" height="10" x="538" y="121" rx="4" ry="4" fill="#243145" stroke-width="1" stroke="#1e293b"></rect><rect width="10" height="10" x="538" y="134" rx="4" ry="4" fill="#243145" stroke-width="1" stroke="#1e293b"></rect><rect width="10" height="10" x="538" y="147" rx="4" ry="4" fill="#243145" stroke-width="1" stroke="#1e293b"></rect><rect width="10" height="10" x="538" y="160" rx="4" ry="4" fill="#243145" stroke-width="1" stroke="#1e293b"></rect><rect width="10" height="10" x="538" y="173" rx="4" ry="4" fill="#243145" stroke-width="1" stroke="#1e293b"></rect><rect width="10" height="10" x="538" y="186" rx="4" ry="4" fill="#243145" stroke-width="1" stroke="#1e293b"></rect><rect width="10" height="10" x="551" y="108" rx="4" ry="4" fill="#243145" stroke-width="1" stroke="#1e293b"></rect><rect width="10" height="10" x="551" y="121" rx="4" ry="4" fill="#243145" stroke-width="1" stroke="#1e293b"></rect><rect width="10" height="10" x="551" y="134" rx="4" ry="4" fill="#243145" stroke-width="1" stroke="#1e293b"></rect><rect width="10" height="10" x="551" y="147" rx="4" ry="4" fill="#243145" stroke-width="1" stroke="#1e293b"></rect><rect width="10" height="10" x="551" y="160" rx="4" ry="4" fill="#243145" stroke-width="1" stroke="#1e293b"></rect><rect width="10" height="10" x="551" y="173" rx="4" ry="4" fill="#243145" stroke-width="1" stroke="#1e293b"></rect><rect width="10" height="10" x="551" y="186" rx="4" ry="4" fill="#243145" stroke-width="1" stroke="#1e293b"></rect><rect width="10" height="10" x="564" y="108" rx="4" ry="4" fill="#243145" stroke-width="1" stroke="#1e293b"></rect><rect width="10" height="10" x="564" y="121" rx="4" ry="4" fill="#243145" stroke-width="1" stroke="#1e293b"></rect><rect width="10" height="10" x="564" y="134" rx="4" ry="4" fill="#243145" stroke-width="1" stroke="#1e293b"></rect><rect width="10" height="10" x="564" y="147" rx="4" ry="4" fill="#243145" stroke-width="1" stroke="#1e293b"></rect><rect width="10" height="10" x="564" y="160" rx="4" ry="4" fill="#243145" stroke-width="1" stroke="#1e293b"></rect><rect width="10" height="10" x="564" y="173" rx="4" ry="4" fill="#243145" stroke-width="1" stroke="#1e293b"></rect><rect width="10" height="10" x="564" y="186" rx="4" ry="4" fill="#243145" stroke-width="1" stroke="#1e293b"></rect><text x="564" y="107.1015625" font-size="11" font-family="Segoe UI" font-weight="400" fill="#64748b" svgjs:data="{&quot;leading&quot;:&quot;1.3&quot;}">Dec</text><rect width="10" height="10" x="577" y="108" rx="4" ry="4" fill="#243145" stroke-width="1" stroke="#1e293b"></rect><rect width="10" height="10" x="577" y="121" rx="4" ry="4" fill="#243145" stroke-width="1" stroke="#1e293b"></rect><rect width="10" height="10" x="577" y="134" rx="4" ry="4" fill="#243145" stroke-width="1" stroke="#1e293b"></rect><rect width="10" height="10" x="577" y="147" rx="4" ry="4" fill="#243145" stroke-width="1" stroke="#1e293b"></rect><rect width="10" height="10" x="577" y="160" rx="4" ry="4" fill="#243145" stroke-width="1" stroke="#1e293b"></rect><rect width="10" height="10" x="577" y="173" rx="4" ry="4" fill="#243145" stroke-width="1" stroke="#1e293b"></rect><rect width="10" height="10" x="577" y="186" rx="4" ry="4" fill="#243145" stroke-width="1" stroke="#1e293b"></rect><rect width="10" height="10" x="590" y="108" rx="4" ry="4" fill="#243145" stroke-width="1" stroke="#1e293b"></rect><rect width="10" height="10" x="590" y="121" rx="4" ry="4" fill="#243145" stroke-width="1" stroke="#1e293b"></rect><rect width="10" height="10" x="590" y="134" rx="4" ry="4" fill="#243145" stroke-width="1" stroke="#1e293b"></rect><rect width="10" height="10" x="590" y="147" rx="4" ry="4" fill="#243145" stroke-width="1" stroke="#1e293b"></rect><rect width="10" height="10" x="590" y="160" rx="4" ry="4" fill="#243145" stroke-width="1" stroke="#1e293b"></rect><rect width="10" height="10" x="590" y="173" rx="4" ry="4" fill="#243145" stroke-width="1" stroke="#1e293b"></rect><rect width="10" height="10" x="590" y="186" rx="4" ry="4" fill="#243145" stroke-width="1" stroke="#1e293b"></rect><rect width="10" height="10" x="603" y="108" rx="4" ry="4" fill="#243145" stroke-width="1" stroke="#1e293b"></rect><rect width="10" height="10" x="603" y="121" rx="4" ry="4" fill="#243145" stroke-width="1" stroke="#1e293b"></rect><rect width="10" height="10" x="603" y="134" rx="4" ry="4" fill="#243145" stroke-width="1" stroke="#1e293b"></rect><rect width="10" height="10" x="603" y="147" rx="4" ry="4" fill="#243145" stroke-width="1" stroke="#1e293b"></rect><rect width="10" height="10" x="603" y="160" rx="4" ry="4" fill="#243145" stroke-width="1" stroke="#1e293b"></rect><rect width="10" height="10" x="603" y="173" rx="4" ry="4" fill="#243145" stroke-width="1" stroke="#1e293b"></rect><rect width="10" height="10" x="603" y="186" rx="4" ry="4" fill="#243145" stroke-width="1" stroke="#1e293b"></rect><rect width="10" height="10" x="616" y="108" rx="4" ry="4" fill="#243145" stroke-width="1" stroke="#1e293b"></rect><rect width="10" height="10" x="616" y="121" rx="4" ry="4" fill="#243145" stroke-width="1" stroke="#1e293b"></rect><rect width="10" height="10" x="616" y="134" rx="4" ry="4" fill="#243145" stroke-width="1" stroke="#1e293b"></rect><rect width="10" height="10" x="616" y="147" rx="4" ry="4" fill="#243145" stroke-width="1" stroke="#1e293b"></rect><rect width="10" height="10" x="616" y="160" rx="4" ry="4" fill="#243145" stroke-width="1" stroke="#1e293b"></rect><rect width="10" height="10" x="616" y="173" rx="4" ry="4" fill="#243145" stroke-width="1" stroke="#1e293b"></rect><rect width="10" height="10" x="616" y="186" rx="4" ry="4" fill="#243145" stroke-width="1" stroke="#1e293b"></rect><rect width="10" height="10" x="629" y="108" rx="4" ry="4" fill="#243145" stroke-width="1" stroke="#1e293b"></rect><rect width="10" height="10" x="629" y="121" rx="4" ry="4" fill="#243145" stroke-width="1" stroke="#1e293b"></rect><rect width="10" height="10" x="629" y="134" rx="4" ry="4" fill="#243145" stroke-width="1" stroke="#1e293b"></rect><text x="629" y="107.1015625" font-size="11" font-family="Segoe UI" font-weight="400" fill="#64748b" svgjs:data="{&quot;leading&quot;:&quot;1.3&quot;}">Jan</text><rect width="10" height="10" x="629" y="147" rx="4" ry="4" fill="#243145" stroke-width="1" stroke="#1e293b"></rect><rect width="10" height="10" x="629" y="160" rx="4" ry="4" fill="#243145" stroke-width="1" stroke="#1e293b"></rect><rect width="10" height="10" x="629" y="173" rx="4" ry="4" fill="#243145" stroke-width="1" stroke="#1e293b"></rect><rect width="10" height="10" x="629" y="186" rx="4" ry="4" fill="#243145" stroke-width="1" stroke="#1e293b"></rect><rect width="10" height="10" x="642" y="108" rx="4" ry="4" fill="#243145" stroke-width="1" stroke="#1e293b"></rect><rect width="10" height="10" x="642" y="121" rx="4" ry="4" fill="#243145" stroke-width="1" stroke="#1e293b"></rect><rect width="10" height="10" x="642" y="134" rx="4" ry="4" fill="#243145" stroke-width="1" stroke="#1e293b"></rect><rect width="10" height="10" x="642" y="147" rx="4" ry="4" fill="#243145" stroke-width="1" stroke="#1e293b"></rect><rect width="10" height="10" x="642" y="160" rx="4" ry="4" fill="#243145" stroke-width="1" stroke="#1e293b"></rect><rect width="10" height="10" x="642" y="173" rx="4" ry="4" fill="#243145" stroke-width="1" stroke="#1e293b"></rect><rect width="10" height="10" x="642" y="186" rx="4" ry="4" fill="#243145" stroke-width="1" stroke="#1e293b"></rect><rect width="10" height="10" x="655" y="108" rx="4" ry="4" fill="#243145" stroke-width="1" stroke="#1e293b"></rect><rect width="10" height="10" x="655" y="121" rx="4" ry="4" fill="#243145" stroke-width="1" stroke="#1e293b"></rect><rect width="10" height="10" x="655" y="134" rx="4" ry="4" fill="#243145" stroke-width="1" stroke="#1e293b"></rect><rect width="10" height="10" x="655" y="147" rx="4" ry="4" fill="#243145" stroke-width="1" stroke="#1e293b"></rect><rect width="10" height="10" x="655" y="160" rx="4" ry="4" fill="#243145" stroke-width="1" stroke="#1e293b"></rect><rect width="10" height="10" x="655" y="173" rx="4" ry="4" fill="#243145" stroke-width="1" stroke="#1e293b"></rect><rect width="10" height="10" x="655" y="186" rx="4" ry="4" fill="#243145" stroke-width="1" stroke="#1e293b"></rect><rect width="10" height="10" x="668" y="108" rx="4" ry="4" fill="#243145" stroke-width="1" stroke="#1e293b"></rect><rect width="10" height="10" x="668" y="121" rx="4" ry="4" fill="#243145" stroke-width="1" stroke="#1e293b"></rect><rect width="10" height="10" x="668" y="134" rx="4" ry="4" fill="#243145" stroke-width="1" stroke="#1e293b"></rect><rect width="10" height="10" x="668" y="147" rx="4" ry="4" fill="#243145" stroke-width="1" stroke="#1e293b"></rect><rect width="10" height="10" x="668" y="160" rx="4" ry="4" fill="#243145" stroke-width="1" stroke="#1e293b"></rect><rect width="10" height="10" x="668" y="173" rx="4" ry="4" fill="#243145" stroke-width="1" stroke="#1e293b"></rect><rect width="10" height="10" x="668" y="186" rx="4" ry="4" fill="#243145" stroke-width="1" stroke="#1e293b"></rect><rect width="10" height="10" x="681" y="108" rx="4" ry="4" fill="#243145" stroke-width="1" stroke="#1e293b"></rect><rect width="10" height="10" x="681" y="121" rx="4" ry="4" fill="#243145" stroke-width="1" stroke="#1e293b"></rect><rect width="10" height="10" x="681" y="134" rx="4" ry="4" fill="#243145" stroke-width="1" stroke="#1e293b"></rect><rect width="10" height="10" x="681" y="147" rx="4" ry="4" fill="#243145" stroke-width="1" stroke="#1e293b"></rect><rect width="10" height="10" x="681" y="160" rx="4" ry="4" fill="#243145" stroke-width="1" stroke="#1e293b"></rect><rect width="10" height="10" x="681" y="173" rx="4" ry="4" fill="#243145" stroke-width="1" stroke="#1e293b"></rect><text x="681" y="107.1015625" font-size="11" font-family="Segoe UI" font-weight="400" fill="#64748b" svgjs:data="{&quot;leading&quot;:&quot;1.3&quot;}">Feb</text><rect width="10" height="10" x="681" y="186" rx="4" ry="4" fill="#243145" stroke-width="1" stroke="#1e293b"></rect><rect width="10" height="10" x="694" y="108" rx="4" ry="4" fill="#243145" stroke-width="1" stroke="#1e293b"></rect><rect width="10" height="10" x="694" y="121" rx="4" ry="4" fill="#243145" stroke-width="1" stroke="#1e293b"></rect><rect width="10" height="10" x="694" y="134" rx="4" ry="4" fill="#243145" stroke-width="1" stroke="#1e293b"></rect><rect width="10" height="10" x="694" y="147" rx="4" ry="4" fill="#243145" stroke-width="1" stroke="#1e293b"></rect><rect width="10" height="10" x="694" y="160" rx="4" ry="4" fill="#243145" stroke-width="1" stroke="#1e293b"></rect><rect width="10" height="10" x="694" y="173" rx="4" ry="4" fill="#243145" stroke-width="1" stroke="#1e293b"></rect><rect width="10" height="10" x="694" y="186" rx="4" ry="4" fill="#243145" stroke-width="1" stroke="#1e293b"></rect><rect width="10" height="10" x="707" y="108" rx="4" ry="4" fill="#243145" stroke-width="1" stroke="#1e293b"></rect><rect width="10" height="10" x="707" y="121" rx="4" ry="4" fill="#243145" stroke-width="1" stroke="#1e293b"></rect><rect width="10" height="10" x="707" y="134" rx="4" ry="4" fill="#243145" stroke-width="1" stroke="#1e293b"></rect><rect width="10" height="10" x="707" y="147" rx="4" ry="4" fill="#243145" stroke-width="1" stroke="#1e293b"></rect><rect width="10" height="10" x="707" y="160" rx="4" ry="4" fill="#243145" stroke-width="1" stroke="#1e293b"></rect><rect width="10" height="10" x="707" y="173" rx="4" ry="4" fill="#243145" stroke-width="1" stroke="#1e293b"></rect><rect width="10" height="10" x="707" y="186" rx="4" ry="4" fill="#243145" stroke-width="1" stroke="#1e293b"></rect><rect width="10" height="10" x="720" y="108" rx="4" ry="4" fill="#243145" stroke-width="1" stroke="#1e293b"></rect><rect width="10" height="10" x="720" y="121" rx="4" ry="4" fill="#243145" stroke-width="1" stroke="#1e293b"></rect><rect width="10" height="10" x="720" y="134" rx="4" ry="4" fill="#243145" stroke-width="1" stroke="#1e293b"></rect><rect width="10" height="10" x="720" y="147" rx="4" ry="4" fill="#243145" stroke-width="1" stroke="#1e293b"></rect><rect width="10" height="10" x="720" y="160" rx="4" ry="4" fill="#243145" stroke-width="1" stroke="#1e293b"></rect><rect width="10" height="10" x="720" y="173" rx="4" ry="4" fill="#243145" stroke-width="1" stroke="#1e293b"></rect><rect width="10" height="10" x="720" y="186" rx="4" ry="4" fill="#243145" stroke-width="1" stroke="#1e293b"></rect><rect width="10" height="10" x="733" y="108" rx="4" ry="4" fill="#243145" stroke-width="1" stroke="#1e293b"></rect><rect width="10" height="10" x="733" y="121" rx="4" ry="4" fill="#243145" stroke-width="1" stroke="#1e293b"></rect><rect width="10" height="10" x="733" y="134" rx="4" ry="4" fill="#243145" stroke-width="1" stroke="#1e293b"></rect><rect width="10" height="10" x="733" y="147" rx="4" ry="4" fill="#243145" stroke-width="1" stroke="#1e293b"></rect><rect width="10" height="10" x="733" y="160" rx="4" ry="4" fill="#243145" stroke-width="1" stroke="#1e293b"></rect><rect width="10" height="10" x="733" y="173" rx="4" ry="4" fill="#243145" stroke-width="1" stroke="#1e293b"></rect><text x="733" y="107.1015625" font-size="11" font-family="Segoe UI" font-weight="400" fill="#64748b" svgjs:data="{&quot;leading&quot;:&quot;1.3&quot;}">Mar</text><rect width="10" height="10" x="733" y="186" rx="4" ry="4" fill="#243145" stroke-width="1" stroke="#1e293b"></rect><rect width="10" height="10" x="746" y="108" rx="4" ry="4" fill="#243145" stroke-width="1" stroke="#1e293b"></rect><rect width="10" height="10" x="746" y="121" rx="4" ry="4" fill="#243145" stroke-width="1" stroke="#1e293b"></rect><rect width="10" height="10" x="746" y="134" rx="4" ry="4" fill="#243145" stroke-width="1" stroke="#1e293b"></rect><rect width="10" height="10" x="746" y="147" rx="4" ry="4" fill="#243145" stroke-width="1" stroke="#1e293b"></rect><rect width="10" height="10" x="746" y="160" rx="4" ry="4" fill="#243145" stroke-width="1" stroke="#1e293b"></rect><rect width="10" height="10" x="746" y="173" rx="4" ry="4" fill="#243145" stroke-width="1" stroke="#1e293b"></rect><rect width="10" height="10" x="746" y="186" rx="4" ry="4" fill="#243145" stroke-width="1" stroke="#1e293b"></rect><rect width="10" height="10" x="759" y="108" rx="4" ry="4" fill="#243145" stroke-width="1" stroke="#1e293b"></rect><rect width="10" height="10" x="759" y="121" rx="4" ry="4" fill="#243145" stroke-width="1" stroke="#1e293b"></rect><rect width="10" height="10" x="759" y="134" rx="4" ry="4" fill="#243145" stroke-width="1" stroke="#1e293b"></rect><rect width="10" height="10" x="759" y="147" rx="4" ry="4" fill="#243145" stroke-width="1" stroke="#1e293b"></rect><rect width="10" height="10" x="759" y="160" rx="4" ry="4" fill="#243145" stroke-width="1" stroke="#1e293b"></rect><rect width="10" height="10" x="759" y="173" rx="4" ry="4" fill="#86efac" stroke-width="1" stroke="#1e293b"></rect><rect width="10" height="10" x="759" y="186" rx="4" ry="4" fill="#243145" stroke-width="1" stroke="#1e293b"></rect><text x="720" y="69.1015625" font-size="11" font-family="Segoe UI" font-weight="400" fill="#94a3b8" svgjs:data="{&quot;leading&quot;:&quot;1.3&quot;}">Less</text><rect width="12" height="12" x="754" y="50" rx="4" ry="4" fill="#243145" stroke-width="1" stroke="#1e293b"></rect><rect width="12" height="12" x="772" y="50" rx="4" ry="4" fill="#123524" stroke-width="1" stroke="#1e293b"></rect><rect width="12" height="12" x="790" y="50" rx="4" ry="4" fill="#166534" stroke-width="1" stroke="#1e293b"></rect><rect width="12" height="12" x="808" y="50" rx="4" ry="4" fill="#22c55e" stroke-width="1" stroke="#1e293b"></rect><rect width="12" height="12" x="826" y="50" rx="4" ry="4" fill="#86efac" stroke-width="1" stroke="#1e293b"></rect><text x="850" y="69.1015625" font-size="11" font-family="Segoe UI" font-weight="400" fill="#94a3b8" svgjs:data="{&quot;leading&quot;:&quot;1.3&quot;}">More</text></svg>