<svg xmlns="http://www.w3.org/2000/svg" version="1.1" xmlns:xlink="http://www.w3.org/1999/xlink" xmlns:svgjs="http://svgjs.dev/svgjs" width="960" height="260" viewBox="0 0 960 260"><rect width="960" height="260" fill="#0f172a"></rect><rect width="880" height="196" x="40" y="32" rx="18" ry="18" fill="#111c35" stroke-width="1" stroke="#22304f"></rect><text x="64" y="69.1015625" font-size="22" font-family="DejaVu Sans" font-weight="700" fill="#f8fafc" svgjs:data="{&quot;leading&quot;:&quot;1.3&quot;}">Activity Heatmap</text><text x="64" y="95.1015625" font-size="12" font-family="DejaVu Sans" font-weight="400" fill="#94a3b8" svgjs:data="{&quot;leading&quot;:&quot;1.3&quot;}">Daily activity across the last 52 weeks.</text><text x="52" y="133.1015625" font-size="11" font-family="DejaVu Sans" font-weight="400" fill="#64748b" svgjs:data="{&quot;leading&quot;:&quot;1.3&quot;}">Mon</text><text x="52" y="159.1015625" font-size="11" font-family="DejaVu Sans" font-weight="400" fill="#64748b" svgjs:data="{&quot;leading&quot;:&quot;1.3&quot;}">Wed</text><text x="52" y="185.1015625" font-size="11" font-family="DejaVu Sans" font-weight="400" fill="#64748b" svgjs:data="{&quot;leading&quot;:&quot;1.3&quot;}">Fri</text><rect width="10" height="10" x="96" y="114" rx="4" ry="4" fill="#243145" stroke-width="1" stroke="#1e293b"></rect><rect width="10" height="10" x="96" y="127" rx="4" ry="4" fill="#243145" stroke-width="1" stroke="#1e293b"></rect><rect width="10" height="10" x="96" y="140" rx="4" ry="4" fill="#243145" stroke-width="1" stroke="#1e293b"></rect><rect width="10" height="10" x="96" y="153" rx="4" ry="4" fill="#243145" stroke-width="1" stroke="#1e293b"></rect><rect width="10" height="10" x="96" y="166" rx="4" ry="4" fill="#243145" stroke-width="1" stroke="#1e293b"></rect><rect width="10" height="10" x="96" y="179" rx="4" ry="4" fill="#243145" stroke-width="1" stroke="#1e293b"></rect><rect width="10" height="10" x="96" y="192" rx="4" ry="4" fill="#243145" stroke-width="1" stroke="#1e293b"></rect><rect width="10" height="10" x="109" y="114" rx="4" ry="4" fill="#243145" stroke-width="1" stroke="#1e293b"></rect><rect width="10" height="10" x="109" y="127" rx="4" ry="4" fill="#243145" stroke-width="1" stroke="#1e293b"></rect><rect width="10" height="10" x="109" y="140" rx="4" ry="4" fill="#243145" stroke-width="1" stroke="#1e293b"></rect><rect width="10" height="10" x="109" y="153" rx="4" ry="4" fill="#243145" stroke-width="1" stroke="#1e293b"></rect><rect width="10" height="10" x="109" y="166" rx="4" ry="4" fill="#243145" stroke-width="1" stroke="#1e293b"></rect><rect width="10" height="10" x="109" y="179" rx="4" ry="4" fill="#243145" stroke-width="1" stroke="#1e293b"></rect><rect width="10" height="10" x="109" y="192" rx="4" ry="4" fill="#243145" stroke-width="1" stroke="#1e293b"></rect><rect width="10" height="10" x="122" y="114" rx="4" ry="4" fill="#243145" stroke-width="1" stroke="#1e293b"></rect><rect width="10" height="10" x="122" y="127" rx="4" ry="4" fill="#243145" stroke-width="1" stroke="#1e293b"></rect><rect width="10" height="10" x="122" y="140" rx="4" ry="4" fill="#243145" stroke-width="1" stroke="#1e293b"></rect><rect width="10" height="10" x="122" y="153" rx="4" ry="4" fill="#243145" stroke-width="1" stroke="#1e293b"></rect><rect width="10" height="10" x="122" y="166" rx="4" ry="4" fill="#243145" stroke-width="1" stroke="#1e293b"></rect><rect width="10" height="10" x="122" y="179" rx="4" ry="4" fill="#243145" stroke-width="1" stroke="#1e293b"></rect><rect width="10" height="10" x="122" y="192" rx="4" ry="4" fill="#243145" stroke-width="1" stroke="#1e293b"></rect><rect width="10" height="10" x="135" y="114" rx="4" ry="4" fill="#243145" stroke-width="1" stroke="#1e293b"></rect><rect width="10" height="10" x="135" y="127" rx="4" ry="4" fill="#243145" stroke-width="1" stroke="#1e293b"></rect><rect width="10" height="10" x="135" y="140" rx="4" ry="4" fill="#243145" stroke-width="1" stroke="#1e293b"></rect><rect width="10" height="10" x="135" y="153" rx="4" ry="4" fill="#243145" stroke-width="1" stroke="#1e293b"></rect><rect width="10" height="10" x="135" y="166" rx="4" ry="4" fill="#243145" stroke-width="1" stroke="#1e293b"></rect><rect width="10" height="10" x="135" y="179" rx="4" ry="4" fill="#243145" stroke-width="1" stroke="#1e293b"></rect><text x="135" y="117.1015625" font-size="10" font-family="DejaVu Sans" font-weight="400" fill="#64748b" svgjs:data="{&quot;leading&quot;:&quot;1.3&quot;}">Jun</text><rect width="10" height="10" x="135" y="192" rx="4" ry="4" fill="#243145" stroke-width="1" stroke="#1e293b"></rect><rect width="10" height="10" x="148" y="114" rx="4" ry="4" fill="#243145" stroke-width="1" stroke="#1e293b"></rect><rect width="10" height="10" x="148" y="127" rx="4" ry="4" fill="#243145" stroke-width="1" stroke="#1e293b"></rect><rect width="10" height="10" x="148" y="140" rx="4" ry="4" fill="#243145" stroke-width="1" stroke="#1e293b"></rect><rect width="10" height="10" x="148" y="153" rx="4" ry="4" fill="#243145" stroke-width="1" stroke="#1e293b"></rect><rect width="10" height="10" x="148" y="166" rx="4" ry="4" fill="#243145" stroke-width="1" stroke="#1e293b"></rect><rect width="10" height="10" x="148" y="179" rx="4" ry="4" fill="#243145" stroke-width="1" stroke="#1e293b"></rect><rect width="10" height="10" x="148" y="192" rx="4" ry="4" fill="#243145" stroke-width="1" stroke="#1e293b"></rect><rect width="10" height="10" x="161" y="114" rx="4" ry="4" fill="#243145" stroke-width="1" stroke="#1e293b"></rect><rect width="10" height="10" x="161" y="127" rx="4" ry="4" fill="#243145" stroke-width="1" stroke="#1e293b"></rect><rect width="10" height="10" x="161" y="140" rx="4" ry="4" fill="#243145" stroke-width="1" stroke="#1e293b"></rect><rect width="10" height="10" x="161" y="153" rx="4" ry="4" fill="#243145" stroke-width="1" stroke="#1e293b"></rect><rect width="10" height="10" x="161" y="166" rx="4" ry="4" fill="#243145" stroke-width="1" stroke="#1e293b"></rect><rect width="10" height="10" x="161" y="179" rx="4" ry="4" fill="#243145" stroke-width="1" stroke="#1e293b"></rect><rect width="10" height="10" x="161" y="192" rx="4" ry="4" fill="#243145" stroke-width="1" stroke="#1e293b"></rect><rect width="10" height="10" x="174" y="114" rx="4" ry="4" fill="#243145" stroke-width="1" stroke="#1e293b"></rect><rect width="10" height="10" x="174" y="127" rx="4" ry="4" fill="#243145" stroke-width="1" stroke="#1e293b"></rect><rect width="10" height="10" x="174" y="140" rx="4" ry="4" fill="#243145" stroke-width="1" stroke="#1e293b"></rect><rect width="10" height="10" x="174" y="153" rx="4" ry="4" fill="#243145" stroke-width="1" stroke="#1e293b"></rect><rect width="10" height="10" x="174" y="166" rx="4" ry="4" fill="#243145" stroke-width="1" stroke="#1e293b"></rect><rect width="10" height="10" x="174" y="179" rx="4" ry="4" fill="#243145" stroke-width="1" stroke="#1e293b"></rect><rect width="10" height="10" x="174" y="192" rx="4" ry="4" fill="#243145" stroke-width="1" stroke="#1e293b"></rect><rect width="10" height="10" x="187" y="114" rx="4" ry="4" fill="#243145" stroke-width="1" stroke="#1e293b"></rect><rect width="10" height="10" x="187" y="127" rx="4" ry="4" fill="#243145" stroke-width="1" stroke="#1e293b"></rect><rect width="10" height="10" x="187" y="140" rx="4" ry="4" fill="#243145" stroke-width="1" stroke="#1e293b"></rect><rect width="10" height="10" x="187" y="153" rx="4" ry="4" fill="#243145" stroke-width="1" stroke="#1e293b"></rect><rect width="10" height="10" x="187" y="166" rx="4" ry="4" fill="#243145" stroke-width="1" stroke="#1e293b"></rect><rect width="10" height="10" x="187" y="179" rx="4" ry="4" fill="#243145" stroke-width="1" stroke="#1e293b"></rect><rect width="10" height="10" x="187" y="192" rx="4" ry="4" fill="#243145" stroke-width="1" stroke="#1e293b"></rect><rect width="10" height="10" x="200" y="114" rx="4" ry="4" fill="#243145" stroke-width="1" stroke="#1e293b"></rect><text x="200" y="117.1015625" font-size="10" font-family="DejaVu Sans" font-weight="400" fill="#64748b" svgjs:data="{&quot;leading&quot;:&quot;1.3&quot;}">Jul</text><rect width="10" height="10" x="200" y="127" rx="4" ry="4" fill="#243145" stroke-width="1" stroke="#1e293b"></rect><rect width="10" height="10" x="200" y="140" rx="4" ry="4" fill="#243145" stroke-width="1" stroke="#1e293b"></rect><rect width="10" height="10" x="200" y="153" rx="4" ry="4" fill="#243145" stroke-width="1" stroke="#1e293b"></rect><rect width="10" height="10" x="200" y="166" rx="4" ry="4" fill="#243145" stroke-width="1" stroke="#1e293b"></rect><rect width="10" height="10" x="200" y="179" rx="4" ry="4" fill="#243145" stroke-width="1" stroke="#1e293b"></rect><rect width="10" height="10" x="200" y="192" rx="4" ry="4" fill="#243145" stroke-width="1" stroke="#1e293b"></rect><rect width="10" height="10" x="213" y="114" rx="4" ry="4" fill="#243145" stroke-width="1" stroke="#1e293b"></rect><rect width="10" height="10" x="213" y="127" rx="4" ry="4" fill="#243145" stroke-width="1" stroke="#1e293b"></rect><rect width="10" height="10" x="213" y="140" rx="4" ry="4" fill="#243145" stroke-width="1" stroke="#1e293b"></rect><rect width="10" height="10" x="213" y="153" rx="4" ry="4" fill="#243145" stroke-width="1" stroke="#1e293b"></rect><rect width="10" height="10" x="213" y="166" rx="4" ry="4" fill="#243145" stroke-width="1" stroke="#1e293b"></rect><rect width="10" height="10" x="213" y="179" rx="4" ry="4" fill="#243145" stroke-width="1" stroke="#1e293b"></rect><rect width="10" height="10" x="213" y="192" rx="4" ry="4" fill="#243145" stroke-width="1" stroke="#1e293b"></rect><rect width="10" height="10" x="226" y="114" rx="4" ry="4" fill="#243145" stroke-width="1" stroke="#1e293b"></rect><rect width="10" height="10" x="226" y="127" rx="4" ry="4" fill="#243145" stroke-width="1" stroke="#1e293b"></rect><rect width="10" height="10" x="226" y="140" rx="4" ry="4" fill="#243145" stroke-width="1" stroke="#1e293b"></rect><rect width="10" height="10" x="226" y="153" rx="4" ry="4" fill="#243145" stroke-width="1" stroke="#1e293b"></rect><rect width="10" height="10" x="226" y="166" rx="4" ry="4" fill="#243145" stroke-width="1" stroke="#1e293b"></rect><rect width="10" height="10" x="226" y="179" rx="4" ry="4" fill="#243145" stroke-width="1" stroke="#1e293b"></rect><rect width="10" height="10" x="226" y="192" rx="4" ry="4" fill="#243145" stroke-width="1" stroke="#1e293b"></rect><rect width="10" height="10" x="239" y="114" rx="4" ry="4" fill="#123524" stroke-width="1" stroke="#1e293b"></rect><rect width="10" height="10" x="239" y="127" rx="4" ry="4" fill="#243145" stroke-width="1" stroke="#1e293b"></rect><rect width="10" height="10" x="239" y="140" rx="4" ry="4" fill="#243145" stroke-width="1" stroke="#1e293b"></rect><rect width="10" height="10" x="239" y="153" rx="4" ry="4" fill="#243145" stroke-width="1" stroke="#1e293b"></rect><rect width="10" height="10" x="239" y="166" rx="4" ry="4" fill="#243145" stroke-width="1" stroke="#1e293b"></rect><rect width="10" height="10" x="239" y="179" rx="4" ry="4" fill="#243145" stroke-width="1" stroke="#1e293b"></rect><rect width="10" height="10" x="239" y="192" rx="4" ry="4" fill="#243145" stroke-width="1" stroke="#1e293b"></rect><rect width="10" height="10" x="252" y="114" rx="4" ry="4" fill="#243145" stroke-width="1" stroke="#1e293b"></rect><rect width="10" height="10" x="252" y="127" rx="4" ry="4" fill="#243145" stroke-width="1" stroke="#1e293b"></rect><rect width="10" height="10" x="252" y="140" rx="4" ry="4" fill="#243145" stroke-width="1" stroke="#1e293b"></rect><rect width="10" height="10" x="252" y="153" rx="4" ry="4" fill="#243145" stroke-width="1" stroke="#1e293b"></rect><text x="252" y="117.1015625" font-size="10" font-family="DejaVu Sans" font-weight="400" fill="#64748b" svgjs:data="{&quot;leading&quot;:&quot;1.3&quot;}">Aug</text><rect width="10" height="10" x="252" y="166" rx="4" ry="4" fill="#243145" stroke-width="1" stroke="#1e293b"></rect><rect width="10" height="10" x="252" y="179" rx="4" ry="4" fill="#243145" stroke-width="1" stroke="#1e293b"></rect><rect width="10" height="10" x="252" y="192" rx="4" ry="4" fill="#243145" stroke-width="1" stroke="#1e293b"></rect><rect width="10" height="10" x="265" y="114" rx="4" ry="4" fill="#243145" stroke-width="1" stroke="#1e293b"></rect><rect width="10" height="10" x="265" y="127" rx="4" ry="4" fill="#243145" stroke-width="1" stroke="#1e293b"></rect><rect width="10" height="10" x="265" y="140" rx="4" ry="4" fill="#243145" stroke-width="1" stroke="#1e293b"></rect><rect width="10" height="10" x="265" y="153" rx="4" ry="4" fill="#243145" stroke-width="1" stroke="#1e293b"></rect><rect width="10" height="10" x="265" y="166" rx="4" ry="4" fill="#243145" stroke-width="1" stroke="#1e293b"></rect><rect width="10" height="10" x="265" y="179" rx="4" ry="4" fill="#243145" stroke-width="1" stroke="#1e293b"></rect><rect width="10" height="10" x="265" y="192" rx="4" ry="4" fill="#243145" stroke-width="1" stroke="#1e293b"></rect><rect width="10" height="10" x="278" y="114" rx="4" ry="4" fill="#243145" stroke-width="1" stroke="#1e293b"></rect><rect width="10" height="10" x="278" y="127" rx="4" ry="4" fill="#243145" stroke-width="1" stroke="#1e293b"></rect><rect width="10" height="10" x="278" y="140" rx="4" ry="4" fill="#243145" stroke-width="1" stroke="#1e293b"></rect><rect width="10" height="10" x="278" y="153" rx="4" ry="4" fill="#243145" stroke-width="1" stroke="#1e293b"></rect><rect width="10" height="10" x="278" y="166" rx="4" ry="4" fill="#243145" stroke-width="1" stroke="#1e293b"></rect><rect width="10" height="10" x="278" y="179" rx="4" ry="4" fill="#243145" stroke-width="1" stroke="#1e293b"></rect><rect width="10" height="10" x="278" y="192" rx="4" ry="4" fill="#243145" stroke-width="1" stroke="#1e293b"></rect><rect width="10" height="10" x="291" y="114" rx="4" ry="4" fill="#243145" stroke-width="1" stroke="#1e293b"></rect><rect width="10" height="10" x="291" y="127" rx="4" ry="4" fill="#243145" stroke-width="1" stroke="#1e293b"></rect><rect width="10" height="10" x="291" y="140" rx="4" ry="4" fill="#243145" stroke-width="1" stroke="#1e293b"></rect><rect width="10" height="10" x="291" y="153" rx="4" ry="4" fill="#243145" stroke-width="1" stroke="#1e293b"></rect><rect width="10" height="10" x="291" y="166" rx="4" ry="4" fill="#243145" stroke-width="1" stroke="#1e293b"></rect><rect width="10" height="10" x="291" y="179" rx="4" ry="4" fill="#243145" stroke-width="1" stroke="#1e293b"></rect><rect width="10" height="10" x="291" y="192" rx="4" ry="4" fill="#243145" stroke-width="1" stroke="#1e293b"></rect><rect width="10" height="10" x="304" y="114" rx="4" ry="4" fill="#243145" stroke-width="1" stroke="#1e293b"></rect><rect width="10" height="10" x="304" y="127" rx="4" ry="4" fill="#243145" stroke-width="1" stroke="#1e293b"></rect><rect width="10" height="10" x="304" y="140" rx="4" ry="4" fill="#243145" stroke-width="1" stroke="#1e293b"></rect><rect width="10" height="10" x="304" y="153" rx="4" ry="4" fill="#243145" stroke-width="1" stroke="#1e293b"></rect><rect width="10" height="10" x="304" y="166" rx="4" ry="4" fill="#243145" stroke-width="1" stroke="#1e293b"></rect><rect width="10" height="10" x="304" y="179" rx="4" ry="4" fill="#243145" stroke-width="1" stroke="#1e293b"></rect><rect width="10" height="10" x="304" y="192" rx="4" ry="4" fill="#243145" stroke-width="1" stroke="#1e293b"></rect><text x="304" y="117.1015625" font-size="10" font-family="DejaVu Sans" font-weight="400" fill="#64748b" svgjs:data="{&quot;leading&quot;:&quot;1.3&quot;}">Sep</text><rect width="10" height="10" x="317" y="114" rx="4" ry="4" fill="#243145" stroke-width="1" stroke="#1e293b"></rect><rect width="10" height="10" x="317" y="127" rx="4" ry="4" fill="#243145" stroke-width="1" stroke="#1e293b"></rect><rect width="10" height="10" x="317" y="140" rx="4" ry="4" fill="#243145" stroke-width="1" stroke="#1e293b"></rect><rect width="10" height="10" x="317" y="153" rx="4" ry="4" fill="#243145" stroke-width="1" stroke="#1e293b"></rect><rect width="10" height="10" x="317" y="166" rx="4" ry="4" fill="#243145" stroke-width="1" stroke="#1e293b"></rect><rect width="10" height="10" x="317" y="179" rx="4" ry="4" fill="#243145" stroke-width="1" stroke="#1e293b"></rect><rect width="10" height="10" x="317" y="192" rx="4" ry="4" fill="#243145" stroke-width="1" stroke="#1e293b"></rect><rect width="10" height="10" x="330" y="114" rx="4" ry="4" fill="#243145" stroke-width="1" stroke="#1e293b"></rect><rect width="10" height="10" x="330" y="127" rx="4" ry="4" fill="#243145" stroke-width="1" stroke="#1e293b"></rect><rect width="10" height="10" x="330" y="140" rx="4" ry="4" fill="#243145" stroke-width="1" stroke="#1e293b"></rect><rect width="10" height="10" x="330" y="153" rx="4" ry="4" fill="#243145" stroke-width="1" stroke="#1e293b"></rect><rect width="10" height="10" x="330" y="166" rx="4" ry="4" fill="#243145" stroke-width="1" stroke="#1e293b"></rect><rect width="10" height="10" x="330" y="179" rx="4" ry="4" fill="#243145" stroke-width="1" stroke="#1e293b"></rect><rect width="10" height="10" x="330" y="192" rx="4" ry="4" fill="#243145" stroke-width="1" stroke="#1e293b"></rect><rect width="10" height="10" x="343" y="114" rx="4" ry="4" fill="#243145" stroke-width="1" stroke="#1e293b"></rect><rect width="10" height="10" x="343" y="127" rx="4" ry="4" fill="#243145" stroke-width="1" stroke="#1e293b"></rect><rect width="10" height="10" x="343" y="140" rx="4" ry="4" fill="#243145" stroke-width="1" stroke="#1e293b"></rect><rect width="10" height="10" x="343" y="153" rx="4" ry="4" fill="#243145" stroke-width="1" stroke="#1e293b"></rect><rect width="10" height="10" x="343" y="166" rx="4" ry="4" fill="#243145" stroke-width="1" stroke="#1e293b"></rect><rect width="10" height="10" x="343" y="179" rx="4" ry="4" fill="#243145" stroke-width="1" stroke="#1e293b"></rect><rect width="10" height="10" x="343" y="192" rx="4" ry="4" fill="#243145" stroke-width="1" stroke="#1e293b"></rect><rect width="10" height="10" x="356" y="114" rx="4" ry="4" fill="#243145" stroke-width="1" stroke="#1e293b"></rect><rect width="10" height="10" x="356" y="127" rx="4" ry="4" fill="#243145" stroke-width="1" stroke="#1e293b"></rect><rect width="10" height="10" x="356" y="140" rx="4" ry="4" fill="#243145" stroke-width="1" stroke="#1e293b"></rect><rect width="10" height="10" x="356" y="153" rx="4" ry="4" fill="#243145" stroke-width="1" stroke="#1e293b"></rect><rect width="10" height="10" x="356" y="166" rx="4" ry="4" fill="#243145" stroke-width="1" stroke="#1e293b"></rect><rect width="10" height="10" x="356" y="179" rx="4" ry="4" fill="#243145" stroke-width="1" stroke="#1e293b"></rect><rect width="10" height="10" x="356" y="192" rx="4" ry="4" fill="#243145" stroke-width="1" stroke="#1e293b"></rect><rect width="10" height="10" x="369" y="114" rx="4" ry="4" fill="#243145" stroke-width="1" stroke="#1e293b"></rect><rect width="10" height="10" x="369" y="127" rx="4" ry="4" fill="#243145" stroke-width="1" stroke="#1e293b"></rect><text x="369" y="117.1015625" font-size="10" font-family="DejaVu Sans" font-weight="400" fill="#64748b" svgjs:data="{&quot;leading&quot;:&quot;1.3&quot;}">Oct</text><rect width="10" height="10" x="369" y="140" rx="4" ry="4" fill="#243145" stroke-width="1" stroke="#1e293b"></rect><rect width="10" height="10" x="369" y="153" rx="4" ry="4" fill="#243145" stroke-width="1" stroke="#1e293b"></rect><rect width="10" height="10" x="369" y="166" rx="4" ry="4" fill="#243145" stroke-width="1" stroke="#1e293b"></rect><rect width="10" height="10" x="369" y="179" rx="4" ry="4" fill="#243145" stroke-width="1" stroke="#1e293b"></rect><rect width="10" height="10" x="369" y="192" rx="4" ry="4" fill="#243145" stroke-width="1" stroke="#1e293b"></rect><rect width="10" height="10" x="382" y="114" rx="4" ry="4" fill="#243145" stroke-width="1" stroke="#1e293b"></rect><rect width="10" height="10" x="382" y="127" rx="4" ry="4" fill="#243145" stroke-width="1" stroke="#1e293b"></rect><rect width="10" height="10" x="382" y="140" rx="4" ry="4" fill="#243145" stroke-width="1" stroke="#1e293b"></rect><rect width="10" height="10" x="382" y="153" rx="4" ry="4" fill="#243145" stroke-width="1" stroke="#1e293b"></rect><rect width="10" height="10" x="382" y="166" rx="4" ry="4" fill="#243145" stroke-width="1" stroke="#1e293b"></rect><rect width="10" height="10" x="382" y="179" rx="4" ry="4" fill="#243145" stroke-width="1" stroke="#1e293b"></rect><rect width="10" height="10" x="382" y="192" rx="4" ry="4" fill="#243145" stroke-width="1" stroke="#1e293b"></rect><rect width="10" height="10" x="395" y="114" rx="4" ry="4" fill="#243145" stroke-width="1" stroke="#1e293b"></rect><rect width="10" height="10" x="395" y="127" rx="4" ry="4" fill="#243145" stroke-width="1" stroke="#1e293b"></rect><rect width="10" height="10" x="395" y="140" rx="4" ry="4" fill="#243145" stroke-width="1" stroke="#1e293b"></rect><rect width="10" height="10" x="395" y="153" rx="4" ry="4" fill="#243145" stroke-width="1" stroke="#1e293b"></rect><rect width="10" height="10" x="395" y="166" rx="4" ry="4" fill="#243145" stroke-width="1" stroke="#1e293b"></rect><rect width="10" height="10" x="395" y="179" rx="4" ry="4" fill="#243145" stroke-width="1" stroke="#1e293b"></rect><rect width="10" height="10" x="395" y="192" rx="4" ry="4" fill="#243145" stroke-width="1" stroke="#1e293b"></rect><rect width="10" height="10" x="408" y="114" rx="4" ry="4" fill="#243145" stroke-width="1" stroke="#1e293b"></rect><rect width="10" height="10" x="408" y="127" rx="4" ry="4" fill="#243145" stroke-width="1" stroke="#1e293b"></rect><rect width="10" height="10" x="408" y="140" rx="4" ry="4" fill="#243145" stroke-width="1" stroke="#1e293b"></rect><rect width="10" height="10" x="408" y="153" rx="4" ry="4" fill="#243145" stroke-width="1" stroke="#1e293b"></rect><rect width="10" height="10" x="408" y="166" rx="4" ry="4" fill="#243145" stroke-width="1" stroke="#1e293b"></rect><rect width="10" height="10" x="408" y="179" rx="4" ry="4" fill="#243145" stroke-width="1" stroke="#1e293b"></rect><rect width="10" height="10" x="408" y="192" rx="4" ry="4" fill="#243145" stroke-width="1" stroke="#1e293b"></rect><rect width="10" height="10" x="421" y="114" rx="4" ry="4" fill="#243145" stroke-width="1" stroke="#1e293b"></rect><rect width="10" height="10" x="421" y="127" rx="4" ry="4" fill="#243145" stroke-width="1" stroke="#1e293b"></rect><rect width="10" height="10" x="421" y="140" rx="4" ry="4" fill="#243145" stroke-width="1" stroke="#1e293b"></rect><rect width="10" height="10" x="421" y="153" rx="4" ry="4" fill="#243145" stroke-width="1" stroke="#1e293b"></rect><rect width="10" height="10" x="421" y="166" rx="4" ry="4" fill="#243145" stroke-width="1" stroke="#1e293b"></rect><text x="421" y="117.1015625" font-size="10" font-family="DejaVu Sans" font-weight="400" fill="#64748b" svgjs:data="{&quot;leading&quot;:&quot;1.3&quot;}">Nov</text><rect width="10" height="10" x="421" y="179" rx="4" ry="4" fill="#243145" stroke-width="1" stroke="#1e293b"></rect><rect width="10" height="10" x="421" y="192" rx="4" ry="4" fill="#243145" stroke-width="1" stroke="#1e293b"></rect><rect width="10" height="10" x="434" y="114" rx="4" ry="4" fill="#243145" stroke-width="1" stroke="#1e293b"></rect><rect width="10" height="10" x="434" y="127" rx="4" ry="4" fill="#243145" stroke-width="1" stroke="#1e293b"></rect><rect width="10" height="10" x="434" y="140" rx="4" ry="4" fill="#243145" stroke-width="1" stroke="#1e293b"></rect><rect width="10" height="10" x="434" y="153" rx="4" ry="4" fill="#243145" stroke-width="1" stroke="#1e293b"></rect><rect width="10" height="10" x="434" y="166" rx="4" ry="4" fill="#243145" stroke-width="1" stroke="#1e293b"></rect><rect width="10" height="10" x="434" y="179" rx="4" ry="4" fill="#243145" stroke-width="1" stroke="#1e293b"></rect><rect width="10" height="10" x="434" y="192" rx="4" ry="4" fill="#243145" stroke-width="1" stroke="#1e293b"></rect><rect width="10" height="10" x="447" y="114" rx="4" ry="4" fill="#243145" stroke-width="1" stroke="#1e293b"></rect><rect width="10" height="10" x="447" y="127" rx="4" ry="4" fill="#243145" stroke-width="1" stroke="#1e293b"></rect><rect width="10" height="10" x="447" y="140" rx="4" ry="4" fill="#243145" stroke-width="1" stroke="#1e293b"></rect><rect width="10" height="10" x="447" y="153" rx="4" ry="4" fill="#243145" stroke-width="1" stroke="#1e293b"></rect><rect width="10" height="10" x="447" y="166" rx="4" ry="4" fill="#243145" stroke-width="1" stroke="#1e293b"></rect><rect width="10" height="10" x="447" y="179" rx="4" ry="4" fill="#243145" stroke-width="1" stroke="#1e293b"></rect><rect width="10" height="10" x="447" y="192" rx="4" ry="4" fill="#243145" stroke-width="1" stroke="#1e293b"></rect><rect width="10" height="10" x="460" y="114" rx="4" ry="4" fill="#243145" stroke-width="1" stroke="#1e293b"></rect><rect width="10" height="10" x="460" y="127" rx="4" ry="4" fill="#243145" stroke-width="1" stroke="#1e293b"></rect><rect width="10" height="10" x="460" y="140" rx="4" ry="4" fill="#243145" stroke-width="1" stroke="#1e293b"></rect><rect width="10" height="10" x="460" y="153" rx="4" ry="4" fill="#243145" stroke-width="1" stroke="#1e293b"></rect><rect width="10" height="10" x="460" y="166" rx="4" ry="4" fill="#243145" stroke-width="1" stroke="#1e293b"></rect><rect width="10" height="10" x="460" y="179" rx="4" ry="4" fill="#243145" stroke-width="1" stroke="#1e293b"></rect><rect width="10" height="10" x="460" y="192" rx="4" ry="4" fill="#243145" stroke-width="1" stroke="#1e293b"></rect><rect width="10" height="10" x="473" y="114" rx="4" ry="4" fill="#243145" stroke-width="1" stroke="#1e293b"></rect><rect width="10" height="10" x="473" y="127" rx="4" ry="4" fill="#243145" stroke-width="1" stroke="#1e293b"></rect><rect width="10" height="10" x="473" y="140" rx="4" ry="4" fill="#243145" stroke-width="1" stroke="#1e293b"></rect><rect width="10" height="10" x="473" y="153" rx="4" ry="4" fill="#243145" stroke-width="1" stroke="#1e293b"></rect><rect width="10" height="10" x="473" y="166" rx="4" ry="4" fill="#243145" stroke-width="1" stroke="#1e293b"></rect><rect width="10" height="10" x="473" y="179" rx="4" ry="4" fill="#243145" stroke-width="1" stroke="#1e293b"></rect><rect width="10" height="10" x="473" y="192" rx="4" ry="4" fill="#243145" stroke-width="1" stroke="#1e293b"></rect><text x="473" y="117.1015625" font-size="10" font-family="DejaVu Sans" font-weight="400" fill="#64748b" svgjs:data="{&quot;leading&quot;:&quot;1.3&quot;}">Dec</text><rect width="10" height="10" x="486" y="114" rx="4" ry="4" fill="#243145" stroke-width="1" stroke="#1e293b"></rect><rect width="10" height="10" x="486" y="127" rx="4" ry="4" fill="#243145" stroke-width="1" stroke="#1e293b"></rect><rect width="10" height="10" x="486" y="140" rx="4" ry="4" fill="#243145" stroke-width="1" stroke="#1e293b"></rect><rect width="10" height="10" x="486" y="153" rx="4" ry="4" fill="#243145" stroke-width="1" stroke="#1e293b"></rect><rect width="10" height="10" x="486" y="166" rx="4" ry="4" fill="#243145" stroke-width="1" stroke="#1e293b"></rect><rect width="10" height="10" x="486" y="179" rx="4" ry="4" fill="#243145" stroke-width="1" stroke="#1e293b"></rect><rect width="10" height="10" x="486" y="192" rx="4" ry="4" fill="#243145" stroke-width="1" stroke="#1e293b"></rect><rect width="10" height="10" x="499" y="114" rx="4" ry="4" fill="#243145" stroke-width="1" stroke="#1e293b"></rect><rect width="10" height="10" x="499" y="127" rx="4" ry="4" fill="#243145" stroke-width="1" stroke="#1e293b"></rect><rect width="10" height="10" x="499" y="140" rx="4" ry="4" fill="#243145" stroke-width="1" stroke="#1e293b"></rect><rect width="10" height="10" x="499" y="153" rx="4" ry="4" fill="#243145" stroke-width="1" stroke="#1e293b"></rect><rect width="10" height="10" x="499" y="166" rx="4" ry="4" fill="#243145" stroke-width="1" stroke="#1e293b"></rect><rect width="10" height="10" x="499" y="179" rx="4" ry="4" fill="#243145" stroke-width="1" stroke="#1e293b"></rect><rect width="10" height="10" x="499" y="192" rx="4" ry="4" fill="#243145" stroke-width="1" stroke="#1e293b"></rect><rect width="10" height="10" x="512" y="114" rx="4" ry="4" fill="#243145" stroke-width="1" stroke="#1e293b"></rect><rect width="10" height="10" x="512" y="127" rx="4" ry="4" fill="#243145" stroke-width="1" stroke="#1e293b"></rect><rect width="10" height="10" x="512" y="140" rx="4" ry="4" fill="#243145" stroke-width="1" stroke="#1e293b"></rect><rect width="10" height="10" x="512" y="153" rx="4" ry="4" fill="#243145" stroke-width="1" stroke="#1e293b"></rect><rect width="10" height="10" x="512" y="166" rx="4" ry="4" fill="#243145" stroke-width="1" stroke="#1e293b"></rect><rect width="10" height="10" x="512" y="179" rx="4" ry="4" fill="#243145" stroke-width="1" stroke="#1e293b"></rect><rect width="10" height="10" x="512" y="192" rx="4" ry="4" fill="#243145" stroke-width="1" stroke="#1e293b"></rect><rect width="10" height="10" x="525" y="114" rx="4" ry="4" fill="#243145" stroke-width="1" stroke="#1e293b"></rect><rect width="10" height="10" x="525" y="127" rx="4" ry="4" fill="#243145" stroke-width="1" stroke="#1e293b"></rect><rect width="10" height="10" x="525" y="140" rx="4" ry="4" fill="#243145" stroke-width="1" stroke="#1e293b"></rect><rect width="10" height="10" x="525" y="153" rx="4" ry="4" fill="#243145" stroke-width="1" stroke="#1e293b"></rect><rect width="10" height="10" x="525" y="166" rx="4" ry="4" fill="#243145" stroke-width="1" stroke="#1e293b"></rect><rect width="10" height="10" x="525" y="179" rx="4" ry="4" fill="#243145" stroke-width="1" stroke="#1e293b"></rect><rect width="10" height="10" x="525" y="192" rx="4" ry="4" fill="#243145" stroke-width="1" stroke="#1e293b"></rect><rect width="10" height="10" x="538" y="114" rx="4" ry="4" fill="#243145" stroke-width="1" stroke="#1e293b"></rect><rect width="10" height="10" x="538" y="127" rx="4" ry="4" fill="#243145" stroke-width="1" stroke="#1e293b"></rect><rect width="10" height="10" x="538" y="140" rx="4" ry="4" fill="#243145" stroke-width="1" stroke="#1e293b"></rect><text x="538" y="117.1015625" font-size="10" font-family="DejaVu Sans" font-weight="400" fill="#64748b" svgjs:data="{&quot;leading&quot;:&quot;1.3&quot;}">Jan</text><rect width="10" height="10" x="538" y="153" rx="4" ry="4" fill="#243145" stroke-width="1" stroke="#1e293b"></rect><rect width="10" height="10" x="538" y="166" rx="4" ry="4" fill="#243145" stroke-width="1" stroke="#1e293b"></rect><rect width="10" height="10" x="538" y="179" rx="4" ry="4" fill="#243145" stroke-width="1" stroke="#1e293b"></rect><rect width="10" height="10" x="538" y="192" rx="4" ry="4" fill="#243145" stroke-width="1" stroke="#1e293b"></rect><rect width="10" height="10" x="551" y="114" rx="4" ry="4" fill="#243145" stroke-width="1" stroke="#1e293b"></rect><rect width="10" height="10" x="551" y="127" rx="4" ry="4" fill="#243145" stroke-width="1" stroke="#1e293b"></rect><rect width="10" height="10" x="551" y="140" rx="4" ry="4" fill="#243145" stroke-width="1" stroke="#1e293b"></rect><rect width="10" height="10" x="551" y="153" rx="4" ry="4" fill="#243145" stroke-width="1" stroke="#1e293b"></rect><rect width="10" height="10" x="551" y="166" rx="4" ry="4" fill="#243145" stroke-width="1" stroke="#1e293b"></rect><rect width="10" height="10" x="551" y="179" rx="4" ry="4" fill="#243145" stroke-width="1" stroke="#1e293b"></rect><rect width="10" height="10" x="551" y="192" rx="4" ry="4" fill="#243145" stroke-width="1" stroke="#1e293b"></rect><rect width="10" height="10" x="564" y="114" rx="4" ry="4" fill="#243145" stroke-width="1" stroke="#1e293b"></rect><rect width="10" height="10" x="564" y="127" rx="4" ry="4" fill="#243145" stroke-width="1" stroke="#1e293b"></rect><rect width="10" height="10" x="564" y="140" rx="4" ry="4" fill="#243145" stroke-width="1" stroke="#1e293b"></rect><rect width="10" height="10" x="564" y="153" rx="4" ry="4" fill="#243145" stroke-width="1" stroke="#1e293b"></rect><rect width="10" height="10" x="564" y="166" rx="4" ry="4" fill="#243145" stroke-width="1" stroke="#1e293b"></rect><rect width="10" height="10" x="564" y="179" rx="4" ry="4" fill="#243145" stroke-width="1" stroke="#1e293b"></rect><rect width="10" height="10" x="564" y="192" rx="4" ry="4" fill="#243145" stroke-width="1" stroke="#1e293b"></rect><rect width="10" height="10" x="577" y="114" rx="4" ry="4" fill="#243145" stroke-width="1" stroke="#1e293b"></rect><rect width="10" height="10" x="577" y="127" rx="4" ry="4" fill="#243145" stroke-width="1" stroke="#1e293b"></rect><rect width="10" height="10" x="577" y="140" rx="4" ry="4" fill="#243145" stroke-width="1" stroke="#1e293b"></rect><rect width="10" height="10" x="577" y="153" rx="4" ry="4" fill="#243145" stroke-width="1" stroke="#1e293b"></rect><rect width="10" height="10" x="577" y="166" rx="4" ry="4" fill="#243145" stroke-width="1" stroke="#1e293b"></rect><rect width="10" height="10" x="577" y="179" rx="4" ry="4" fill="#243145" stroke-width="1" stroke="#1e293b"></rect><rect width="10" height="10" x="577" y="192" rx="4" ry="4" fill="#243145" stroke-width="1" stroke="#1e293b"></rect><rect width="10" height="10" x="590" y="114" rx="4" ry="4" fill="#243145" stroke-width="1" stroke="#1e293b"></rect><rect width="10" height="10" x="590" y="127" rx="4" ry="4" fill="#243145" stroke-width="1" stroke="#1e293b"></rect><rect width="10" height="10" x="590" y="140" rx="4" ry="4" fill="#243145" stroke-width="1" stroke="#1e293b"></rect><rect width="10" height="10" x="590" y="153" rx="4" ry="4" fill="#243145" stroke-width="1" stroke="#1e293b"></rect><rect width="10" height="10" x="590" y="166" rx="4" ry="4" fill="#243145" stroke-width="1" stroke="#1e293b"></rect><rect width="10" height="10" x="590" y="179" rx="4" ry="4" fill="#243145" stroke-width="1" stroke="#1e293b"></rect><text x="590" y="117.1015625" font-size="10" font-family="DejaVu Sans" font-weight="400" fill="#64748b" svgjs:data="{&quot;leading&quot;:&quot;1.3&quot;}">Feb</text><rect width="10" height="10" x="590" y="192" rx="4" ry="4" fill="#243145" stroke-width="1" stroke="#1e293b"></rect><rect width="10" height="10" x="603" y="114" rx="4" ry="4" fill="#243145" stroke-width="1" stroke="#1e293b"></rect><rect width="10" height="10" x="603" y="127" rx="4" ry="4" fill="#243145" stroke-width="1" stroke="#1e293b"></rect><rect width="10" height="10" x="603" y="140" rx="4" ry="4" fill="#243145" stroke-width="1" stroke="#1e293b"></rect><rect width="10" height="10" x="603" y="153" rx="4" ry="4" fill="#243145" stroke-width="1" stroke="#1e293b"></rect><rect width="10" height="10" x="603" y="166" rx="4" ry="4" fill="#243145" stroke-width="1" stroke="#1e293b"></rect><rect width="10" height="10" x="603" y="179" rx="4" ry="4" fill="#243145" stroke-width="1" stroke="#1e293b"></rect><rect width="10" height="10" x="603" y="192" rx="4" ry="4" fill="#243145" stroke-width="1" stroke="#1e293b"></rect><rect width="10" height="10" x="616" y="114" rx="4" ry="4" fill="#243145" stroke-width="1" stroke="#1e293b"></rect><rect width="10" height="10" x="616" y="127" rx="4" ry="4" fill="#243145" stroke-width="1" stroke="#1e293b"></rect><rect width="10" height="10" x="616" y="140" rx="4" ry="4" fill="#243145" stroke-width="1" stroke="#1e293b"></rect><rect width="10" height="10" x="616" y="153" rx="4" ry="4" fill="#243145" stroke-width="1" stroke="#1e293b"></rect><rect width="10" height="10" x="616" y="166" rx="4" ry="4" fill="#243145" stroke-width="1" stroke="#1e293b"></rect><rect width="10" height="10" x="616" y="179" rx="4" ry="4" fill="#243145" stroke-width="1" stroke="#1e293b"></rect><rect width="10" height="10" x="616" y="192" rx="4" ry="4" fill="#243145" stroke-width="1" stroke="#1e293b"></rect><rect width="10" height="10" x="629" y="114" rx="4" ry="4" fill="#243145" stroke-width="1" stroke="#1e293b"></rect><rect width="10" height="10" x="629" y="127" rx="4" ry="4" fill="#243145" stroke-width="1" stroke="#1e293b"></rect><rect width="10" height="10" x="629" y="140" rx="4" ry="4" fill="#243145" stroke-width="1" stroke="#1e293b"></rect><rect width="10" height="10" x="629" y="153" rx="4" ry="4" fill="#243145" stroke-width="1" stroke="#1e293b"></rect><rect width="10" height="10" x="629" y="166" rx="4" ry="4" fill="#243145" stroke-width="1" stroke="#1e293b"></rect><rect width="10" height="10" x="629" y="179" rx="4" ry="4" fill="#243145" stroke-width="1" stroke="#1e293b"></rect><rect width="10" height="10" x="629" y="192" rx="4" ry="4" fill="#243145" stroke-width="1" stroke="#1e293b"></rect><rect width="10" height="10" x="642" y="114" rx="4" ry="4" fill="#243145" stroke-width="1" stroke="#1e293b"></rect><rect width="10" height="10" x="642" y="127" rx="4" ry="4" fill="#243145" stroke-width="1" stroke="#1e293b"></rect><rect width="10" height="10" x="642" y="140" rx="4" ry="4" fill="#243145" stroke-width="1" stroke="#1e293b"></rect><rect width="10" height="10" x="642" y="153" rx="4" ry="4" fill="#243145" stroke-width="1" stroke="#1e293b"></rect><rect width="10" height="10" x="642" y="166" rx="4" ry="4" fill="#243145" stroke-width="1" stroke="#1e293b"></rect><rect width="10" height="10" x="642" y="179" rx="4" ry="4" fill="#243145" stroke-width="1" stroke="#1e293b"></rect><text x="642" y="117.1015625" font-size="10" font-family="DejaVu Sans" font-weight="400" fill="#64748b" svgjs:data="{&quot;leading&quot;:&quot;1.3&quot;}">Mar</text><rect width="10" height="10" x="642" y="192" rx="4" ry="4" fill="#243145" stroke-width="1" stroke="#1e293b"></rect><rect width="10" height="10" x="655" y="114" rx="4" ry="4" fill="#243145" stroke-width="1" stroke="#1e293b"></rect><rect width="10" height="10" x="655" y="127" rx="4" ry="4" fill="#243145" stroke-width="1" stroke="#1e293b"></rect><rect width="10" height="10" x="655" y="140" rx="4" ry="4" fill="#243145" stroke-width="1" stroke="#1e293b"></rect><rect width="10" height="10" x="655" y="153" rx="4" ry="4" fill="#243145" stroke-width="1" stroke="#1e293b"></rect><rect width="10" height="10" x="655" y="166" rx="4" ry="4" fill="#243145" stroke-width="1" stroke="#1e293b"></rect><rect width="10" height="10" x="655" y="179" rx="4" ry="4" fill="#243145" stroke-width="1" stroke="#1e293b"></rect><rect width="10" height="10" x="655" y="192" rx="4" ry="4" fill="#243145" stroke-width="1" stroke="#1e293b"></rect><rect width="10" height="10" x="668" y="114" rx="4" ry="4" fill="#243145" stroke-width="1" stroke="#1e293b"></rect><rect width="10" height="10" x="668" y="127" rx="4" ry="4" fill="#243145" stroke-width="1" stroke="#1e293b"></rect><rect width="10" height="10" x="668" y="140" rx="4" ry="4" fill="#243145" stroke-width="1" stroke="#1e293b"></rect><rect width="10" height="10" x="668" y="153" rx="4" ry="4" fill="#243145" stroke-width="1" stroke="#1e293b"></rect><rect width="10" height="10" x="668" y="166" rx="4" ry="4" fill="#243145" stroke-width="1" stroke="#1e293b"></rect><rect width="10" height="10" x="668" y="179" rx="4" ry="4" fill="#86efac" stroke-width="1" stroke="#1e293b"></rect><rect width="10" height="10" x="668" y="192" rx="4" ry="4" fill="#22c55e" stroke-width="1" stroke="#1e293b"></rect><rect width="10" height="10" x="681" y="114" rx="4" ry="4" fill="#243145" stroke-width="1" stroke="#1e293b"></rect><rect width="10" height="10" x="681" y="127" rx="4" ry="4" fill="#243145" stroke-width="1" stroke="#1e293b"></rect><rect width="10" height="10" x="681" y="140" rx="4" ry="4" fill="#243145" stroke-width="1" stroke="#1e293b"></rect><rect width="10" height="10" x="681" y="153" rx="4" ry="4" fill="#243145" stroke-width="1" stroke="#1e293b"></rect><rect width="10" height="10" x="681" y="166" rx="4" ry="4" fill="#243145" stroke-width="1" stroke="#1e293b"></rect><rect width="10" height="10" x="681" y="179" rx="4" ry="4" fill="#243145" stroke-width="1" stroke="#1e293b"></rect><rect width="10" height="10" x="681" y="192" rx="4" ry="4" fill="#243145" stroke-width="1" stroke="#1e293b"></rect><rect width="10" height="10" x="694" y="114" rx="4" ry="4" fill="#243145" stroke-width="1" stroke="#1e293b"></rect><rect width="10" height="10" x="694" y="127" rx="4" ry="4" fill="#243145" stroke-width="1" stroke="#1e293b"></rect><rect width="10" height="10" x="694" y="140" rx="4" ry="4" fill="#243145" stroke-width="1" stroke="#1e293b"></rect><rect width="10" height="10" x="694" y="153" rx="4" ry="4" fill="#243145" stroke-width="1" stroke="#1e293b"></rect><rect width="10" height="10" x="694" y="166" rx="4" ry="4" fill="#243145" stroke-width="1" stroke="#1e293b"></rect><rect width="10" height="10" x="694" y="179" rx="4" ry="4" fill="#243145" stroke-width="1" stroke="#1e293b"></rect><rect width="10" height="10" x="694" y="192" rx="4" ry="4" fill="#243145" stroke-width="1" stroke="#1e293b"></rect><rect width="10" height="10" x="707" y="114" rx="4" ry="4" fill="#243145" stroke-width="1" stroke="#1e293b"></rect><rect width="10" height="10" x="707" y="127" rx="4" ry="4" fill="#243145" stroke-width="1" stroke="#1e293b"></rect><text x="707" y="117.1015625" font-size="10" font-family="DejaVu Sans" font-weight="400" fill="#64748b" svgjs:data="{&quot;leading&quot;:&quot;1.3&quot;}">Apr</text><rect width="10" height="10" x="707" y="140" rx="4" ry="4" fill="#243145" stroke-width="1" stroke="#1e293b"></rect><rect width="10" height="10" x="707" y="153" rx="4" ry="4" fill="#243145" stroke-width="1" stroke="#1e293b"></rect><rect width="10" height="10" x="707" y="166" rx="4" ry="4" fill="#243145" stroke-width="1" stroke="#1e293b"></rect><rect width="10" height="10" x="707" y="179" rx="4" ry="4" fill="#243145" stroke-width="1" stroke="#1e293b"></rect><rect width="10" height="10" x="707" y="192" rx="4" ry="4" fill="#243145" stroke-width="1" stroke="#1e293b"></rect><rect width="10" height="10" x="720" y="114" rx="4" ry="4" fill="#243145" stroke-width="1" stroke="#1e293b"></rect><rect width="10" height="10" x="720" y="127" rx="4" ry="4" fill="#243145" stroke-width="1" stroke="#1e293b"></rect><rect width="10" height="10" x="720" y="140" rx="4" ry="4" fill="#243145" stroke-width="1" stroke="#1e293b"></rect><rect width="10" height="10" x="720" y="153" rx="4" ry="4" fill="#243145" stroke-width="1" stroke="#1e293b"></rect><rect width="10" height="10" x="720" y="166" rx="4" ry="4" fill="#243145" stroke-width="1" stroke="#1e293b"></rect><rect width="10" height="10" x="720" y="179" rx="4" ry="4" fill="#243145" stroke-width="1" stroke="#1e293b"></rect><rect width="10" height="10" x="720" y="192" rx="4" ry="4" fill="#243145" stroke-width="1" stroke="#1e293b"></rect><rect width="10" height="10" x="733" y="114" rx="4" ry="4" fill="#243145" stroke-width="1" stroke="#1e293b"></rect><rect width="10" height="10" x="733" y="127" rx="4" ry="4" fill="#243145" stroke-width="1" stroke="#1e293b"></rect><rect width="10" height="10" x="733" y="140" rx="4" ry="4" fill="#243145" stroke-width="1" stroke="#1e293b"></rect><rect width="10" height="10" x="733" y="153" rx="4" ry="4" fill="#243145" stroke-width="1" stroke="#1e293b"></rect><rect width="10" height="10" x="733" y="166" rx="4" ry="4" fill="#243145" stroke-width="1" stroke="#1e293b"></rect><rect width="10" height="10" x="733" y="179" rx="4" ry="4" fill="#243145" stroke-width="1" stroke="#1e293b"></rect><rect width="10" height="10" x="733" y="192" rx="4" ry="4" fill="#243145" stroke-width="1" stroke="#1e293b"></rect><rect width="10" height="10" x="746" y="114" rx="4" ry="4" fill="#243145" stroke-width="1" stroke="#1e293b"></rect><rect width="10" height="10" x="746" y="127" rx="4" ry="4" fill="#243145" stroke-width="1" stroke="#1e293b"></rect><rect width="10" height="10" x="746" y="140" rx="4" ry="4" fill="#243145" stroke-width="1" stroke="#1e293b"></rect><rect width="10" height="10" x="746" y="153" rx="4" ry="4" fill="#243145" stroke-width="1" stroke="#1e293b"></rect><rect width="10" height="10" x="746" y="166" rx="4" ry="4" fill="#243145" stroke-width="1" stroke="#1e293b"></rect><rect width="10" height="10" x="746" y="179" rx="4" ry="4" fill="#243145" stroke-width="1" stroke="#1e293b"></rect><rect width="10" height="10" x="746" y="192" rx="4" ry="4" fill="#243145" stroke-width="1" stroke="#1e293b"></rect><rect width="10" height="10" x="759" y="114" rx="4" ry="4" fill="#243145" stroke-width="1" stroke="#1e293b"></rect><rect width="10" height="10" x="759" y="127" rx="4" ry="4" fill="#243145" stroke-width="1" stroke="#1e293b"></rect><rect width="10" height="10" x="759" y="140" rx="4" ry="4" fill="#243145" stroke-width="1" stroke="#1e293b"></rect><rect width="10" height="10" x="759" y="153" rx="4" ry="4" fill="#243145" stroke-width="1" stroke="#1e293b"></rect><text x="759" y="117.1015625" font-size="10" font-family="DejaVu Sans" font-weight="400" fill="#64748b" svgjs:data="{&quot;leading&quot;:&quot;1.3&quot;}">May</text><rect width="10" height="10" x="759" y="166" rx="4" ry="4" fill="#243145" stroke-width="1" stroke="#1e293b"></rect><rect width="10" height="10" x="759" y="179" rx="4" ry="4" fill="#243145" stroke-width="1" stroke="#1e293b"></rect><rect width="10" height="10" x="759" y="192" rx="4" ry="4" fill="#243145" stroke-width="1" stroke="#1e293b"></rect><text x="720" y="67.1015625" font-size="10" font-family="DejaVu Sans" font-weight="400" fill="#94a3b8" svgjs:data="{&quot;leading&quot;:&quot;1.3&quot;}">Less</text><rect width="12" height="12" x="754" y="48" rx="4" ry="4" fill="#243145" stroke-width="1" stroke="#1e293b"></rect><rect width="12" height="12" x="772" y="48" rx="4" ry="4" fill="#123524" stroke-width="1" stroke="#1e293b"></rect><rect width="12" height="12" x="790" y="48" rx="4" ry="4" fill="#166534" stroke-width="1" stroke="#1e293b"></rect><rect width="12" height="12" x="808" y="48" rx="4" ry="4" fill="#22c55e" stroke-width="1" stroke="#1e293b"></rect><rect width="12" height="12" x="826" y="48" rx="4" ry="4" fill="#86efac" stroke-width="1" stroke="#1e293b"></rect><text x="850" y="67.1015625" font-size="10" font-family="DejaVu Sans" font-weight="400" fill="#94a3b8" svgjs:data="{&quot;leading&quot;:&quot;1.3&quot;}">More</text></svg>