<svg xmlns="http://www.w3.org/2000/svg" version="1.1" xmlns:xlink="http://www.w3.org/1999/xlink" xmlns:svgjs="http://svgjs.dev/svgjs" width="960" height="240" viewBox="0 0 960 240"><rect width="960" height="240" fill="#0f172a"></rect><text x="40" y="41.1015625" font-size="24" font-family="Segoe UI" font-weight="700" fill="#f8fafc" svgjs:data="{&quot;leading&quot;:&quot;1.3&quot;}"><tspan dy="0" x="40" svgjs:data="{&quot;newLined&quot;:true}">Activity Heatmap</tspan></text><text x="40" y="73.1015625" font-size="12" font-family="Segoe UI" fill="#94a3b8" svgjs:data="{&quot;leading&quot;:&quot;1.3&quot;}"><tspan dy="0" x="40" svgjs:data="{&quot;newLined&quot;:true}">Daily activity score across the last 52 weeks.</tspan></text><text x="24" y="115.1015625" font-size="11" font-family="Segoe UI" fill="#64748b" svgjs:data="{&quot;leading&quot;:&quot;1.3&quot;}"><tspan dy="0" x="24" svgjs:data="{&quot;newLined&quot;:true}">Mon</tspan></text><text x="24" y="147.1015625" font-size="11" font-family="Segoe UI" fill="#64748b" svgjs:data="{&quot;leading&quot;:&quot;1.3&quot;}"><tspan dy="0" x="24" svgjs:data="{&quot;newLined&quot;:true}">Wed</tspan></text><text x="24" y="179.1015625" font-size="11" font-family="Segoe UI" fill="#64748b" svgjs:data="{&quot;leading&quot;:&quot;1.3&quot;}"><tspan dy="0" x="24" svgjs:data="{&quot;newLined&quot;:true}">Fri</tspan></text><rect width="12" height="12" x="72" y="96" rx="4" ry="4" fill="#0f172a" stroke-width="1" stroke="#1e293b"></rect><rect width="12" height="12" x="72" y="112" rx="4" ry="4" fill="#0f172a" stroke-width="1" stroke="#1e293b"></rect><rect width="12" height="12" x="72" y="128" rx="4" ry="4" fill="#0f172a" stroke-width="1" stroke="#1e293b"></rect><rect width="12" height="12" x="72" y="144" rx="4" ry="4" fill="#0f172a" stroke-width="1" stroke="#1e293b"></rect><rect width="12" height="12" x="72" y="160" rx="4" ry="4" fill="#0f172a" stroke-width="1" stroke="#1e293b"></rect><rect width="12" height="12" x="72" y="176" rx="4" ry="4" fill="#0f172a" stroke-width="1" stroke="#1e293b"></rect><rect width="12" height="12" x="72" y="192" rx="4" ry="4" fill="#0f172a" stroke-width="1" stroke="#1e293b"></rect><rect width="12" height="12" x="88" y="96" rx="4" ry="4" fill="#0f172a" stroke-width="1" stroke="#1e293b"></rect><rect width="12" height="12" x="88" y="112" rx="4" ry="4" fill="#0f172a" stroke-width="1" stroke="#1e293b"></rect><rect width="12" height="12" x="88" y="128" rx="4" ry="4" fill="#0f172a" stroke-width="1" stroke="#1e293b"></rect><rect width="12" height="12" x="88" y="144" rx="4" ry="4" fill="#0f172a" stroke-width="1" stroke="#1e293b"></rect><rect width="12" height="12" x="88" y="160" rx="4" ry="4" fill="#0f172a" stroke-width="1" stroke="#1e293b"></rect><rect width="12" height="12" x="88" y="176" rx="4" ry="4" fill="#0f172a" stroke-width="1" stroke="#1e293b"></rect><rect width="12" height="12" x="88" y="192" rx="4" ry="4" fill="#0f172a" stroke-width="1" stroke="#1e293b"></rect><rect width="12" height="12" x="104" y="96" rx="4" ry="4" fill="#0f172a" stroke-width="1" stroke="#1e293b"></rect><rect width="12" height="12" x="104" y="112" rx="4" ry="4" fill="#0f172a" stroke-width="1" stroke="#1e293b"></rect><rect width="12" height="12" x="104" y="128" rx="4" ry="4" fill="#0f172a" stroke-width="1" stroke="#1e293b"></rect><rect width="12" height="12" x="104" y="144" rx="4" ry="4" fill="#0f172a" stroke-width="1" stroke="#1e293b"></rect><rect width="12" height="12" x="104" y="160" rx="4" ry="4" fill="#0f172a" stroke-width="1" stroke="#1e293b"></rect><rect width="12" height="12" x="104" y="176" rx="4" ry="4" fill="#0f172a" stroke-width="1" stroke="#1e293b"></rect><rect width="12" height="12" x="104" y="192" rx="4" ry="4" fill="#0f172a" stroke-width="1" stroke="#1e293b"></rect><rect width="12" height="12" x="120" y="96" rx="4" ry="4" fill="#0f172a" stroke-width="1" stroke="#1e293b"></rect><rect width="12" height="12" x="120" y="112" rx="4" ry="4" fill="#0f172a" stroke-width="1" stroke="#1e293b"></rect><text x="120" y="95.1015625" font-size="11" font-family="Segoe UI" fill="#64748b" svgjs:data="{&quot;leading&quot;:&quot;1.3&quot;}"><tspan dy="0" x="120" svgjs:data="{&quot;newLined&quot;:true}">Apr</tspan></text><rect width="12" height="12" x="120" y="128" rx="4" ry="4" fill="#0f172a" stroke-width="1" stroke="#1e293b"></rect><rect width="12" height="12" x="120" y="144" rx="4" ry="4" fill="#0f172a" stroke-width="1" stroke="#1e293b"></rect><rect width="12" height="12" x="120" y="160" rx="4" ry="4" fill="#0f172a" stroke-width="1" stroke="#1e293b"></rect><rect width="12" height="12" x="120" y="176" rx="4" ry="4" fill="#0f172a" stroke-width="1" stroke="#1e293b"></rect><rect width="12" height="12" x="120" y="192" rx="4" ry="4" fill="#0f172a" stroke-width="1" stroke="#1e293b"></rect><rect width="12" height="12" x="136" y="96" rx="4" ry="4" fill="#0f172a" stroke-width="1" stroke="#1e293b"></rect><rect width="12" height="12" x="136" y="112" rx="4" ry="4" fill="#0f172a" stroke-width="1" stroke="#1e293b"></rect><rect width="12" height="12" x="136" y="128" rx="4" ry="4" fill="#0f172a" stroke-width="1" stroke="#1e293b"></rect><rect width="12" height="12" x="136" y="144" rx="4" ry="4" fill="#0f172a" stroke-width="1" stroke="#1e293b"></rect><rect width="12" height="12" x="136" y="160" rx="4" ry="4" fill="#0f172a" stroke-width="1" stroke="#1e293b"></rect><rect width="12" height="12" x="136" y="176" rx="4" ry="4" fill="#0f172a" stroke-width="1" stroke="#1e293b"></rect><rect width="12" height="12" x="136" y="192" rx="4" ry="4" fill="#0f172a" stroke-width="1" stroke="#1e293b"></rect><rect width="12" height="12" x="152" y="96" rx="4" ry="4" fill="#0f172a" stroke-width="1" stroke="#1e293b"></rect><rect width="12" height="12" x="152" y="112" rx="4" ry="4" fill="#0f172a" stroke-width="1" stroke="#1e293b"></rect><rect width="12" height="12" x="152" y="128" rx="4" ry="4" fill="#0f172a" stroke-width="1" stroke="#1e293b"></rect><rect width="12" height="12" x="152" y="144" rx="4" ry="4" fill="#0f172a" stroke-width="1" stroke="#1e293b"></rect><rect width="12" height="12" x="152" y="160" rx="4" ry="4" fill="#0f172a" stroke-width="1" stroke="#1e293b"></rect><rect width="12" height="12" x="152" y="176" rx="4" ry="4" fill="#0f172a" stroke-width="1" stroke="#1e293b"></rect><rect width="12" height="12" x="152" y="192" rx="4" ry="4" fill="#0f172a" stroke-width="1" stroke="#1e293b"></rect><rect width="12" height="12" x="168" y="96" rx="4" ry="4" fill="#0f172a" stroke-width="1" stroke="#1e293b"></rect><rect width="12" height="12" x="168" y="112" rx="4" ry="4" fill="#0f172a" stroke-width="1" stroke="#1e293b"></rect><rect width="12" height="12" x="168" y="128" rx="4" ry="4" fill="#0f172a" stroke-width="1" stroke="#1e293b"></rect><rect width="12" height="12" x="168" y="144" rx="4" ry="4" fill="#0f172a" stroke-width="1" stroke="#1e293b"></rect><rect width="12" height="12" x="168" y="160" rx="4" ry="4" fill="#0f172a" stroke-width="1" stroke="#1e293b"></rect><rect width="12" height="12" x="168" y="176" rx="4" ry="4" fill="#0f172a" stroke-width="1" stroke="#1e293b"></rect><rect width="12" height="12" x="168" y="192" rx="4" ry="4" fill="#0f172a" stroke-width="1" stroke="#1e293b"></rect><rect width="12" height="12" x="184" y="96" rx="4" ry="4" fill="#0f172a" stroke-width="1" stroke="#1e293b"></rect><rect width="12" height="12" x="184" y="112" rx="4" ry="4" fill="#0f172a" stroke-width="1" stroke="#1e293b"></rect><rect width="12" height="12" x="184" y="128" rx="4" ry="4" fill="#0f172a" stroke-width="1" stroke="#1e293b"></rect><rect width="12" height="12" x="184" y="144" rx="4" ry="4" fill="#0f172a" stroke-width="1" stroke="#1e293b"></rect><text x="184" y="95.1015625" font-size="11" font-family="Segoe UI" fill="#64748b" svgjs:data="{&quot;leading&quot;:&quot;1.3&quot;}"><tspan dy="0" x="184" svgjs:data="{&quot;newLined&quot;:true}">May</tspan></text><rect width="12" height="12" x="184" y="160" rx="4" ry="4" fill="#0f172a" stroke-width="1" stroke="#1e293b"></rect><rect width="12" height="12" x="184" y="176" rx="4" ry="4" fill="#0f172a" stroke-width="1" stroke="#1e293b"></rect><rect width="12" height="12" x="184" y="192" rx="4" ry="4" fill="#0f172a" stroke-width="1" stroke="#1e293b"></rect><rect width="12" height="12" x="200" y="96" rx="4" ry="4" fill="#0f172a" stroke-width="1" stroke="#1e293b"></rect><rect width="12" height="12" x="200" y="112" rx="4" ry="4" fill="#0f172a" stroke-width="1" stroke="#1e293b"></rect><rect width="12" height="12" x="200" y="128" rx="4" ry="4" fill="#0f172a" stroke-width="1" stroke="#1e293b"></rect><rect width="12" height="12" x="200" y="144" rx="4" ry="4" fill="#0f172a" stroke-width="1" stroke="#1e293b"></rect><rect width="12" height="12" x="200" y="160" rx="4" ry="4" fill="#0f172a" stroke-width="1" stroke="#1e293b"></rect><rect width="12" height="12" x="200" y="176" rx="4" ry="4" fill="#0f172a" stroke-width="1" stroke="#1e293b"></rect><rect width="12" height="12" x="200" y="192" rx="4" ry="4" fill="#0f172a" stroke-width="1" stroke="#1e293b"></rect><rect width="12" height="12" x="216" y="96" rx="4" ry="4" fill="#0f172a" stroke-width="1" stroke="#1e293b"></rect><rect width="12" height="12" x="216" y="112" rx="4" ry="4" fill="#0f172a" stroke-width="1" stroke="#1e293b"></rect><rect width="12" height="12" x="216" y="128" rx="4" ry="4" fill="#0f172a" stroke-width="1" stroke="#1e293b"></rect><rect width="12" height="12" x="216" y="144" rx="4" ry="4" fill="#0f172a" stroke-width="1" stroke="#1e293b"></rect><rect width="12" height="12" x="216" y="160" rx="4" ry="4" fill="#0f172a" stroke-width="1" stroke="#1e293b"></rect><rect width="12" height="12" x="216" y="176" rx="4" ry="4" fill="#0f172a" stroke-width="1" stroke="#1e293b"></rect><rect width="12" height="12" x="216" y="192" rx="4" ry="4" fill="#0f172a" stroke-width="1" stroke="#1e293b"></rect><rect width="12" height="12" x="232" y="96" rx="4" ry="4" fill="#0f172a" stroke-width="1" stroke="#1e293b"></rect><rect width="12" height="12" x="232" y="112" rx="4" ry="4" fill="#0f172a" stroke-width="1" stroke="#1e293b"></rect><rect width="12" height="12" x="232" y="128" rx="4" ry="4" fill="#0f172a" stroke-width="1" stroke="#1e293b"></rect><rect width="12" height="12" x="232" y="144" rx="4" ry="4" fill="#0f172a" stroke-width="1" stroke="#1e293b"></rect><rect width="12" height="12" x="232" y="160" rx="4" ry="4" fill="#0f172a" stroke-width="1" stroke="#1e293b"></rect><rect width="12" height="12" x="232" y="176" rx="4" ry="4" fill="#0f172a" stroke-width="1" stroke="#1e293b"></rect><rect width="12" height="12" x="232" y="192" rx="4" ry="4" fill="#0f172a" stroke-width="1" stroke="#1e293b"></rect><rect width="12" height="12" x="248" y="96" rx="4" ry="4" fill="#0f172a" stroke-width="1" stroke="#1e293b"></rect><rect width="12" height="12" x="248" y="112" rx="4" ry="4" fill="#0f172a" stroke-width="1" stroke="#1e293b"></rect><rect width="12" height="12" x="248" y="128" rx="4" ry="4" fill="#0f172a" stroke-width="1" stroke="#1e293b"></rect><rect width="12" height="12" x="248" y="144" rx="4" ry="4" fill="#0f172a" stroke-width="1" stroke="#1e293b"></rect><rect width="12" height="12" x="248" y="160" rx="4" ry="4" fill="#0f172a" stroke-width="1" stroke="#1e293b"></rect><rect width="12" height="12" x="248" y="176" rx="4" ry="4" fill="#0f172a" stroke-width="1" stroke="#1e293b"></rect><rect width="12" height="12" x="248" y="192" rx="4" ry="4" fill="#0f172a" stroke-width="1" stroke="#1e293b"></rect><text x="248" y="95.1015625" font-size="11" font-family="Segoe UI" fill="#64748b" svgjs:data="{&quot;leading&quot;:&quot;1.3&quot;}"><tspan dy="0" x="248" svgjs:data="{&quot;newLined&quot;:true}">Jun</tspan></text><rect width="12" height="12" x="264" y="96" rx="4" ry="4" fill="#0f172a" stroke-width="1" stroke="#1e293b"></rect><rect width="12" height="12" x="264" y="112" rx="4" ry="4" fill="#0f172a" stroke-width="1" stroke="#1e293b"></rect><rect width="12" height="12" x="264" y="128" rx="4" ry="4" fill="#0f172a" stroke-width="1" stroke="#1e293b"></rect><rect width="12" height="12" x="264" y="144" rx="4" ry="4" fill="#0f172a" stroke-width="1" stroke="#1e293b"></rect><rect width="12" height="12" x="264" y="160" rx="4" ry="4" fill="#0f172a" stroke-width="1" stroke="#1e293b"></rect><rect width="12" height="12" x="264" y="176" rx="4" ry="4" fill="#0f172a" stroke-width="1" stroke="#1e293b"></rect><rect width="12" height="12" x="264" y="192" rx="4" ry="4" fill="#0f172a" stroke-width="1" stroke="#1e293b"></rect><rect width="12" height="12" x="280" y="96" rx="4" ry="4" fill="#0f172a" stroke-width="1" stroke="#1e293b"></rect><rect width="12" height="12" x="280" y="112" rx="4" ry="4" fill="#0f172a" stroke-width="1" stroke="#1e293b"></rect><rect width="12" height="12" x="280" y="128" rx="4" ry="4" fill="#0f172a" stroke-width="1" stroke="#1e293b"></rect><rect width="12" height="12" x="280" y="144" rx="4" ry="4" fill="#0f172a" stroke-width="1" stroke="#1e293b"></rect><rect width="12" height="12" x="280" y="160" rx="4" ry="4" fill="#0f172a" stroke-width="1" stroke="#1e293b"></rect><rect width="12" height="12" x="280" y="176" rx="4" ry="4" fill="#0f172a" stroke-width="1" stroke="#1e293b"></rect><rect width="12" height="12" x="280" y="192" rx="4" ry="4" fill="#0f172a" stroke-width="1" stroke="#1e293b"></rect><rect width="12" height="12" x="296" y="96" rx="4" ry="4" fill="#0f172a" stroke-width="1" stroke="#1e293b"></rect><rect width="12" height="12" x="296" y="112" rx="4" ry="4" fill="#0f172a" stroke-width="1" stroke="#1e293b"></rect><rect width="12" height="12" x="296" y="128" rx="4" ry="4" fill="#0f172a" stroke-width="1" stroke="#1e293b"></rect><rect width="12" height="12" x="296" y="144" rx="4" ry="4" fill="#0f172a" stroke-width="1" stroke="#1e293b"></rect><rect width="12" height="12" x="296" y="160" rx="4" ry="4" fill="#0f172a" stroke-width="1" stroke="#1e293b"></rect><rect width="12" height="12" x="296" y="176" rx="4" ry="4" fill="#0f172a" stroke-width="1" stroke="#1e293b"></rect><rect width="12" height="12" x="296" y="192" rx="4" ry="4" fill="#0f172a" stroke-width="1" stroke="#1e293b"></rect><rect width="12" height="12" x="312" y="96" rx="4" ry="4" fill="#0f172a" stroke-width="1" stroke="#1e293b"></rect><rect width="12" height="12" x="312" y="112" rx="4" ry="4" fill="#0f172a" stroke-width="1" stroke="#1e293b"></rect><rect width="12" height="12" x="312" y="128" rx="4" ry="4" fill="#0f172a" stroke-width="1" stroke="#1e293b"></rect><rect width="12" height="12" x="312" y="144" rx="4" ry="4" fill="#0f172a" stroke-width="1" stroke="#1e293b"></rect><rect width="12" height="12" x="312" y="160" rx="4" ry="4" fill="#0f172a" stroke-width="1" stroke="#1e293b"></rect><rect width="12" height="12" x="312" y="176" rx="4" ry="4" fill="#0f172a" stroke-width="1" stroke="#1e293b"></rect><rect width="12" height="12" x="312" y="192" rx="4" ry="4" fill="#0f172a" stroke-width="1" stroke="#1e293b"></rect><rect width="12" height="12" x="328" y="96" rx="4" ry="4" fill="#0f172a" stroke-width="1" stroke="#1e293b"></rect><rect width="12" height="12" x="328" y="112" rx="4" ry="4" fill="#0f172a" stroke-width="1" stroke="#1e293b"></rect><text x="328" y="95.1015625" font-size="11" font-family="Segoe UI" fill="#64748b" svgjs:data="{&quot;leading&quot;:&quot;1.3&quot;}"><tspan dy="0" x="328" svgjs:data="{&quot;newLined&quot;:true}">Jul</tspan></text><rect width="12" height="12" x="328" y="128" rx="4" ry="4" fill="#0f172a" stroke-width="1" stroke="#1e293b"></rect><rect width="12" height="12" x="328" y="144" rx="4" ry="4" fill="#0f172a" stroke-width="1" stroke="#1e293b"></rect><rect width="12" height="12" x="328" y="160" rx="4" ry="4" fill="#0f172a" stroke-width="1" stroke="#1e293b"></rect><rect width="12" height="12" x="328" y="176" rx="4" ry="4" fill="#0f172a" stroke-width="1" stroke="#1e293b"></rect><rect width="12" height="12" x="328" y="192" rx="4" ry="4" fill="#0f172a" stroke-width="1" stroke="#1e293b"></rect><rect width="12" height="12" x="344" y="96" rx="4" ry="4" fill="#0f172a" stroke-width="1" stroke="#1e293b"></rect><rect width="12" height="12" x="344" y="112" rx="4" ry="4" fill="#0f172a" stroke-width="1" stroke="#1e293b"></rect><rect width="12" height="12" x="344" y="128" rx="4" ry="4" fill="#0f172a" stroke-width="1" stroke="#1e293b"></rect><rect width="12" height="12" x="344" y="144" rx="4" ry="4" fill="#0f172a" stroke-width="1" stroke="#1e293b"></rect><rect width="12" height="12" x="344" y="160" rx="4" ry="4" fill="#0f172a" stroke-width="1" stroke="#1e293b"></rect><rect width="12" height="12" x="344" y="176" rx="4" ry="4" fill="#0f172a" stroke-width="1" stroke="#1e293b"></rect><rect width="12" height="12" x="344" y="192" rx="4" ry="4" fill="#0f172a" stroke-width="1" stroke="#1e293b"></rect><rect width="12" height="12" x="360" y="96" rx="4" ry="4" fill="#0f172a" stroke-width="1" stroke="#1e293b"></rect><rect width="12" height="12" x="360" y="112" rx="4" ry="4" fill="#0f172a" stroke-width="1" stroke="#1e293b"></rect><rect width="12" height="12" x="360" y="128" rx="4" ry="4" fill="#0f172a" stroke-width="1" stroke="#1e293b"></rect><rect width="12" height="12" x="360" y="144" rx="4" ry="4" fill="#0f172a" stroke-width="1" stroke="#1e293b"></rect><rect width="12" height="12" x="360" y="160" rx="4" ry="4" fill="#0f172a" stroke-width="1" stroke="#1e293b"></rect><rect width="12" height="12" x="360" y="176" rx="4" ry="4" fill="#0f172a" stroke-width="1" stroke="#1e293b"></rect><rect width="12" height="12" x="360" y="192" rx="4" ry="4" fill="#0f172a" stroke-width="1" stroke="#1e293b"></rect><rect width="12" height="12" x="376" y="96" rx="4" ry="4" fill="#0f172a" stroke-width="1" stroke="#1e293b"></rect><rect width="12" height="12" x="376" y="112" rx="4" ry="4" fill="#123524" stroke-width="1" stroke="#1e293b"></rect><rect width="12" height="12" x="376" y="128" rx="4" ry="4" fill="#0f172a" stroke-width="1" stroke="#1e293b"></rect><rect width="12" height="12" x="376" y="144" rx="4" ry="4" fill="#0f172a" stroke-width="1" stroke="#1e293b"></rect><rect width="12" height="12" x="376" y="160" rx="4" ry="4" fill="#0f172a" stroke-width="1" stroke="#1e293b"></rect><rect width="12" height="12" x="376" y="176" rx="4" ry="4" fill="#0f172a" stroke-width="1" stroke="#1e293b"></rect><rect width="12" height="12" x="376" y="192" rx="4" ry="4" fill="#0f172a" stroke-width="1" stroke="#1e293b"></rect><rect width="12" height="12" x="392" y="96" rx="4" ry="4" fill="#0f172a" stroke-width="1" stroke="#1e293b"></rect><rect width="12" height="12" x="392" y="112" rx="4" ry="4" fill="#0f172a" stroke-width="1" stroke="#1e293b"></rect><rect width="12" height="12" x="392" y="128" rx="4" ry="4" fill="#0f172a" stroke-width="1" stroke="#1e293b"></rect><rect width="12" height="12" x="392" y="144" rx="4" ry="4" fill="#0f172a" stroke-width="1" stroke="#1e293b"></rect><rect width="12" height="12" x="392" y="160" rx="4" ry="4" fill="#0f172a" stroke-width="1" stroke="#1e293b"></rect><text x="392" y="95.1015625" font-size="11" font-family="Segoe UI" fill="#64748b" svgjs:data="{&quot;leading&quot;:&quot;1.3&quot;}"><tspan dy="0" x="392" svgjs:data="{&quot;newLined&quot;:true}">Aug</tspan></text><rect width="12" height="12" x="392" y="176" rx="4" ry="4" fill="#0f172a" stroke-width="1" stroke="#1e293b"></rect><rect width="12" height="12" x="392" y="192" rx="4" ry="4" fill="#0f172a" stroke-width="1" stroke="#1e293b"></rect><rect width="12" height="12" x="408" y="96" rx="4" ry="4" fill="#0f172a" stroke-width="1" stroke="#1e293b"></rect><rect width="12" height="12" x="408" y="112" rx="4" ry="4" fill="#0f172a" stroke-width="1" stroke="#1e293b"></rect><rect width="12" height="12" x="408" y="128" rx="4" ry="4" fill="#0f172a" stroke-width="1" stroke="#1e293b"></rect><rect width="12" height="12" x="408" y="144" rx="4" ry="4" fill="#0f172a" stroke-width="1" stroke="#1e293b"></rect><rect width="12" height="12" x="408" y="160" rx="4" ry="4" fill="#0f172a" stroke-width="1" stroke="#1e293b"></rect><rect width="12" height="12" x="408" y="176" rx="4" ry="4" fill="#0f172a" stroke-width="1" stroke="#1e293b"></rect><rect width="12" height="12" x="408" y="192" rx="4" ry="4" fill="#0f172a" stroke-width="1" stroke="#1e293b"></rect><rect width="12" height="12" x="424" y="96" rx="4" ry="4" fill="#0f172a" stroke-width="1" stroke="#1e293b"></rect><rect width="12" height="12" x="424" y="112" rx="4" ry="4" fill="#0f172a" stroke-width="1" stroke="#1e293b"></rect><rect width="12" height="12" x="424" y="128" rx="4" ry="4" fill="#0f172a" stroke-width="1" stroke="#1e293b"></rect><rect width="12" height="12" x="424" y="144" rx="4" ry="4" fill="#0f172a" stroke-width="1" stroke="#1e293b"></rect><rect width="12" height="12" x="424" y="160" rx="4" ry="4" fill="#0f172a" stroke-width="1" stroke="#1e293b"></rect><rect width="12" height="12" x="424" y="176" rx="4" ry="4" fill="#0f172a" stroke-width="1" stroke="#1e293b"></rect><rect width="12" height="12" x="424" y="192" rx="4" ry="4" fill="#0f172a" stroke-width="1" stroke="#1e293b"></rect><rect width="12" height="12" x="440" y="96" rx="4" ry="4" fill="#0f172a" stroke-width="1" stroke="#1e293b"></rect><rect width="12" height="12" x="440" y="112" rx="4" ry="4" fill="#0f172a" stroke-width="1" stroke="#1e293b"></rect><rect width="12" height="12" x="440" y="128" rx="4" ry="4" fill="#0f172a" stroke-width="1" stroke="#1e293b"></rect><rect width="12" height="12" x="440" y="144" rx="4" ry="4" fill="#0f172a" stroke-width="1" stroke="#1e293b"></rect><rect width="12" height="12" x="440" y="160" rx="4" ry="4" fill="#0f172a" stroke-width="1" stroke="#1e293b"></rect><rect width="12" height="12" x="440" y="176" rx="4" ry="4" fill="#0f172a" stroke-width="1" stroke="#1e293b"></rect><rect width="12" height="12" x="440" y="192" rx="4" ry="4" fill="#0f172a" stroke-width="1" stroke="#1e293b"></rect><rect width="12" height="12" x="456" y="96" rx="4" ry="4" fill="#0f172a" stroke-width="1" stroke="#1e293b"></rect><rect width="12" height="12" x="456" y="112" rx="4" ry="4" fill="#0f172a" stroke-width="1" stroke="#1e293b"></rect><rect width="12" height="12" x="456" y="128" rx="4" ry="4" fill="#0f172a" stroke-width="1" stroke="#1e293b"></rect><rect width="12" height="12" x="456" y="144" rx="4" ry="4" fill="#0f172a" stroke-width="1" stroke="#1e293b"></rect><rect width="12" height="12" x="456" y="160" rx="4" ry="4" fill="#0f172a" stroke-width="1" stroke="#1e293b"></rect><rect width="12" height="12" x="456" y="176" rx="4" ry="4" fill="#0f172a" stroke-width="1" stroke="#1e293b"></rect><rect width="12" height="12" x="456" y="192" rx="4" ry="4" fill="#0f172a" stroke-width="1" stroke="#1e293b"></rect><rect width="12" height="12" x="472" y="96" rx="4" ry="4" fill="#0f172a" stroke-width="1" stroke="#1e293b"></rect><text x="472" y="95.1015625" font-size="11" font-family="Segoe UI" fill="#64748b" svgjs:data="{&quot;leading&quot;:&quot;1.3&quot;}"><tspan dy="0" x="472" svgjs:data="{&quot;newLined&quot;:true}">Sep</tspan></text><rect width="12" height="12" x="472" y="112" rx="4" ry="4" fill="#0f172a" stroke-width="1" stroke="#1e293b"></rect><rect width="12" height="12" x="472" y="128" rx="4" ry="4" fill="#0f172a" stroke-width="1" stroke="#1e293b"></rect><rect width="12" height="12" x="472" y="144" rx="4" ry="4" fill="#0f172a" stroke-width="1" stroke="#1e293b"></rect><rect width="12" height="12" x="472" y="160" rx="4" ry="4" fill="#0f172a" stroke-width="1" stroke="#1e293b"></rect><rect width="12" height="12" x="472" y="176" rx="4" ry="4" fill="#0f172a" stroke-width="1" stroke="#1e293b"></rect><rect width="12" height="12" x="472" y="192" rx="4" ry="4" fill="#0f172a" stroke-width="1" stroke="#1e293b"></rect><rect width="12" height="12" x="488" y="96" rx="4" ry="4" fill="#0f172a" stroke-width="1" stroke="#1e293b"></rect><rect width="12" height="12" x="488" y="112" rx="4" ry="4" fill="#0f172a" stroke-width="1" stroke="#1e293b"></rect><rect width="12" height="12" x="488" y="128" rx="4" ry="4" fill="#0f172a" stroke-width="1" stroke="#1e293b"></rect><rect width="12" height="12" x="488" y="144" rx="4" ry="4" fill="#0f172a" stroke-width="1" stroke="#1e293b"></rect><rect width="12" height="12" x="488" y="160" rx="4" ry="4" fill="#0f172a" stroke-width="1" stroke="#1e293b"></rect><rect width="12" height="12" x="488" y="176" rx="4" ry="4" fill="#0f172a" stroke-width="1" stroke="#1e293b"></rect><rect width="12" height="12" x="488" y="192" rx="4" ry="4" fill="#0f172a" stroke-width="1" stroke="#1e293b"></rect><rect width="12" height="12" x="504" y="96" rx="4" ry="4" fill="#0f172a" stroke-width="1" stroke="#1e293b"></rect><rect width="12" height="12" x="504" y="112" rx="4" ry="4" fill="#0f172a" stroke-width="1" stroke="#1e293b"></rect><rect width="12" height="12" x="504" y="128" rx="4" ry="4" fill="#0f172a" stroke-width="1" stroke="#1e293b"></rect><rect width="12" height="12" x="504" y="144" rx="4" ry="4" fill="#0f172a" stroke-width="1" stroke="#1e293b"></rect><rect width="12" height="12" x="504" y="160" rx="4" ry="4" fill="#0f172a" stroke-width="1" stroke="#1e293b"></rect><rect width="12" height="12" x="504" y="176" rx="4" ry="4" fill="#0f172a" stroke-width="1" stroke="#1e293b"></rect><rect width="12" height="12" x="504" y="192" rx="4" ry="4" fill="#0f172a" stroke-width="1" stroke="#1e293b"></rect><rect width="12" height="12" x="520" y="96" rx="4" ry="4" fill="#0f172a" stroke-width="1" stroke="#1e293b"></rect><rect width="12" height="12" x="520" y="112" rx="4" ry="4" fill="#0f172a" stroke-width="1" stroke="#1e293b"></rect><rect width="12" height="12" x="520" y="128" rx="4" ry="4" fill="#0f172a" stroke-width="1" stroke="#1e293b"></rect><rect width="12" height="12" x="520" y="144" rx="4" ry="4" fill="#0f172a" stroke-width="1" stroke="#1e293b"></rect><rect width="12" height="12" x="520" y="160" rx="4" ry="4" fill="#0f172a" stroke-width="1" stroke="#1e293b"></rect><rect width="12" height="12" x="520" y="176" rx="4" ry="4" fill="#0f172a" stroke-width="1" stroke="#1e293b"></rect><rect width="12" height="12" x="520" y="192" rx="4" ry="4" fill="#0f172a" stroke-width="1" stroke="#1e293b"></rect><rect width="12" height="12" x="536" y="96" rx="4" ry="4" fill="#0f172a" stroke-width="1" stroke="#1e293b"></rect><rect width="12" height="12" x="536" y="112" rx="4" ry="4" fill="#0f172a" stroke-width="1" stroke="#1e293b"></rect><rect width="12" height="12" x="536" y="128" rx="4" ry="4" fill="#0f172a" stroke-width="1" stroke="#1e293b"></rect><text x="536" y="95.1015625" font-size="11" font-family="Segoe UI" fill="#64748b" svgjs:data="{&quot;leading&quot;:&quot;1.3&quot;}"><tspan dy="0" x="536" svgjs:data="{&quot;newLined&quot;:true}">Oct</tspan></text><rect width="12" height="12" x="536" y="144" rx="4" ry="4" fill="#0f172a" stroke-width="1" stroke="#1e293b"></rect><rect width="12" height="12" x="536" y="160" rx="4" ry="4" fill="#0f172a" stroke-width="1" stroke="#1e293b"></rect><rect width="12" height="12" x="536" y="176" rx="4" ry="4" fill="#0f172a" stroke-width="1" stroke="#1e293b"></rect><rect width="12" height="12" x="536" y="192" rx="4" ry="4" fill="#0f172a" stroke-width="1" stroke="#1e293b"></rect><rect width="12" height="12" x="552" y="96" rx="4" ry="4" fill="#0f172a" stroke-width="1" stroke="#1e293b"></rect><rect width="12" height="12" x="552" y="112" rx="4" ry="4" fill="#0f172a" stroke-width="1" stroke="#1e293b"></rect><rect width="12" height="12" x="552" y="128" rx="4" ry="4" fill="#0f172a" stroke-width="1" stroke="#1e293b"></rect><rect width="12" height="12" x="552" y="144" rx="4" ry="4" fill="#0f172a" stroke-width="1" stroke="#1e293b"></rect><rect width="12" height="12" x="552" y="160" rx="4" ry="4" fill="#0f172a" stroke-width="1" stroke="#1e293b"></rect><rect width="12" height="12" x="552" y="176" rx="4" ry="4" fill="#0f172a" stroke-width="1" stroke="#1e293b"></rect><rect width="12" height="12" x="552" y="192" rx="4" ry="4" fill="#0f172a" stroke-width="1" stroke="#1e293b"></rect><rect width="12" height="12" x="568" y="96" rx="4" ry="4" fill="#0f172a" stroke-width="1" stroke="#1e293b"></rect><rect width="12" height="12" x="568" y="112" rx="4" ry="4" fill="#0f172a" stroke-width="1" stroke="#1e293b"></rect><rect width="12" height="12" x="568" y="128" rx="4" ry="4" fill="#0f172a" stroke-width="1" stroke="#1e293b"></rect><rect width="12" height="12" x="568" y="144" rx="4" ry="4" fill="#0f172a" stroke-width="1" stroke="#1e293b"></rect><rect width="12" height="12" x="568" y="160" rx="4" ry="4" fill="#0f172a" stroke-width="1" stroke="#1e293b"></rect><rect width="12" height="12" x="568" y="176" rx="4" ry="4" fill="#0f172a" stroke-width="1" stroke="#1e293b"></rect><rect width="12" height="12" x="568" y="192" rx="4" ry="4" fill="#0f172a" stroke-width="1" stroke="#1e293b"></rect><rect width="12" height="12" x="584" y="96" rx="4" ry="4" fill="#0f172a" stroke-width="1" stroke="#1e293b"></rect><rect width="12" height="12" x="584" y="112" rx="4" ry="4" fill="#0f172a" stroke-width="1" stroke="#1e293b"></rect><rect width="12" height="12" x="584" y="128" rx="4" ry="4" fill="#0f172a" stroke-width="1" stroke="#1e293b"></rect><rect width="12" height="12" x="584" y="144" rx="4" ry="4" fill="#0f172a" stroke-width="1" stroke="#1e293b"></rect><rect width="12" height="12" x="584" y="160" rx="4" ry="4" fill="#0f172a" stroke-width="1" stroke="#1e293b"></rect><rect width="12" height="12" x="584" y="176" rx="4" ry="4" fill="#0f172a" stroke-width="1" stroke="#1e293b"></rect><rect width="12" height="12" x="584" y="192" rx="4" ry="4" fill="#0f172a" stroke-width="1" stroke="#1e293b"></rect><rect width="12" height="12" x="600" y="96" rx="4" ry="4" fill="#0f172a" stroke-width="1" stroke="#1e293b"></rect><rect width="12" height="12" x="600" y="112" rx="4" ry="4" fill="#0f172a" stroke-width="1" stroke="#1e293b"></rect><rect width="12" height="12" x="600" y="128" rx="4" ry="4" fill="#0f172a" stroke-width="1" stroke="#1e293b"></rect><rect width="12" height="12" x="600" y="144" rx="4" ry="4" fill="#0f172a" stroke-width="1" stroke="#1e293b"></rect><rect width="12" height="12" x="600" y="160" rx="4" ry="4" fill="#0f172a" stroke-width="1" stroke="#1e293b"></rect><rect width="12" height="12" x="600" y="176" rx="4" ry="4" fill="#0f172a" stroke-width="1" stroke="#1e293b"></rect><text x="600" y="95.1015625" font-size="11" font-family="Segoe UI" fill="#64748b" svgjs:data="{&quot;leading&quot;:&quot;1.3&quot;}"><tspan dy="0" x="600" svgjs:data="{&quot;newLined&quot;:true}">Nov</tspan></text><rect width="12" height="12" x="600" y="192" rx="4" ry="4" fill="#0f172a" stroke-width="1" stroke="#1e293b"></rect><rect width="12" height="12" x="616" y="96" rx="4" ry="4" fill="#0f172a" stroke-width="1" stroke="#1e293b"></rect><rect width="12" height="12" x="616" y="112" rx="4" ry="4" fill="#0f172a" stroke-width="1" stroke="#1e293b"></rect><rect width="12" height="12" x="616" y="128" rx="4" ry="4" fill="#0f172a" stroke-width="1" stroke="#1e293b"></rect><rect width="12" height="12" x="616" y="144" rx="4" ry="4" fill="#0f172a" stroke-width="1" stroke="#1e293b"></rect><rect width="12" height="12" x="616" y="160" rx="4" ry="4" fill="#0f172a" stroke-width="1" stroke="#1e293b"></rect><rect width="12" height="12" x="616" y="176" rx="4" ry="4" fill="#0f172a" stroke-width="1" stroke="#1e293b"></rect><rect width="12" height="12" x="616" y="192" rx="4" ry="4" fill="#0f172a" stroke-width="1" stroke="#1e293b"></rect><rect width="12" height="12" x="632" y="96" rx="4" ry="4" fill="#0f172a" stroke-width="1" stroke="#1e293b"></rect><rect width="12" height="12" x="632" y="112" rx="4" ry="4" fill="#0f172a" stroke-width="1" stroke="#1e293b"></rect><rect width="12" height="12" x="632" y="128" rx="4" ry="4" fill="#0f172a" stroke-width="1" stroke="#1e293b"></rect><rect width="12" height="12" x="632" y="144" rx="4" ry="4" fill="#0f172a" stroke-width="1" stroke="#1e293b"></rect><rect width="12" height="12" x="632" y="160" rx="4" ry="4" fill="#0f172a" stroke-width="1" stroke="#1e293b"></rect><rect width="12" height="12" x="632" y="176" rx="4" ry="4" fill="#0f172a" stroke-width="1" stroke="#1e293b"></rect><rect width="12" height="12" x="632" y="192" rx="4" ry="4" fill="#0f172a" stroke-width="1" stroke="#1e293b"></rect><rect width="12" height="12" x="648" y="96" rx="4" ry="4" fill="#0f172a" stroke-width="1" stroke="#1e293b"></rect><rect width="12" height="12" x="648" y="112" rx="4" ry="4" fill="#0f172a" stroke-width="1" stroke="#1e293b"></rect><rect width="12" height="12" x="648" y="128" rx="4" ry="4" fill="#0f172a" stroke-width="1" stroke="#1e293b"></rect><rect width="12" height="12" x="648" y="144" rx="4" ry="4" fill="#0f172a" stroke-width="1" stroke="#1e293b"></rect><rect width="12" height="12" x="648" y="160" rx="4" ry="4" fill="#0f172a" stroke-width="1" stroke="#1e293b"></rect><rect width="12" height="12" x="648" y="176" rx="4" ry="4" fill="#0f172a" stroke-width="1" stroke="#1e293b"></rect><rect width="12" height="12" x="648" y="192" rx="4" ry="4" fill="#0f172a" stroke-width="1" stroke="#1e293b"></rect><rect width="12" height="12" x="664" y="96" rx="4" ry="4" fill="#0f172a" stroke-width="1" stroke="#1e293b"></rect><rect width="12" height="12" x="664" y="112" rx="4" ry="4" fill="#0f172a" stroke-width="1" stroke="#1e293b"></rect><rect width="12" height="12" x="664" y="128" rx="4" ry="4" fill="#0f172a" stroke-width="1" stroke="#1e293b"></rect><rect width="12" height="12" x="664" y="144" rx="4" ry="4" fill="#0f172a" stroke-width="1" stroke="#1e293b"></rect><rect width="12" height="12" x="664" y="160" rx="4" ry="4" fill="#0f172a" stroke-width="1" stroke="#1e293b"></rect><rect width="12" height="12" x="664" y="176" rx="4" ry="4" fill="#0f172a" stroke-width="1" stroke="#1e293b"></rect><rect width="12" height="12" x="664" y="192" rx="4" ry="4" fill="#0f172a" stroke-width="1" stroke="#1e293b"></rect><rect width="12" height="12" x="680" y="96" rx="4" ry="4" fill="#0f172a" stroke-width="1" stroke="#1e293b"></rect><text x="680" y="95.1015625" font-size="11" font-family="Segoe UI" fill="#64748b" svgjs:data="{&quot;leading&quot;:&quot;1.3&quot;}"><tspan dy="0" x="680" svgjs:data="{&quot;newLined&quot;:true}">Dec</tspan></text><rect width="12" height="12" x="680" y="112" rx="4" ry="4" fill="#0f172a" stroke-width="1" stroke="#1e293b"></rect><rect width="12" height="12" x="680" y="128" rx="4" ry="4" fill="#0f172a" stroke-width="1" stroke="#1e293b"></rect><rect width="12" height="12" x="680" y="144" rx="4" ry="4" fill="#0f172a" stroke-width="1" stroke="#1e293b"></rect><rect width="12" height="12" x="680" y="160" rx="4" ry="4" fill="#0f172a" stroke-width="1" stroke="#1e293b"></rect><rect width="12" height="12" x="680" y="176" rx="4" ry="4" fill="#0f172a" stroke-width="1" stroke="#1e293b"></rect><rect width="12" height="12" x="680" y="192" rx="4" ry="4" fill="#0f172a" stroke-width="1" stroke="#1e293b"></rect><rect width="12" height="12" x="696" y="96" rx="4" ry="4" fill="#0f172a" stroke-width="1" stroke="#1e293b"></rect><rect width="12" height="12" x="696" y="112" rx="4" ry="4" fill="#0f172a" stroke-width="1" stroke="#1e293b"></rect><rect width="12" height="12" x="696" y="128" rx="4" ry="4" fill="#0f172a" stroke-width="1" stroke="#1e293b"></rect><rect width="12" height="12" x="696" y="144" rx="4" ry="4" fill="#0f172a" stroke-width="1" stroke="#1e293b"></rect><rect width="12" height="12" x="696" y="160" rx="4" ry="4" fill="#0f172a" stroke-width="1" stroke="#1e293b"></rect><rect width="12" height="12" x="696" y="176" rx="4" ry="4" fill="#0f172a" stroke-width="1" stroke="#1e293b"></rect><rect width="12" height="12" x="696" y="192" rx="4" ry="4" fill="#0f172a" stroke-width="1" stroke="#1e293b"></rect><rect width="12" height="12" x="712" y="96" rx="4" ry="4" fill="#0f172a" stroke-width="1" stroke="#1e293b"></rect><rect width="12" height="12" x="712" y="112" rx="4" ry="4" fill="#0f172a" stroke-width="1" stroke="#1e293b"></rect><rect width="12" height="12" x="712" y="128" rx="4" ry="4" fill="#0f172a" stroke-width="1" stroke="#1e293b"></rect><rect width="12" height="12" x="712" y="144" rx="4" ry="4" fill="#0f172a" stroke-width="1" stroke="#1e293b"></rect><rect width="12" height="12" x="712" y="160" rx="4" ry="4" fill="#0f172a" stroke-width="1" stroke="#1e293b"></rect><rect width="12" height="12" x="712" y="176" rx="4" ry="4" fill="#0f172a" stroke-width="1" stroke="#1e293b"></rect><rect width="12" height="12" x="712" y="192" rx="4" ry="4" fill="#0f172a" stroke-width="1" stroke="#1e293b"></rect><rect width="12" height="12" x="728" y="96" rx="4" ry="4" fill="#0f172a" stroke-width="1" stroke="#1e293b"></rect><rect width="12" height="12" x="728" y="112" rx="4" ry="4" fill="#0f172a" stroke-width="1" stroke="#1e293b"></rect><rect width="12" height="12" x="728" y="128" rx="4" ry="4" fill="#0f172a" stroke-width="1" stroke="#1e293b"></rect><rect width="12" height="12" x="728" y="144" rx="4" ry="4" fill="#0f172a" stroke-width="1" stroke="#1e293b"></rect><rect width="12" height="12" x="728" y="160" rx="4" ry="4" fill="#0f172a" stroke-width="1" stroke="#1e293b"></rect><rect width="12" height="12" x="728" y="176" rx="4" ry="4" fill="#0f172a" stroke-width="1" stroke="#1e293b"></rect><rect width="12" height="12" x="728" y="192" rx="4" ry="4" fill="#0f172a" stroke-width="1" stroke="#1e293b"></rect><rect width="12" height="12" x="744" y="96" rx="4" ry="4" fill="#0f172a" stroke-width="1" stroke="#1e293b"></rect><rect width="12" height="12" x="744" y="112" rx="4" ry="4" fill="#0f172a" stroke-width="1" stroke="#1e293b"></rect><rect width="12" height="12" x="744" y="128" rx="4" ry="4" fill="#0f172a" stroke-width="1" stroke="#1e293b"></rect><rect width="12" height="12" x="744" y="144" rx="4" ry="4" fill="#0f172a" stroke-width="1" stroke="#1e293b"></rect><text x="744" y="95.1015625" font-size="11" font-family="Segoe UI" fill="#64748b" svgjs:data="{&quot;leading&quot;:&quot;1.3&quot;}"><tspan dy="0" x="744" svgjs:data="{&quot;newLined&quot;:true}">Jan</tspan></text><rect width="12" height="12" x="744" y="160" rx="4" ry="4" fill="#0f172a" stroke-width="1" stroke="#1e293b"></rect><rect width="12" height="12" x="744" y="176" rx="4" ry="4" fill="#0f172a" stroke-width="1" stroke="#1e293b"></rect><rect width="12" height="12" x="744" y="192" rx="4" ry="4" fill="#0f172a" stroke-width="1" stroke="#1e293b"></rect><rect width="12" height="12" x="760" y="96" rx="4" ry="4" fill="#0f172a" stroke-width="1" stroke="#1e293b"></rect><rect width="12" height="12" x="760" y="112" rx="4" ry="4" fill="#0f172a" stroke-width="1" stroke="#1e293b"></rect><rect width="12" height="12" x="760" y="128" rx="4" ry="4" fill="#0f172a" stroke-width="1" stroke="#1e293b"></rect><rect width="12" height="12" x="760" y="144" rx="4" ry="4" fill="#0f172a" stroke-width="1" stroke="#1e293b"></rect><rect width="12" height="12" x="760" y="160" rx="4" ry="4" fill="#0f172a" stroke-width="1" stroke="#1e293b"></rect><rect width="12" height="12" x="760" y="176" rx="4" ry="4" fill="#0f172a" stroke-width="1" stroke="#1e293b"></rect><rect width="12" height="12" x="760" y="192" rx="4" ry="4" fill="#0f172a" stroke-width="1" stroke="#1e293b"></rect><rect width="12" height="12" x="776" y="96" rx="4" ry="4" fill="#0f172a" stroke-width="1" stroke="#1e293b"></rect><rect width="12" height="12" x="776" y="112" rx="4" ry="4" fill="#0f172a" stroke-width="1" stroke="#1e293b"></rect><rect width="12" height="12" x="776" y="128" rx="4" ry="4" fill="#0f172a" stroke-width="1" stroke="#1e293b"></rect><rect width="12" height="12" x="776" y="144" rx="4" ry="4" fill="#0f172a" stroke-width="1" stroke="#1e293b"></rect><rect width="12" height="12" x="776" y="160" rx="4" ry="4" fill="#0f172a" stroke-width="1" stroke="#1e293b"></rect><rect width="12" height="12" x="776" y="176" rx="4" ry="4" fill="#0f172a" stroke-width="1" stroke="#1e293b"></rect><rect width="12" height="12" x="776" y="192" rx="4" ry="4" fill="#0f172a" stroke-width="1" stroke="#1e293b"></rect><rect width="12" height="12" x="792" y="96" rx="4" ry="4" fill="#0f172a" stroke-width="1" stroke="#1e293b"></rect><rect width="12" height="12" x="792" y="112" rx="4" ry="4" fill="#0f172a" stroke-width="1" stroke="#1e293b"></rect><rect width="12" height="12" x="792" y="128" rx="4" ry="4" fill="#0f172a" stroke-width="1" stroke="#1e293b"></rect><rect width="12" height="12" x="792" y="144" rx="4" ry="4" fill="#0f172a" stroke-width="1" stroke="#1e293b"></rect><rect width="12" height="12" x="792" y="160" rx="4" ry="4" fill="#0f172a" stroke-width="1" stroke="#1e293b"></rect><rect width="12" height="12" x="792" y="176" rx="4" ry="4" fill="#0f172a" stroke-width="1" stroke="#1e293b"></rect><rect width="12" height="12" x="792" y="192" rx="4" ry="4" fill="#0f172a" stroke-width="1" stroke="#1e293b"></rect><rect width="12" height="12" x="808" y="96" rx="4" ry="4" fill="#0f172a" stroke-width="1" stroke="#1e293b"></rect><rect width="12" height="12" x="808" y="112" rx="4" ry="4" fill="#0f172a" stroke-width="1" stroke="#1e293b"></rect><rect width="12" height="12" x="808" y="128" rx="4" ry="4" fill="#0f172a" stroke-width="1" stroke="#1e293b"></rect><rect width="12" height="12" x="808" y="144" rx="4" ry="4" fill="#0f172a" stroke-width="1" stroke="#1e293b"></rect><rect width="12" height="12" x="808" y="160" rx="4" ry="4" fill="#0f172a" stroke-width="1" stroke="#1e293b"></rect><rect width="12" height="12" x="808" y="176" rx="4" ry="4" fill="#0f172a" stroke-width="1" stroke="#1e293b"></rect><rect width="12" height="12" x="808" y="192" rx="4" ry="4" fill="#0f172a" stroke-width="1" stroke="#1e293b"></rect><text x="808" y="95.1015625" font-size="11" font-family="Segoe UI" fill="#64748b" svgjs:data="{&quot;leading&quot;:&quot;1.3&quot;}"><tspan dy="0" x="808" svgjs:data="{&quot;newLined&quot;:true}">Feb</tspan></text><rect width="12" height="12" x="824" y="96" rx="4" ry="4" fill="#0f172a" stroke-width="1" stroke="#1e293b"></rect><rect width="12" height="12" x="824" y="112" rx="4" ry="4" fill="#0f172a" stroke-width="1" stroke="#1e293b"></rect><rect width="12" height="12" x="824" y="128" rx="4" ry="4" fill="#0f172a" stroke-width="1" stroke="#1e293b"></rect><rect width="12" height="12" x="824" y="144" rx="4" ry="4" fill="#0f172a" stroke-width="1" stroke="#1e293b"></rect><rect width="12" height="12" x="824" y="160" rx="4" ry="4" fill="#0f172a" stroke-width="1" stroke="#1e293b"></rect><rect width="12" height="12" x="824" y="176" rx="4" ry="4" fill="#0f172a" stroke-width="1" stroke="#1e293b"></rect><rect width="12" height="12" x="824" y="192" rx="4" ry="4" fill="#0f172a" stroke-width="1" stroke="#1e293b"></rect><rect width="12" height="12" x="840" y="96" rx="4" ry="4" fill="#0f172a" stroke-width="1" stroke="#1e293b"></rect><rect width="12" height="12" x="840" y="112" rx="4" ry="4" fill="#0f172a" stroke-width="1" stroke="#1e293b"></rect><rect width="12" height="12" x="840" y="128" rx="4" ry="4" fill="#0f172a" stroke-width="1" stroke="#1e293b"></rect><rect width="12" height="12" x="840" y="144" rx="4" ry="4" fill="#0f172a" stroke-width="1" stroke="#1e293b"></rect><rect width="12" height="12" x="840" y="160" rx="4" ry="4" fill="#0f172a" stroke-width="1" stroke="#1e293b"></rect><rect width="12" height="12" x="840" y="176" rx="4" ry="4" fill="#0f172a" stroke-width="1" stroke="#1e293b"></rect><rect width="12" height="12" x="840" y="192" rx="4" ry="4" fill="#0f172a" stroke-width="1" stroke="#1e293b"></rect><rect width="12" height="12" x="856" y="96" rx="4" ry="4" fill="#0f172a" stroke-width="1" stroke="#1e293b"></rect><rect width="12" height="12" x="856" y="112" rx="4" ry="4" fill="#0f172a" stroke-width="1" stroke="#1e293b"></rect><rect width="12" height="12" x="856" y="128" rx="4" ry="4" fill="#0f172a" stroke-width="1" stroke="#1e293b"></rect><rect width="12" height="12" x="856" y="144" rx="4" ry="4" fill="#0f172a" stroke-width="1" stroke="#1e293b"></rect><rect width="12" height="12" x="856" y="160" rx="4" ry="4" fill="#0f172a" stroke-width="1" stroke="#1e293b"></rect><rect width="12" height="12" x="856" y="176" rx="4" ry="4" fill="#0f172a" stroke-width="1" stroke="#1e293b"></rect><rect width="12" height="12" x="856" y="192" rx="4" ry="4" fill="#0f172a" stroke-width="1" stroke="#1e293b"></rect><rect width="12" height="12" x="872" y="96" rx="4" ry="4" fill="#0f172a" stroke-width="1" stroke="#1e293b"></rect><rect width="12" height="12" x="872" y="112" rx="4" ry="4" fill="#0f172a" stroke-width="1" stroke="#1e293b"></rect><rect width="12" height="12" x="872" y="128" rx="4" ry="4" fill="#0f172a" stroke-width="1" stroke="#1e293b"></rect><rect width="12" height="12" x="872" y="144" rx="4" ry="4" fill="#0f172a" stroke-width="1" stroke="#1e293b"></rect><rect width="12" height="12" x="872" y="160" rx="4" ry="4" fill="#0f172a" stroke-width="1" stroke="#1e293b"></rect><rect width="12" height="12" x="872" y="176" rx="4" ry="4" fill="#0f172a" stroke-width="1" stroke="#1e293b"></rect><rect width="12" height="12" x="872" y="192" rx="4" ry="4" fill="#0f172a" stroke-width="1" stroke="#1e293b"></rect><text x="872" y="95.1015625" font-size="11" font-family="Segoe UI" fill="#64748b" svgjs:data="{&quot;leading&quot;:&quot;1.3&quot;}"><tspan dy="0" x="872" svgjs:data="{&quot;newLined&quot;:true}">Mar</tspan></text><rect width="12" height="12" x="888" y="96" rx="4" ry="4" fill="#0f172a" stroke-width="1" stroke="#1e293b"></rect><rect width="12" height="12" x="888" y="112" rx="4" ry="4" fill="#0f172a" stroke-width="1" stroke="#1e293b"></rect><rect width="12" height="12" x="888" y="128" rx="4" ry="4" fill="#0f172a" stroke-width="1" stroke="#1e293b"></rect><rect width="12" height="12" x="888" y="144" rx="4" ry="4" fill="#0f172a" stroke-width="1" stroke="#1e293b"></rect><rect width="12" height="12" x="888" y="160" rx="4" ry="4" fill="#0f172a" stroke-width="1" stroke="#1e293b"></rect><rect width="12" height="12" x="888" y="176" rx="4" ry="4" fill="#0f172a" stroke-width="1" stroke="#1e293b"></rect><rect width="12" height="12" x="888" y="192" rx="4" ry="4" fill="#0f172a" stroke-width="1" stroke="#1e293b"></rect><rect width="12" height="12" x="904" y="96" rx="4" ry="4" fill="#0f172a" stroke-width="1" stroke="#1e293b"></rect><rect width="12" height="12" x="904" y="112" rx="4" ry="4" fill="#0f172a" stroke-width="1" stroke="#1e293b"></rect><rect width="12" height="12" x="904" y="128" rx="4" ry="4" fill="#0f172a" stroke-width="1" stroke="#1e293b"></rect><rect width="12" height="12" x="904" y="144" rx="4" ry="4" fill="#0f172a" stroke-width="1" stroke="#1e293b"></rect><rect width="12" height="12" x="904" y="160" rx="4" ry="4" fill="#0f172a" stroke-width="1" stroke="#1e293b"></rect><rect width="12" height="12" x="904" y="176" rx="4" ry="4" fill="#0f172a" stroke-width="1" stroke="#1e293b"></rect><rect width="12" height="12" x="904" y="192" rx="4" ry="4" fill="#86efac" stroke-width="1" stroke="#1e293b"></rect><text x="780" y="229.1015625" font-size="11" font-family="Segoe UI" fill="#94a3b8" svgjs:data="{&quot;leading&quot;:&quot;1.3&quot;}"><tspan dy="0" x="780" svgjs:data="{&quot;newLined&quot;:true}">Less</tspan></text><rect width="12" height="12" x="814" y="210" rx="4" ry="4" fill="#0f172a" stroke-width="1" stroke="#1e293b"></rect><rect width="12" height="12" x="832" y="210" rx="4" ry="4" fill="#123524" stroke-width="1" stroke="#1e293b"></rect><rect width="12" height="12" x="850" y="210" rx="4" ry="4" fill="#166534" stroke-width="1" stroke="#1e293b"></rect><rect width="12" height="12" x="868" y="210" rx="4" ry="4" fill="#22c55e" stroke-width="1" stroke="#1e293b"></rect><rect width="12" height="12" x="886" y="210" rx="4" ry="4" fill="#86efac" stroke-width="1" stroke="#1e293b"></rect><text x="910" y="229.1015625" font-size="11" font-family="Segoe UI" fill="#94a3b8" svgjs:data="{&quot;leading&quot;:&quot;1.3&quot;}"><tspan dy="0" x="910" svgjs:data="{&quot;newLined&quot;:true}">More</tspan></text></svg>