<svg xmlns="http://www.w3.org/2000/svg" version="1.1" xmlns:xlink="http://www.w3.org/1999/xlink" xmlns:svgjs="http://svgjs.dev/svgjs" width="960" height="272" viewBox="0 0 960 272"><rect width="960" height="272" fill="#0f172a"></rect><rect width="880" height="200" x="40" y="56" rx="18" ry="18" fill="#111c35" stroke-width="1" stroke="#22304f"></rect><text x="64" y="93.1015625" font-size="24" font-family="Segoe UI" font-weight="700" fill="#f8fafc" svgjs:data="{&quot;leading&quot;:&quot;1.3&quot;}">Activity Heatmap</text><text x="64" y="125.1015625" font-size="12" font-family="Segoe UI" font-weight="400" fill="#94a3b8" svgjs:data="{&quot;leading&quot;:&quot;1.3&quot;}">Daily activity score across the last 52 weeks.</text><text x="52" y="151.1015625" font-size="11" font-family="Segoe UI" font-weight="400" fill="#64748b" svgjs:data="{&quot;leading&quot;:&quot;1.3&quot;}">Mon</text><text x="52" y="183.1015625" font-size="11" font-family="Segoe UI" font-weight="400" fill="#64748b" svgjs:data="{&quot;leading&quot;:&quot;1.3&quot;}">Wed</text><text x="52" y="215.1015625" font-size="11" font-family="Segoe UI" font-weight="400" fill="#64748b" svgjs:data="{&quot;leading&quot;:&quot;1.3&quot;}">Fri</text><rect width="12" height="12" x="96" y="132" rx="4" ry="4" fill="#243145" stroke-width="1" stroke="#1e293b"></rect><rect width="12" height="12" x="96" y="148" rx="4" ry="4" fill="#243145" stroke-width="1" stroke="#1e293b"></rect><rect width="12" height="12" x="96" y="164" rx="4" ry="4" fill="#243145" stroke-width="1" stroke="#1e293b"></rect><rect width="12" height="12" x="96" y="180" rx="4" ry="4" fill="#243145" stroke-width="1" stroke="#1e293b"></rect><rect width="12" height="12" x="96" y="196" rx="4" ry="4" fill="#243145" stroke-width="1" stroke="#1e293b"></rect><rect width="12" height="12" x="96" y="212" rx="4" ry="4" fill="#243145" stroke-width="1" stroke="#1e293b"></rect><rect width="12" height="12" x="96" y="228" rx="4" ry="4" fill="#243145" stroke-width="1" stroke="#1e293b"></rect><rect width="12" height="12" x="112" y="132" rx="4" ry="4" fill="#243145" stroke-width="1" stroke="#1e293b"></rect><rect width="12" height="12" x="112" y="148" rx="4" ry="4" fill="#243145" stroke-width="1" stroke="#1e293b"></rect><rect width="12" height="12" x="112" y="164" rx="4" ry="4" fill="#243145" stroke-width="1" stroke="#1e293b"></rect><rect width="12" height="12" x="112" y="180" rx="4" ry="4" fill="#243145" stroke-width="1" stroke="#1e293b"></rect><rect width="12" height="12" x="112" y="196" rx="4" ry="4" fill="#243145" stroke-width="1" stroke="#1e293b"></rect><rect width="12" height="12" x="112" y="212" rx="4" ry="4" fill="#243145" stroke-width="1" stroke="#1e293b"></rect><rect width="12" height="12" x="112" y="228" rx="4" ry="4" fill="#243145" stroke-width="1" stroke="#1e293b"></rect><rect width="12" height="12" x="128" y="132" rx="4" ry="4" fill="#243145" stroke-width="1" stroke="#1e293b"></rect><rect width="12" height="12" x="128" y="148" rx="4" ry="4" fill="#243145" stroke-width="1" stroke="#1e293b"></rect><rect width="12" height="12" x="128" y="164" rx="4" ry="4" fill="#243145" stroke-width="1" stroke="#1e293b"></rect><rect width="12" height="12" x="128" y="180" rx="4" ry="4" fill="#243145" stroke-width="1" stroke="#1e293b"></rect><rect width="12" height="12" x="128" y="196" rx="4" ry="4" fill="#243145" stroke-width="1" stroke="#1e293b"></rect><rect width="12" height="12" x="128" y="212" rx="4" ry="4" fill="#243145" stroke-width="1" stroke="#1e293b"></rect><rect width="12" height="12" x="128" y="228" rx="4" ry="4" fill="#243145" stroke-width="1" stroke="#1e293b"></rect><rect width="12" height="12" x="144" y="132" rx="4" ry="4" fill="#243145" stroke-width="1" stroke="#1e293b"></rect><rect width="12" height="12" x="144" y="148" rx="4" ry="4" fill="#243145" stroke-width="1" stroke="#1e293b"></rect><text x="144" y="131.1015625" font-size="11" font-family="Segoe UI" font-weight="400" fill="#64748b" svgjs:data="{&quot;leading&quot;:&quot;1.3&quot;}">Apr</text><rect width="12" height="12" x="144" y="164" rx="4" ry="4" fill="#243145" stroke-width="1" stroke="#1e293b"></rect><rect width="12" height="12" x="144" y="180" rx="4" ry="4" fill="#243145" stroke-width="1" stroke="#1e293b"></rect><rect width="12" height="12" x="144" y="196" rx="4" ry="4" fill="#243145" stroke-width="1" stroke="#1e293b"></rect><rect width="12" height="12" x="144" y="212" rx="4" ry="4" fill="#243145" stroke-width="1" stroke="#1e293b"></rect><rect width="12" height="12" x="144" y="228" rx="4" ry="4" fill="#243145" stroke-width="1" stroke="#1e293b"></rect><rect width="12" height="12" x="160" y="132" rx="4" ry="4" fill="#243145" stroke-width="1" stroke="#1e293b"></rect><rect width="12" height="12" x="160" y="148" rx="4" ry="4" fill="#243145" stroke-width="1" stroke="#1e293b"></rect><rect width="12" height="12" x="160" y="164" rx="4" ry="4" fill="#243145" stroke-width="1" stroke="#1e293b"></rect><rect width="12" height="12" x="160" y="180" rx="4" ry="4" fill="#243145" stroke-width="1" stroke="#1e293b"></rect><rect width="12" height="12" x="160" y="196" rx="4" ry="4" fill="#243145" stroke-width="1" stroke="#1e293b"></rect><rect width="12" height="12" x="160" y="212" rx="4" ry="4" fill="#243145" stroke-width="1" stroke="#1e293b"></rect><rect width="12" height="12" x="160" y="228" rx="4" ry="4" fill="#243145" stroke-width="1" stroke="#1e293b"></rect><rect width="12" height="12" x="176" y="132" rx="4" ry="4" fill="#243145" stroke-width="1" stroke="#1e293b"></rect><rect width="12" height="12" x="176" y="148" rx="4" ry="4" fill="#243145" stroke-width="1" stroke="#1e293b"></rect><rect width="12" height="12" x="176" y="164" rx="4" ry="4" fill="#243145" stroke-width="1" stroke="#1e293b"></rect><rect width="12" height="12" x="176" y="180" rx="4" ry="4" fill="#243145" stroke-width="1" stroke="#1e293b"></rect><rect width="12" height="12" x="176" y="196" rx="4" ry="4" fill="#243145" stroke-width="1" stroke="#1e293b"></rect><rect width="12" height="12" x="176" y="212" rx="4" ry="4" fill="#243145" stroke-width="1" stroke="#1e293b"></rect><rect width="12" height="12" x="176" y="228" rx="4" ry="4" fill="#243145" stroke-width="1" stroke="#1e293b"></rect><rect width="12" height="12" x="192" y="132" rx="4" ry="4" fill="#243145" stroke-width="1" stroke="#1e293b"></rect><rect width="12" height="12" x="192" y="148" rx="4" ry="4" fill="#243145" stroke-width="1" stroke="#1e293b"></rect><rect width="12" height="12" x="192" y="164" rx="4" ry="4" fill="#243145" stroke-width="1" stroke="#1e293b"></rect><rect width="12" height="12" x="192" y="180" rx="4" ry="4" fill="#243145" stroke-width="1" stroke="#1e293b"></rect><rect width="12" height="12" x="192" y="196" rx="4" ry="4" fill="#243145" stroke-width="1" stroke="#1e293b"></rect><rect width="12" height="12" x="192" y="212" rx="4" ry="4" fill="#243145" stroke-width="1" stroke="#1e293b"></rect><rect width="12" height="12" x="192" y="228" rx="4" ry="4" fill="#243145" stroke-width="1" stroke="#1e293b"></rect><rect width="12" height="12" x="208" y="132" rx="4" ry="4" fill="#243145" stroke-width="1" stroke="#1e293b"></rect><rect width="12" height="12" x="208" y="148" rx="4" ry="4" fill="#243145" stroke-width="1" stroke="#1e293b"></rect><rect width="12" height="12" x="208" y="164" rx="4" ry="4" fill="#243145" stroke-width="1" stroke="#1e293b"></rect><rect width="12" height="12" x="208" y="180" rx="4" ry="4" fill="#243145" stroke-width="1" stroke="#1e293b"></rect><text x="208" y="131.1015625" font-size="11" font-family="Segoe UI" font-weight="400" fill="#64748b" svgjs:data="{&quot;leading&quot;:&quot;1.3&quot;}">May</text><rect width="12" height="12" x="208" y="196" rx="4" ry="4" fill="#243145" stroke-width="1" stroke="#1e293b"></rect><rect width="12" height="12" x="208" y="212" rx="4" ry="4" fill="#243145" stroke-width="1" stroke="#1e293b"></rect><rect width="12" height="12" x="208" y="228" rx="4" ry="4" fill="#243145" stroke-width="1" stroke="#1e293b"></rect><rect width="12" height="12" x="224" y="132" rx="4" ry="4" fill="#243145" stroke-width="1" stroke="#1e293b"></rect><rect width="12" height="12" x="224" y="148" rx="4" ry="4" fill="#243145" stroke-width="1" stroke="#1e293b"></rect><rect width="12" height="12" x="224" y="164" rx="4" ry="4" fill="#243145" stroke-width="1" stroke="#1e293b"></rect><rect width="12" height="12" x="224" y="180" rx="4" ry="4" fill="#243145" stroke-width="1" stroke="#1e293b"></rect><rect width="12" height="12" x="224" y="196" rx="4" ry="4" fill="#243145" stroke-width="1" stroke="#1e293b"></rect><rect width="12" height="12" x="224" y="212" rx="4" ry="4" fill="#243145" stroke-width="1" stroke="#1e293b"></rect><rect width="12" height="12" x="224" y="228" rx="4" ry="4" fill="#243145" stroke-width="1" stroke="#1e293b"></rect><rect width="12" height="12" x="240" y="132" rx="4" ry="4" fill="#243145" stroke-width="1" stroke="#1e293b"></rect><rect width="12" height="12" x="240" y="148" rx="4" ry="4" fill="#243145" stroke-width="1" stroke="#1e293b"></rect><rect width="12" height="12" x="240" y="164" rx="4" ry="4" fill="#243145" stroke-width="1" stroke="#1e293b"></rect><rect width="12" height="12" x="240" y="180" rx="4" ry="4" fill="#243145" stroke-width="1" stroke="#1e293b"></rect><rect width="12" height="12" x="240" y="196" rx="4" ry="4" fill="#243145" stroke-width="1" stroke="#1e293b"></rect><rect width="12" height="12" x="240" y="212" rx="4" ry="4" fill="#243145" stroke-width="1" stroke="#1e293b"></rect><rect width="12" height="12" x="240" y="228" rx="4" ry="4" fill="#243145" stroke-width="1" stroke="#1e293b"></rect><rect width="12" height="12" x="256" y="132" rx="4" ry="4" fill="#243145" stroke-width="1" stroke="#1e293b"></rect><rect width="12" height="12" x="256" y="148" rx="4" ry="4" fill="#243145" stroke-width="1" stroke="#1e293b"></rect><rect width="12" height="12" x="256" y="164" rx="4" ry="4" fill="#243145" stroke-width="1" stroke="#1e293b"></rect><rect width="12" height="12" x="256" y="180" rx="4" ry="4" fill="#243145" stroke-width="1" stroke="#1e293b"></rect><rect width="12" height="12" x="256" y="196" rx="4" ry="4" fill="#243145" stroke-width="1" stroke="#1e293b"></rect><rect width="12" height="12" x="256" y="212" rx="4" ry="4" fill="#243145" stroke-width="1" stroke="#1e293b"></rect><rect width="12" height="12" x="256" y="228" rx="4" ry="4" fill="#243145" stroke-width="1" stroke="#1e293b"></rect><rect width="12" height="12" x="272" y="132" rx="4" ry="4" fill="#243145" stroke-width="1" stroke="#1e293b"></rect><rect width="12" height="12" x="272" y="148" rx="4" ry="4" fill="#243145" stroke-width="1" stroke="#1e293b"></rect><rect width="12" height="12" x="272" y="164" rx="4" ry="4" fill="#243145" stroke-width="1" stroke="#1e293b"></rect><rect width="12" height="12" x="272" y="180" rx="4" ry="4" fill="#243145" stroke-width="1" stroke="#1e293b"></rect><rect width="12" height="12" x="272" y="196" rx="4" ry="4" fill="#243145" stroke-width="1" stroke="#1e293b"></rect><rect width="12" height="12" x="272" y="212" rx="4" ry="4" fill="#243145" stroke-width="1" stroke="#1e293b"></rect><rect width="12" height="12" x="272" y="228" rx="4" ry="4" fill="#243145" stroke-width="1" stroke="#1e293b"></rect><text x="272" y="131.1015625" font-size="11" font-family="Segoe UI" font-weight="400" fill="#64748b" svgjs:data="{&quot;leading&quot;:&quot;1.3&quot;}">Jun</text><rect width="12" height="12" x="288" y="132" rx="4" ry="4" fill="#243145" stroke-width="1" stroke="#1e293b"></rect><rect width="12" height="12" x="288" y="148" rx="4" ry="4" fill="#243145" stroke-width="1" stroke="#1e293b"></rect><rect width="12" height="12" x="288" y="164" rx="4" ry="4" fill="#243145" stroke-width="1" stroke="#1e293b"></rect><rect width="12" height="12" x="288" y="180" rx="4" ry="4" fill="#243145" stroke-width="1" stroke="#1e293b"></rect><rect width="12" height="12" x="288" y="196" rx="4" ry="4" fill="#243145" stroke-width="1" stroke="#1e293b"></rect><rect width="12" height="12" x="288" y="212" rx="4" ry="4" fill="#243145" stroke-width="1" stroke="#1e293b"></rect><rect width="12" height="12" x="288" y="228" rx="4" ry="4" fill="#243145" stroke-width="1" stroke="#1e293b"></rect><rect width="12" height="12" x="304" y="132" rx="4" ry="4" fill="#243145" stroke-width="1" stroke="#1e293b"></rect><rect width="12" height="12" x="304" y="148" rx="4" ry="4" fill="#243145" stroke-width="1" stroke="#1e293b"></rect><rect width="12" height="12" x="304" y="164" rx="4" ry="4" fill="#243145" stroke-width="1" stroke="#1e293b"></rect><rect width="12" height="12" x="304" y="180" rx="4" ry="4" fill="#243145" stroke-width="1" stroke="#1e293b"></rect><rect width="12" height="12" x="304" y="196" rx="4" ry="4" fill="#243145" stroke-width="1" stroke="#1e293b"></rect><rect width="12" height="12" x="304" y="212" rx="4" ry="4" fill="#243145" stroke-width="1" stroke="#1e293b"></rect><rect width="12" height="12" x="304" y="228" rx="4" ry="4" fill="#243145" stroke-width="1" stroke="#1e293b"></rect><rect width="12" height="12" x="320" y="132" rx="4" ry="4" fill="#243145" stroke-width="1" stroke="#1e293b"></rect><rect width="12" height="12" x="320" y="148" rx="4" ry="4" fill="#243145" stroke-width="1" stroke="#1e293b"></rect><rect width="12" height="12" x="320" y="164" rx="4" ry="4" fill="#243145" stroke-width="1" stroke="#1e293b"></rect><rect width="12" height="12" x="320" y="180" rx="4" ry="4" fill="#243145" stroke-width="1" stroke="#1e293b"></rect><rect width="12" height="12" x="320" y="196" rx="4" ry="4" fill="#243145" stroke-width="1" stroke="#1e293b"></rect><rect width="12" height="12" x="320" y="212" rx="4" ry="4" fill="#243145" stroke-width="1" stroke="#1e293b"></rect><rect width="12" height="12" x="320" y="228" rx="4" ry="4" fill="#243145" stroke-width="1" stroke="#1e293b"></rect><rect width="12" height="12" x="336" y="132" rx="4" ry="4" fill="#243145" stroke-width="1" stroke="#1e293b"></rect><rect width="12" height="12" x="336" y="148" rx="4" ry="4" fill="#243145" stroke-width="1" stroke="#1e293b"></rect><rect width="12" height="12" x="336" y="164" rx="4" ry="4" fill="#243145" stroke-width="1" stroke="#1e293b"></rect><rect width="12" height="12" x="336" y="180" rx="4" ry="4" fill="#243145" stroke-width="1" stroke="#1e293b"></rect><rect width="12" height="12" x="336" y="196" rx="4" ry="4" fill="#243145" stroke-width="1" stroke="#1e293b"></rect><rect width="12" height="12" x="336" y="212" rx="4" ry="4" fill="#243145" stroke-width="1" stroke="#1e293b"></rect><rect width="12" height="12" x="336" y="228" rx="4" ry="4" fill="#243145" stroke-width="1" stroke="#1e293b"></rect><rect width="12" height="12" x="352" y="132" rx="4" ry="4" fill="#243145" stroke-width="1" stroke="#1e293b"></rect><rect width="12" height="12" x="352" y="148" rx="4" ry="4" fill="#243145" stroke-width="1" stroke="#1e293b"></rect><text x="352" y="131.1015625" font-size="11" font-family="Segoe UI" font-weight="400" fill="#64748b" svgjs:data="{&quot;leading&quot;:&quot;1.3&quot;}">Jul</text><rect width="12" height="12" x="352" y="164" rx="4" ry="4" fill="#243145" stroke-width="1" stroke="#1e293b"></rect><rect width="12" height="12" x="352" y="180" rx="4" ry="4" fill="#243145" stroke-width="1" stroke="#1e293b"></rect><rect width="12" height="12" x="352" y="196" rx="4" ry="4" fill="#243145" stroke-width="1" stroke="#1e293b"></rect><rect width="12" height="12" x="352" y="212" rx="4" ry="4" fill="#243145" stroke-width="1" stroke="#1e293b"></rect><rect width="12" height="12" x="352" y="228" rx="4" ry="4" fill="#243145" stroke-width="1" stroke="#1e293b"></rect><rect width="12" height="12" x="368" y="132" rx="4" ry="4" fill="#243145" stroke-width="1" stroke="#1e293b"></rect><rect width="12" height="12" x="368" y="148" rx="4" ry="4" fill="#243145" stroke-width="1" stroke="#1e293b"></rect><rect width="12" height="12" x="368" y="164" rx="4" ry="4" fill="#243145" stroke-width="1" stroke="#1e293b"></rect><rect width="12" height="12" x="368" y="180" rx="4" ry="4" fill="#243145" stroke-width="1" stroke="#1e293b"></rect><rect width="12" height="12" x="368" y="196" rx="4" ry="4" fill="#243145" stroke-width="1" stroke="#1e293b"></rect><rect width="12" height="12" x="368" y="212" rx="4" ry="4" fill="#243145" stroke-width="1" stroke="#1e293b"></rect><rect width="12" height="12" x="368" y="228" rx="4" ry="4" fill="#243145" stroke-width="1" stroke="#1e293b"></rect><rect width="12" height="12" x="384" y="132" rx="4" ry="4" fill="#243145" stroke-width="1" stroke="#1e293b"></rect><rect width="12" height="12" x="384" y="148" rx="4" ry="4" fill="#243145" stroke-width="1" stroke="#1e293b"></rect><rect width="12" height="12" x="384" y="164" rx="4" ry="4" fill="#243145" stroke-width="1" stroke="#1e293b"></rect><rect width="12" height="12" x="384" y="180" rx="4" ry="4" fill="#243145" stroke-width="1" stroke="#1e293b"></rect><rect width="12" height="12" x="384" y="196" rx="4" ry="4" fill="#243145" stroke-width="1" stroke="#1e293b"></rect><rect width="12" height="12" x="384" y="212" rx="4" ry="4" fill="#243145" stroke-width="1" stroke="#1e293b"></rect><rect width="12" height="12" x="384" y="228" rx="4" ry="4" fill="#243145" stroke-width="1" stroke="#1e293b"></rect><rect width="12" height="12" x="400" y="132" rx="4" ry="4" fill="#243145" stroke-width="1" stroke="#1e293b"></rect><rect width="12" height="12" x="400" y="148" rx="4" ry="4" fill="#123524" stroke-width="1" stroke="#1e293b"></rect><rect width="12" height="12" x="400" y="164" rx="4" ry="4" fill="#243145" stroke-width="1" stroke="#1e293b"></rect><rect width="12" height="12" x="400" y="180" rx="4" ry="4" fill="#243145" stroke-width="1" stroke="#1e293b"></rect><rect width="12" height="12" x="400" y="196" rx="4" ry="4" fill="#243145" stroke-width="1" stroke="#1e293b"></rect><rect width="12" height="12" x="400" y="212" rx="4" ry="4" fill="#243145" stroke-width="1" stroke="#1e293b"></rect><rect width="12" height="12" x="400" y="228" rx="4" ry="4" fill="#243145" stroke-width="1" stroke="#1e293b"></rect><rect width="12" height="12" x="416" y="132" rx="4" ry="4" fill="#243145" stroke-width="1" stroke="#1e293b"></rect><rect width="12" height="12" x="416" y="148" rx="4" ry="4" fill="#243145" stroke-width="1" stroke="#1e293b"></rect><rect width="12" height="12" x="416" y="164" rx="4" ry="4" fill="#243145" stroke-width="1" stroke="#1e293b"></rect><rect width="12" height="12" x="416" y="180" rx="4" ry="4" fill="#243145" stroke-width="1" stroke="#1e293b"></rect><rect width="12" height="12" x="416" y="196" rx="4" ry="4" fill="#243145" stroke-width="1" stroke="#1e293b"></rect><text x="416" y="131.1015625" font-size="11" font-family="Segoe UI" font-weight="400" fill="#64748b" svgjs:data="{&quot;leading&quot;:&quot;1.3&quot;}">Aug</text><rect width="12" height="12" x="416" y="212" rx="4" ry="4" fill="#243145" stroke-width="1" stroke="#1e293b"></rect><rect width="12" height="12" x="416" y="228" rx="4" ry="4" fill="#243145" stroke-width="1" stroke="#1e293b"></rect><rect width="12" height="12" x="432" y="132" rx="4" ry="4" fill="#243145" stroke-width="1" stroke="#1e293b"></rect><rect width="12" height="12" x="432" y="148" rx="4" ry="4" fill="#243145" stroke-width="1" stroke="#1e293b"></rect><rect width="12" height="12" x="432" y="164" rx="4" ry="4" fill="#243145" stroke-width="1" stroke="#1e293b"></rect><rect width="12" height="12" x="432" y="180" rx="4" ry="4" fill="#243145" stroke-width="1" stroke="#1e293b"></rect><rect width="12" height="12" x="432" y="196" rx="4" ry="4" fill="#243145" stroke-width="1" stroke="#1e293b"></rect><rect width="12" height="12" x="432" y="212" rx="4" ry="4" fill="#243145" stroke-width="1" stroke="#1e293b"></rect><rect width="12" height="12" x="432" y="228" rx="4" ry="4" fill="#243145" stroke-width="1" stroke="#1e293b"></rect><rect width="12" height="12" x="448" y="132" rx="4" ry="4" fill="#243145" stroke-width="1" stroke="#1e293b"></rect><rect width="12" height="12" x="448" y="148" rx="4" ry="4" fill="#243145" stroke-width="1" stroke="#1e293b"></rect><rect width="12" height="12" x="448" y="164" rx="4" ry="4" fill="#243145" stroke-width="1" stroke="#1e293b"></rect><rect width="12" height="12" x="448" y="180" rx="4" ry="4" fill="#243145" stroke-width="1" stroke="#1e293b"></rect><rect width="12" height="12" x="448" y="196" rx="4" ry="4" fill="#243145" stroke-width="1" stroke="#1e293b"></rect><rect width="12" height="12" x="448" y="212" rx="4" ry="4" fill="#243145" stroke-width="1" stroke="#1e293b"></rect><rect width="12" height="12" x="448" y="228" rx="4" ry="4" fill="#243145" stroke-width="1" stroke="#1e293b"></rect><rect width="12" height="12" x="464" y="132" rx="4" ry="4" fill="#243145" stroke-width="1" stroke="#1e293b"></rect><rect width="12" height="12" x="464" y="148" rx="4" ry="4" fill="#243145" stroke-width="1" stroke="#1e293b"></rect><rect width="12" height="12" x="464" y="164" rx="4" ry="4" fill="#243145" stroke-width="1" stroke="#1e293b"></rect><rect width="12" height="12" x="464" y="180" rx="4" ry="4" fill="#243145" stroke-width="1" stroke="#1e293b"></rect><rect width="12" height="12" x="464" y="196" rx="4" ry="4" fill="#243145" stroke-width="1" stroke="#1e293b"></rect><rect width="12" height="12" x="464" y="212" rx="4" ry="4" fill="#243145" stroke-width="1" stroke="#1e293b"></rect><rect width="12" height="12" x="464" y="228" rx="4" ry="4" fill="#243145" stroke-width="1" stroke="#1e293b"></rect><rect width="12" height="12" x="480" y="132" rx="4" ry="4" fill="#243145" stroke-width="1" stroke="#1e293b"></rect><rect width="12" height="12" x="480" y="148" rx="4" ry="4" fill="#243145" stroke-width="1" stroke="#1e293b"></rect><rect width="12" height="12" x="480" y="164" rx="4" ry="4" fill="#243145" stroke-width="1" stroke="#1e293b"></rect><rect width="12" height="12" x="480" y="180" rx="4" ry="4" fill="#243145" stroke-width="1" stroke="#1e293b"></rect><rect width="12" height="12" x="480" y="196" rx="4" ry="4" fill="#243145" stroke-width="1" stroke="#1e293b"></rect><rect width="12" height="12" x="480" y="212" rx="4" ry="4" fill="#243145" stroke-width="1" stroke="#1e293b"></rect><rect width="12" height="12" x="480" y="228" rx="4" ry="4" fill="#243145" stroke-width="1" stroke="#1e293b"></rect><rect width="12" height="12" x="496" y="132" rx="4" ry="4" fill="#243145" stroke-width="1" stroke="#1e293b"></rect><text x="496" y="131.1015625" font-size="11" font-family="Segoe UI" font-weight="400" fill="#64748b" svgjs:data="{&quot;leading&quot;:&quot;1.3&quot;}">Sep</text><rect width="12" height="12" x="496" y="148" rx="4" ry="4" fill="#243145" stroke-width="1" stroke="#1e293b"></rect><rect width="12" height="12" x="496" y="164" rx="4" ry="4" fill="#243145" stroke-width="1" stroke="#1e293b"></rect><rect width="12" height="12" x="496" y="180" rx="4" ry="4" fill="#243145" stroke-width="1" stroke="#1e293b"></rect><rect width="12" height="12" x="496" y="196" rx="4" ry="4" fill="#243145" stroke-width="1" stroke="#1e293b"></rect><rect width="12" height="12" x="496" y="212" rx="4" ry="4" fill="#243145" stroke-width="1" stroke="#1e293b"></rect><rect width="12" height="12" x="496" y="228" rx="4" ry="4" fill="#243145" stroke-width="1" stroke="#1e293b"></rect><rect width="12" height="12" x="512" y="132" rx="4" ry="4" fill="#243145" stroke-width="1" stroke="#1e293b"></rect><rect width="12" height="12" x="512" y="148" rx="4" ry="4" fill="#243145" stroke-width="1" stroke="#1e293b"></rect><rect width="12" height="12" x="512" y="164" rx="4" ry="4" fill="#243145" stroke-width="1" stroke="#1e293b"></rect><rect width="12" height="12" x="512" y="180" rx="4" ry="4" fill="#243145" stroke-width="1" stroke="#1e293b"></rect><rect width="12" height="12" x="512" y="196" rx="4" ry="4" fill="#243145" stroke-width="1" stroke="#1e293b"></rect><rect width="12" height="12" x="512" y="212" rx="4" ry="4" fill="#243145" stroke-width="1" stroke="#1e293b"></rect><rect width="12" height="12" x="512" y="228" rx="4" ry="4" fill="#243145" stroke-width="1" stroke="#1e293b"></rect><rect width="12" height="12" x="528" y="132" rx="4" ry="4" fill="#243145" stroke-width="1" stroke="#1e293b"></rect><rect width="12" height="12" x="528" y="148" rx="4" ry="4" fill="#243145" stroke-width="1" stroke="#1e293b"></rect><rect width="12" height="12" x="528" y="164" rx="4" ry="4" fill="#243145" stroke-width="1" stroke="#1e293b"></rect><rect width="12" height="12" x="528" y="180" rx="4" ry="4" fill="#243145" stroke-width="1" stroke="#1e293b"></rect><rect width="12" height="12" x="528" y="196" rx="4" ry="4" fill="#243145" stroke-width="1" stroke="#1e293b"></rect><rect width="12" height="12" x="528" y="212" rx="4" ry="4" fill="#243145" stroke-width="1" stroke="#1e293b"></rect><rect width="12" height="12" x="528" y="228" rx="4" ry="4" fill="#243145" stroke-width="1" stroke="#1e293b"></rect><rect width="12" height="12" x="544" y="132" rx="4" ry="4" fill="#243145" stroke-width="1" stroke="#1e293b"></rect><rect width="12" height="12" x="544" y="148" rx="4" ry="4" fill="#243145" stroke-width="1" stroke="#1e293b"></rect><rect width="12" height="12" x="544" y="164" rx="4" ry="4" fill="#243145" stroke-width="1" stroke="#1e293b"></rect><rect width="12" height="12" x="544" y="180" rx="4" ry="4" fill="#243145" stroke-width="1" stroke="#1e293b"></rect><rect width="12" height="12" x="544" y="196" rx="4" ry="4" fill="#243145" stroke-width="1" stroke="#1e293b"></rect><rect width="12" height="12" x="544" y="212" rx="4" ry="4" fill="#243145" stroke-width="1" stroke="#1e293b"></rect><rect width="12" height="12" x="544" y="228" rx="4" ry="4" fill="#243145" stroke-width="1" stroke="#1e293b"></rect><rect width="12" height="12" x="560" y="132" rx="4" ry="4" fill="#243145" stroke-width="1" stroke="#1e293b"></rect><rect width="12" height="12" x="560" y="148" rx="4" ry="4" fill="#243145" stroke-width="1" stroke="#1e293b"></rect><rect width="12" height="12" x="560" y="164" rx="4" ry="4" fill="#243145" stroke-width="1" stroke="#1e293b"></rect><text x="560" y="131.1015625" font-size="11" font-family="Segoe UI" font-weight="400" fill="#64748b" svgjs:data="{&quot;leading&quot;:&quot;1.3&quot;}">Oct</text><rect width="12" height="12" x="560" y="180" rx="4" ry="4" fill="#243145" stroke-width="1" stroke="#1e293b"></rect><rect width="12" height="12" x="560" y="196" rx="4" ry="4" fill="#243145" stroke-width="1" stroke="#1e293b"></rect><rect width="12" height="12" x="560" y="212" rx="4" ry="4" fill="#243145" stroke-width="1" stroke="#1e293b"></rect><rect width="12" height="12" x="560" y="228" rx="4" ry="4" fill="#243145" stroke-width="1" stroke="#1e293b"></rect><rect width="12" height="12" x="576" y="132" rx="4" ry="4" fill="#243145" stroke-width="1" stroke="#1e293b"></rect><rect width="12" height="12" x="576" y="148" rx="4" ry="4" fill="#243145" stroke-width="1" stroke="#1e293b"></rect><rect width="12" height="12" x="576" y="164" rx="4" ry="4" fill="#243145" stroke-width="1" stroke="#1e293b"></rect><rect width="12" height="12" x="576" y="180" rx="4" ry="4" fill="#243145" stroke-width="1" stroke="#1e293b"></rect><rect width="12" height="12" x="576" y="196" rx="4" ry="4" fill="#243145" stroke-width="1" stroke="#1e293b"></rect><rect width="12" height="12" x="576" y="212" rx="4" ry="4" fill="#243145" stroke-width="1" stroke="#1e293b"></rect><rect width="12" height="12" x="576" y="228" rx="4" ry="4" fill="#243145" stroke-width="1" stroke="#1e293b"></rect><rect width="12" height="12" x="592" y="132" rx="4" ry="4" fill="#243145" stroke-width="1" stroke="#1e293b"></rect><rect width="12" height="12" x="592" y="148" rx="4" ry="4" fill="#243145" stroke-width="1" stroke="#1e293b"></rect><rect width="12" height="12" x="592" y="164" rx="4" ry="4" fill="#243145" stroke-width="1" stroke="#1e293b"></rect><rect width="12" height="12" x="592" y="180" rx="4" ry="4" fill="#243145" stroke-width="1" stroke="#1e293b"></rect><rect width="12" height="12" x="592" y="196" rx="4" ry="4" fill="#243145" stroke-width="1" stroke="#1e293b"></rect><rect width="12" height="12" x="592" y="212" rx="4" ry="4" fill="#243145" stroke-width="1" stroke="#1e293b"></rect><rect width="12" height="12" x="592" y="228" rx="4" ry="4" fill="#243145" stroke-width="1" stroke="#1e293b"></rect><rect width="12" height="12" x="608" y="132" rx="4" ry="4" fill="#243145" stroke-width="1" stroke="#1e293b"></rect><rect width="12" height="12" x="608" y="148" rx="4" ry="4" fill="#243145" stroke-width="1" stroke="#1e293b"></rect><rect width="12" height="12" x="608" y="164" rx="4" ry="4" fill="#243145" stroke-width="1" stroke="#1e293b"></rect><rect width="12" height="12" x="608" y="180" rx="4" ry="4" fill="#243145" stroke-width="1" stroke="#1e293b"></rect><rect width="12" height="12" x="608" y="196" rx="4" ry="4" fill="#243145" stroke-width="1" stroke="#1e293b"></rect><rect width="12" height="12" x="608" y="212" rx="4" ry="4" fill="#243145" stroke-width="1" stroke="#1e293b"></rect><rect width="12" height="12" x="608" y="228" rx="4" ry="4" fill="#243145" stroke-width="1" stroke="#1e293b"></rect><rect width="12" height="12" x="624" y="132" rx="4" ry="4" fill="#243145" stroke-width="1" stroke="#1e293b"></rect><rect width="12" height="12" x="624" y="148" rx="4" ry="4" fill="#243145" stroke-width="1" stroke="#1e293b"></rect><rect width="12" height="12" x="624" y="164" rx="4" ry="4" fill="#243145" stroke-width="1" stroke="#1e293b"></rect><rect width="12" height="12" x="624" y="180" rx="4" ry="4" fill="#243145" stroke-width="1" stroke="#1e293b"></rect><rect width="12" height="12" x="624" y="196" rx="4" ry="4" fill="#243145" stroke-width="1" stroke="#1e293b"></rect><rect width="12" height="12" x="624" y="212" rx="4" ry="4" fill="#243145" stroke-width="1" stroke="#1e293b"></rect><text x="624" y="131.1015625" font-size="11" font-family="Segoe UI" font-weight="400" fill="#64748b" svgjs:data="{&quot;leading&quot;:&quot;1.3&quot;}">Nov</text><rect width="12" height="12" x="624" y="228" rx="4" ry="4" fill="#243145" stroke-width="1" stroke="#1e293b"></rect><rect width="12" height="12" x="640" y="132" rx="4" ry="4" fill="#243145" stroke-width="1" stroke="#1e293b"></rect><rect width="12" height="12" x="640" y="148" rx="4" ry="4" fill="#243145" stroke-width="1" stroke="#1e293b"></rect><rect width="12" height="12" x="640" y="164" rx="4" ry="4" fill="#243145" stroke-width="1" stroke="#1e293b"></rect><rect width="12" height="12" x="640" y="180" rx="4" ry="4" fill="#243145" stroke-width="1" stroke="#1e293b"></rect><rect width="12" height="12" x="640" y="196" rx="4" ry="4" fill="#243145" stroke-width="1" stroke="#1e293b"></rect><rect width="12" height="12" x="640" y="212" rx="4" ry="4" fill="#243145" stroke-width="1" stroke="#1e293b"></rect><rect width="12" height="12" x="640" y="228" rx="4" ry="4" fill="#243145" stroke-width="1" stroke="#1e293b"></rect><rect width="12" height="12" x="656" y="132" rx="4" ry="4" fill="#243145" stroke-width="1" stroke="#1e293b"></rect><rect width="12" height="12" x="656" y="148" rx="4" ry="4" fill="#243145" stroke-width="1" stroke="#1e293b"></rect><rect width="12" height="12" x="656" y="164" rx="4" ry="4" fill="#243145" stroke-width="1" stroke="#1e293b"></rect><rect width="12" height="12" x="656" y="180" rx="4" ry="4" fill="#243145" stroke-width="1" stroke="#1e293b"></rect><rect width="12" height="12" x="656" y="196" rx="4" ry="4" fill="#243145" stroke-width="1" stroke="#1e293b"></rect><rect width="12" height="12" x="656" y="212" rx="4" ry="4" fill="#243145" stroke-width="1" stroke="#1e293b"></rect><rect width="12" height="12" x="656" y="228" rx="4" ry="4" fill="#243145" stroke-width="1" stroke="#1e293b"></rect><rect width="12" height="12" x="672" y="132" rx="4" ry="4" fill="#243145" stroke-width="1" stroke="#1e293b"></rect><rect width="12" height="12" x="672" y="148" rx="4" ry="4" fill="#243145" stroke-width="1" stroke="#1e293b"></rect><rect width="12" height="12" x="672" y="164" rx="4" ry="4" fill="#243145" stroke-width="1" stroke="#1e293b"></rect><rect width="12" height="12" x="672" y="180" rx="4" ry="4" fill="#243145" stroke-width="1" stroke="#1e293b"></rect><rect width="12" height="12" x="672" y="196" rx="4" ry="4" fill="#243145" stroke-width="1" stroke="#1e293b"></rect><rect width="12" height="12" x="672" y="212" rx="4" ry="4" fill="#243145" stroke-width="1" stroke="#1e293b"></rect><rect width="12" height="12" x="672" y="228" rx="4" ry="4" fill="#243145" stroke-width="1" stroke="#1e293b"></rect><rect width="12" height="12" x="688" y="132" rx="4" ry="4" fill="#243145" stroke-width="1" stroke="#1e293b"></rect><rect width="12" height="12" x="688" y="148" rx="4" ry="4" fill="#243145" stroke-width="1" stroke="#1e293b"></rect><rect width="12" height="12" x="688" y="164" rx="4" ry="4" fill="#243145" stroke-width="1" stroke="#1e293b"></rect><rect width="12" height="12" x="688" y="180" rx="4" ry="4" fill="#243145" stroke-width="1" stroke="#1e293b"></rect><rect width="12" height="12" x="688" y="196" rx="4" ry="4" fill="#243145" stroke-width="1" stroke="#1e293b"></rect><rect width="12" height="12" x="688" y="212" rx="4" ry="4" fill="#243145" stroke-width="1" stroke="#1e293b"></rect><rect width="12" height="12" x="688" y="228" rx="4" ry="4" fill="#243145" stroke-width="1" stroke="#1e293b"></rect><rect width="12" height="12" x="704" y="132" rx="4" ry="4" fill="#243145" stroke-width="1" stroke="#1e293b"></rect><text x="704" y="131.1015625" font-size="11" font-family="Segoe UI" font-weight="400" fill="#64748b" svgjs:data="{&quot;leading&quot;:&quot;1.3&quot;}">Dec</text><rect width="12" height="12" x="704" y="148" rx="4" ry="4" fill="#243145" stroke-width="1" stroke="#1e293b"></rect><rect width="12" height="12" x="704" y="164" rx="4" ry="4" fill="#243145" stroke-width="1" stroke="#1e293b"></rect><rect width="12" height="12" x="704" y="180" rx="4" ry="4" fill="#243145" stroke-width="1" stroke="#1e293b"></rect><rect width="12" height="12" x="704" y="196" rx="4" ry="4" fill="#243145" stroke-width="1" stroke="#1e293b"></rect><rect width="12" height="12" x="704" y="212" rx="4" ry="4" fill="#243145" stroke-width="1" stroke="#1e293b"></rect><rect width="12" height="12" x="704" y="228" rx="4" ry="4" fill="#243145" stroke-width="1" stroke="#1e293b"></rect><rect width="12" height="12" x="720" y="132" rx="4" ry="4" fill="#243145" stroke-width="1" stroke="#1e293b"></rect><rect width="12" height="12" x="720" y="148" rx="4" ry="4" fill="#243145" stroke-width="1" stroke="#1e293b"></rect><rect width="12" height="12" x="720" y="164" rx="4" ry="4" fill="#243145" stroke-width="1" stroke="#1e293b"></rect><rect width="12" height="12" x="720" y="180" rx="4" ry="4" fill="#243145" stroke-width="1" stroke="#1e293b"></rect><rect width="12" height="12" x="720" y="196" rx="4" ry="4" fill="#243145" stroke-width="1" stroke="#1e293b"></rect><rect width="12" height="12" x="720" y="212" rx="4" ry="4" fill="#243145" stroke-width="1" stroke="#1e293b"></rect><rect width="12" height="12" x="720" y="228" rx="4" ry="4" fill="#243145" stroke-width="1" stroke="#1e293b"></rect><rect width="12" height="12" x="736" y="132" rx="4" ry="4" fill="#243145" stroke-width="1" stroke="#1e293b"></rect><rect width="12" height="12" x="736" y="148" rx="4" ry="4" fill="#243145" stroke-width="1" stroke="#1e293b"></rect><rect width="12" height="12" x="736" y="164" rx="4" ry="4" fill="#243145" stroke-width="1" stroke="#1e293b"></rect><rect width="12" height="12" x="736" y="180" rx="4" ry="4" fill="#243145" stroke-width="1" stroke="#1e293b"></rect><rect width="12" height="12" x="736" y="196" rx="4" ry="4" fill="#243145" stroke-width="1" stroke="#1e293b"></rect><rect width="12" height="12" x="736" y="212" rx="4" ry="4" fill="#243145" stroke-width="1" stroke="#1e293b"></rect><rect width="12" height="12" x="736" y="228" rx="4" ry="4" fill="#243145" stroke-width="1" stroke="#1e293b"></rect><rect width="12" height="12" x="752" y="132" rx="4" ry="4" fill="#243145" stroke-width="1" stroke="#1e293b"></rect><rect width="12" height="12" x="752" y="148" rx="4" ry="4" fill="#243145" stroke-width="1" stroke="#1e293b"></rect><rect width="12" height="12" x="752" y="164" rx="4" ry="4" fill="#243145" stroke-width="1" stroke="#1e293b"></rect><rect width="12" height="12" x="752" y="180" rx="4" ry="4" fill="#243145" stroke-width="1" stroke="#1e293b"></rect><rect width="12" height="12" x="752" y="196" rx="4" ry="4" fill="#243145" stroke-width="1" stroke="#1e293b"></rect><rect width="12" height="12" x="752" y="212" rx="4" ry="4" fill="#243145" stroke-width="1" stroke="#1e293b"></rect><rect width="12" height="12" x="752" y="228" rx="4" ry="4" fill="#243145" stroke-width="1" stroke="#1e293b"></rect><rect width="12" height="12" x="768" y="132" rx="4" ry="4" fill="#243145" stroke-width="1" stroke="#1e293b"></rect><rect width="12" height="12" x="768" y="148" rx="4" ry="4" fill="#243145" stroke-width="1" stroke="#1e293b"></rect><rect width="12" height="12" x="768" y="164" rx="4" ry="4" fill="#243145" stroke-width="1" stroke="#1e293b"></rect><rect width="12" height="12" x="768" y="180" rx="4" ry="4" fill="#243145" stroke-width="1" stroke="#1e293b"></rect><text x="768" y="131.1015625" font-size="11" font-family="Segoe UI" font-weight="400" fill="#64748b" svgjs:data="{&quot;leading&quot;:&quot;1.3&quot;}">Jan</text><rect width="12" height="12" x="768" y="196" rx="4" ry="4" fill="#243145" stroke-width="1" stroke="#1e293b"></rect><rect width="12" height="12" x="768" y="212" rx="4" ry="4" fill="#243145" stroke-width="1" stroke="#1e293b"></rect><rect width="12" height="12" x="768" y="228" rx="4" ry="4" fill="#243145" stroke-width="1" stroke="#1e293b"></rect><rect width="12" height="12" x="784" y="132" rx="4" ry="4" fill="#243145" stroke-width="1" stroke="#1e293b"></rect><rect width="12" height="12" x="784" y="148" rx="4" ry="4" fill="#243145" stroke-width="1" stroke="#1e293b"></rect><rect width="12" height="12" x="784" y="164" rx="4" ry="4" fill="#243145" stroke-width="1" stroke="#1e293b"></rect><rect width="12" height="12" x="784" y="180" rx="4" ry="4" fill="#243145" stroke-width="1" stroke="#1e293b"></rect><rect width="12" height="12" x="784" y="196" rx="4" ry="4" fill="#243145" stroke-width="1" stroke="#1e293b"></rect><rect width="12" height="12" x="784" y="212" rx="4" ry="4" fill="#243145" stroke-width="1" stroke="#1e293b"></rect><rect width="12" height="12" x="784" y="228" rx="4" ry="4" fill="#243145" stroke-width="1" stroke="#1e293b"></rect><rect width="12" height="12" x="800" y="132" rx="4" ry="4" fill="#243145" stroke-width="1" stroke="#1e293b"></rect><rect width="12" height="12" x="800" y="148" rx="4" ry="4" fill="#243145" stroke-width="1" stroke="#1e293b"></rect><rect width="12" height="12" x="800" y="164" rx="4" ry="4" fill="#243145" stroke-width="1" stroke="#1e293b"></rect><rect width="12" height="12" x="800" y="180" rx="4" ry="4" fill="#243145" stroke-width="1" stroke="#1e293b"></rect><rect width="12" height="12" x="800" y="196" rx="4" ry="4" fill="#243145" stroke-width="1" stroke="#1e293b"></rect><rect width="12" height="12" x="800" y="212" rx="4" ry="4" fill="#243145" stroke-width="1" stroke="#1e293b"></rect><rect width="12" height="12" x="800" y="228" rx="4" ry="4" fill="#243145" stroke-width="1" stroke="#1e293b"></rect><rect width="12" height="12" x="816" y="132" rx="4" ry="4" fill="#243145" stroke-width="1" stroke="#1e293b"></rect><rect width="12" height="12" x="816" y="148" rx="4" ry="4" fill="#243145" stroke-width="1" stroke="#1e293b"></rect><rect width="12" height="12" x="816" y="164" rx="4" ry="4" fill="#243145" stroke-width="1" stroke="#1e293b"></rect><rect width="12" height="12" x="816" y="180" rx="4" ry="4" fill="#243145" stroke-width="1" stroke="#1e293b"></rect><rect width="12" height="12" x="816" y="196" rx="4" ry="4" fill="#243145" stroke-width="1" stroke="#1e293b"></rect><rect width="12" height="12" x="816" y="212" rx="4" ry="4" fill="#243145" stroke-width="1" stroke="#1e293b"></rect><rect width="12" height="12" x="816" y="228" rx="4" ry="4" fill="#243145" stroke-width="1" stroke="#1e293b"></rect><rect width="12" height="12" x="832" y="132" rx="4" ry="4" fill="#243145" stroke-width="1" stroke="#1e293b"></rect><rect width="12" height="12" x="832" y="148" rx="4" ry="4" fill="#243145" stroke-width="1" stroke="#1e293b"></rect><rect width="12" height="12" x="832" y="164" rx="4" ry="4" fill="#243145" stroke-width="1" stroke="#1e293b"></rect><rect width="12" height="12" x="832" y="180" rx="4" ry="4" fill="#243145" stroke-width="1" stroke="#1e293b"></rect><rect width="12" height="12" x="832" y="196" rx="4" ry="4" fill="#243145" stroke-width="1" stroke="#1e293b"></rect><rect width="12" height="12" x="832" y="212" rx="4" ry="4" fill="#243145" stroke-width="1" stroke="#1e293b"></rect><rect width="12" height="12" x="832" y="228" rx="4" ry="4" fill="#243145" stroke-width="1" stroke="#1e293b"></rect><text x="832" y="131.1015625" font-size="11" font-family="Segoe UI" font-weight="400" fill="#64748b" svgjs:data="{&quot;leading&quot;:&quot;1.3&quot;}">Feb</text><rect width="12" height="12" x="848" y="132" rx="4" ry="4" fill="#243145" stroke-width="1" stroke="#1e293b"></rect><rect width="12" height="12" x="848" y="148" rx="4" ry="4" fill="#243145" stroke-width="1" stroke="#1e293b"></rect><rect width="12" height="12" x="848" y="164" rx="4" ry="4" fill="#243145" stroke-width="1" stroke="#1e293b"></rect><rect width="12" height="12" x="848" y="180" rx="4" ry="4" fill="#243145" stroke-width="1" stroke="#1e293b"></rect><rect width="12" height="12" x="848" y="196" rx="4" ry="4" fill="#243145" stroke-width="1" stroke="#1e293b"></rect><rect width="12" height="12" x="848" y="212" rx="4" ry="4" fill="#243145" stroke-width="1" stroke="#1e293b"></rect><rect width="12" height="12" x="848" y="228" rx="4" ry="4" fill="#243145" stroke-width="1" stroke="#1e293b"></rect><rect width="12" height="12" x="864" y="132" rx="4" ry="4" fill="#243145" stroke-width="1" stroke="#1e293b"></rect><rect width="12" height="12" x="864" y="148" rx="4" ry="4" fill="#243145" stroke-width="1" stroke="#1e293b"></rect><rect width="12" height="12" x="864" y="164" rx="4" ry="4" fill="#243145" stroke-width="1" stroke="#1e293b"></rect><rect width="12" height="12" x="864" y="180" rx="4" ry="4" fill="#243145" stroke-width="1" stroke="#1e293b"></rect><rect width="12" height="12" x="864" y="196" rx="4" ry="4" fill="#243145" stroke-width="1" stroke="#1e293b"></rect><rect width="12" height="12" x="864" y="212" rx="4" ry="4" fill="#243145" stroke-width="1" stroke="#1e293b"></rect><rect width="12" height="12" x="864" y="228" rx="4" ry="4" fill="#243145" stroke-width="1" stroke="#1e293b"></rect><rect width="12" height="12" x="880" y="132" rx="4" ry="4" fill="#243145" stroke-width="1" stroke="#1e293b"></rect><rect width="12" height="12" x="880" y="148" rx="4" ry="4" fill="#243145" stroke-width="1" stroke="#1e293b"></rect><rect width="12" height="12" x="880" y="164" rx="4" ry="4" fill="#243145" stroke-width="1" stroke="#1e293b"></rect><rect width="12" height="12" x="880" y="180" rx="4" ry="4" fill="#243145" stroke-width="1" stroke="#1e293b"></rect><rect width="12" height="12" x="880" y="196" rx="4" ry="4" fill="#243145" stroke-width="1" stroke="#1e293b"></rect><rect width="12" height="12" x="880" y="212" rx="4" ry="4" fill="#243145" stroke-width="1" stroke="#1e293b"></rect><rect width="12" height="12" x="880" y="228" rx="4" ry="4" fill="#243145" stroke-width="1" stroke="#1e293b"></rect><rect width="12" height="12" x="896" y="132" rx="4" ry="4" fill="#243145" stroke-width="1" stroke="#1e293b"></rect><rect width="12" height="12" x="896" y="148" rx="4" ry="4" fill="#243145" stroke-width="1" stroke="#1e293b"></rect><rect width="12" height="12" x="896" y="164" rx="4" ry="4" fill="#243145" stroke-width="1" stroke="#1e293b"></rect><rect width="12" height="12" x="896" y="180" rx="4" ry="4" fill="#243145" stroke-width="1" stroke="#1e293b"></rect><rect width="12" height="12" x="896" y="196" rx="4" ry="4" fill="#243145" stroke-width="1" stroke="#1e293b"></rect><rect width="12" height="12" x="896" y="212" rx="4" ry="4" fill="#243145" stroke-width="1" stroke="#1e293b"></rect><rect width="12" height="12" x="896" y="228" rx="4" ry="4" fill="#243145" stroke-width="1" stroke="#1e293b"></rect><text x="896" y="131.1015625" font-size="11" font-family="Segoe UI" font-weight="400" fill="#64748b" svgjs:data="{&quot;leading&quot;:&quot;1.3&quot;}">Mar</text><rect width="12" height="12" x="912" y="132" rx="4" ry="4" fill="#243145" stroke-width="1" stroke="#1e293b"></rect><rect width="12" height="12" x="912" y="148" rx="4" ry="4" fill="#243145" stroke-width="1" stroke="#1e293b"></rect><rect width="12" height="12" x="912" y="164" rx="4" ry="4" fill="#243145" stroke-width="1" stroke="#1e293b"></rect><rect width="12" height="12" x="912" y="180" rx="4" ry="4" fill="#243145" stroke-width="1" stroke="#1e293b"></rect><rect width="12" height="12" x="912" y="196" rx="4" ry="4" fill="#243145" stroke-width="1" stroke="#1e293b"></rect><rect width="12" height="12" x="912" y="212" rx="4" ry="4" fill="#243145" stroke-width="1" stroke="#1e293b"></rect><rect width="12" height="12" x="912" y="228" rx="4" ry="4" fill="#243145" stroke-width="1" stroke="#1e293b"></rect><rect width="12" height="12" x="928" y="132" rx="4" ry="4" fill="#243145" stroke-width="1" stroke="#1e293b"></rect><rect width="12" height="12" x="928" y="148" rx="4" ry="4" fill="#243145" stroke-width="1" stroke="#1e293b"></rect><rect width="12" height="12" x="928" y="164" rx="4" ry="4" fill="#243145" stroke-width="1" stroke="#1e293b"></rect><rect width="12" height="12" x="928" y="180" rx="4" ry="4" fill="#243145" stroke-width="1" stroke="#1e293b"></rect><rect width="12" height="12" x="928" y="196" rx="4" ry="4" fill="#243145" stroke-width="1" stroke="#1e293b"></rect><rect width="12" height="12" x="928" y="212" rx="4" ry="4" fill="#243145" stroke-width="1" stroke="#1e293b"></rect><rect width="12" height="12" x="928" y="228" rx="4" ry="4" fill="#86efac" stroke-width="1" stroke="#1e293b"></rect><text x="760" y="245.1015625" font-size="11" font-family="Segoe UI" font-weight="400" fill="#94a3b8" svgjs:data="{&quot;leading&quot;:&quot;1.3&quot;}">Less</text><rect width="12" height="12" x="794" y="226" rx="4" ry="4" fill="#243145" stroke-width="1" stroke="#1e293b"></rect><rect width="12" height="12" x="812" y="226" rx="4" ry="4" fill="#123524" stroke-width="1" stroke="#1e293b"></rect><rect width="12" height="12" x="830" y="226" rx="4" ry="4" fill="#166534" stroke-width="1" stroke="#1e293b"></rect><rect width="12" height="12" x="848" y="226" rx="4" ry="4" fill="#22c55e" stroke-width="1" stroke="#1e293b"></rect><rect width="12" height="12" x="866" y="226" rx="4" ry="4" fill="#86efac" stroke-width="1" stroke="#1e293b"></rect><text x="890" y="245.1015625" font-size="11" font-family="Segoe UI" font-weight="400" fill="#94a3b8" svgjs:data="{&quot;leading&quot;:&quot;1.3&quot;}">More</text></svg>