<svg xmlns="http://www.w3.org/2000/svg" version="1.1" xmlns:xlink="http://www.w3.org/1999/xlink" xmlns:svgjs="http://svgjs.dev/svgjs" width="960" height="160" viewBox="0 0 960 160"><rect width="960" height="160" fill="#0f172a"></rect><text x="40" y="41.1015625" font-size="24" font-family="Segoe UI" font-weight="700" fill="#f8fafc" svgjs:data="{&quot;leading&quot;:&quot;1.3&quot;}">Coding Activity Snapshot</text><text x="40" y="73.1015625" font-size="12" font-family="Segoe UI" font-weight="400" fill="#94a3b8" svgjs:data="{&quot;leading&quot;:&quot;1.3&quot;}">A compact overview generated from local VS Code activity logs.</text><rect width="200" height="68" x="40" y="84" rx="14" ry="14" fill="#111c35" stroke-width="1" stroke="#1e293b"></rect><rect width="6" height="40" x="56" y="98" rx="3" ry="3" fill="#38bdf8"></rect><text x="74" y="111.1015625" font-size="22" font-family="Segoe UI" font-weight="700" fill="#f8fafc" svgjs:data="{&quot;leading&quot;:&quot;1.3&quot;}">60</text><text x="74" y="141.1015625" font-size="12" font-family="Segoe UI" font-weight="400" fill="#94a3b8" svgjs:data="{&quot;leading&quot;:&quot;1.3&quot;}">Tracked saves</text><rect width="200" height="68" x="260" y="84" rx="14" ry="14" fill="#111c35" stroke-width="1" stroke="#1e293b"></rect><rect width="6" height="40" x="276" y="98" rx="3" ry="3" fill="#22c55e"></rect><text x="294" y="111.1015625" font-size="22" font-family="Segoe UI" font-weight="700" fill="#f8fafc" svgjs:data="{&quot;leading&quot;:&quot;1.3&quot;}">2</text><text x="294" y="141.1015625" font-size="12" font-family="Segoe UI" font-weight="400" fill="#94a3b8" svgjs:data="{&quot;leading&quot;:&quot;1.3&quot;}">Active days</text><rect width="200" height="68" x="480" y="84" rx="14" ry="14" fill="#111c35" stroke-width="1" stroke="#1e293b"></rect><rect width="6" height="40" x="496" y="98" rx="3" ry="3" fill="#f97316"></rect><text x="514" y="111.1015625" font-size="22" font-family="Segoe UI" font-weight="700" fill="#f8fafc" svgjs:data="{&quot;leading&quot;:&quot;1.3&quot;}">21K</text><text x="514" y="141.1015625" font-size="12" font-family="Segoe UI" font-weight="400" fill="#94a3b8" svgjs:data="{&quot;leading&quot;:&quot;1.3&quot;}">Lines changed</text><rect width="200" height="68" x="700" y="84" rx="14" ry="14" fill="#111c35" stroke-width="1" stroke="#1e293b"></rect><rect width="6" height="40" x="716" y="98" rx="3" ry="3" fill="#facc15"></rect><text x="734" y="111.1015625" font-size="22" font-family="Segoe UI" font-weight="700" fill="#f8fafc" svgjs:data="{&quot;leading&quot;:&quot;1.3&quot;}">1 day</text><text x="734" y="141.1015625" font-size="12" font-family="Segoe UI" font-weight="400" fill="#94a3b8" svgjs:data="{&quot;leading&quot;:&quot;1.3&quot;}">Current streak</text></svg>